%TF.GenerationSoftware,KiCad,Pcbnew,7.0.9-7.0.9~ubuntu20.04.1*%
%TF.CreationDate,2023-12-02T17:15:19+01:00*%
%TF.ProjectId,kicad-pmod_usb,6b696361-642d-4706-9d6f-645f7573622e,1.0*%
%TF.SameCoordinates,Original*%
%TF.FileFunction,Drillmap*%
%TF.FilePolarity,Positive*%
%FSLAX45Y45*%
G04 Gerber Fmt 4.5, Leading zero omitted, Abs format (unit mm)*
G04 Created by KiCad (PCBNEW 7.0.9-7.0.9~ubuntu20.04.1) date 2023-12-02 17:15:19*
%MOMM*%
%LPD*%
G01*
G04 APERTURE LIST*
%ADD10C,0.100000*%
%ADD11C,0.200000*%
%ADD12C,0.230000*%
G04 APERTURE END LIST*
D10*
X10706100Y-5937250D02*
G75*
G03*
X10668000Y-5975350I0J-38100D01*
G01*
X10668000Y-10788650D02*
G75*
G03*
X10744200Y-10864850I76200J0D01*
G01*
X12661900Y-5937250D02*
X10706100Y-5937250D01*
X12700000Y-10788650D02*
X12700000Y-5975350D01*
X12623800Y-10864850D02*
G75*
G03*
X12700000Y-10788650I0J76200D01*
G01*
X10744200Y-10864850D02*
X12623800Y-10864850D01*
X10668000Y-5975350D02*
X10668000Y-10788650D01*
X12700000Y-5975350D02*
G75*
G03*
X12661900Y-5937250I-38100J0D01*
G01*
D11*
D10*
X11384600Y-6857050D02*
X11424600Y-6897050D01*
X11424600Y-6857050D02*
X11384600Y-6897050D01*
X11410000Y-7187250D02*
X11450000Y-7227250D01*
X11450000Y-7187250D02*
X11410000Y-7227250D01*
X11537000Y-8965250D02*
X11577000Y-9005250D01*
X11577000Y-8965250D02*
X11537000Y-9005250D01*
X11608500Y-9315450D02*
G75*
G03*
X11608500Y-9315450I-47500J0D01*
G01*
X11608500Y-9515450D02*
G75*
G03*
X11608500Y-9515450I-47500J0D01*
G01*
X11858500Y-9315450D02*
G75*
G03*
X11858500Y-9315450I-47500J0D01*
G01*
X11858500Y-9515450D02*
G75*
G03*
X11858500Y-9515450I-47500J0D01*
G01*
X11049000Y-6293650D02*
X11049000Y-6393650D01*
X10999000Y-6343650D02*
X11099000Y-6343650D01*
X11049000Y-6547650D02*
X11049000Y-6647650D01*
X10999000Y-6597650D02*
X11099000Y-6597650D01*
X11303000Y-6293650D02*
X11303000Y-6393650D01*
X11253000Y-6343650D02*
X11353000Y-6343650D01*
X11303000Y-6547650D02*
X11303000Y-6647650D01*
X11253000Y-6597650D02*
X11353000Y-6597650D01*
X11557000Y-6293650D02*
X11557000Y-6393650D01*
X11507000Y-6343650D02*
X11607000Y-6343650D01*
X11557000Y-6547650D02*
X11557000Y-6647650D01*
X11507000Y-6597650D02*
X11607000Y-6597650D01*
X11811000Y-6293650D02*
X11811000Y-6393650D01*
X11761000Y-6343650D02*
X11861000Y-6343650D01*
X11811000Y-6547650D02*
X11811000Y-6647650D01*
X11761000Y-6597650D02*
X11861000Y-6597650D01*
X11963400Y-7258850D02*
X11963400Y-7358850D01*
X11913400Y-7308850D02*
X12013400Y-7308850D01*
X11963400Y-7512850D02*
X11963400Y-7612850D01*
X11913400Y-7562850D02*
X12013400Y-7562850D01*
X11963400Y-7766850D02*
X11963400Y-7866850D01*
X11913400Y-7816850D02*
X12013400Y-7816850D01*
X11963400Y-8020850D02*
X11963400Y-8120850D01*
X11913400Y-8070850D02*
X12013400Y-8070850D01*
X12065000Y-6293650D02*
X12065000Y-6393650D01*
X12015000Y-6343650D02*
X12115000Y-6343650D01*
X12065000Y-6547650D02*
X12065000Y-6647650D01*
X12015000Y-6597650D02*
X12115000Y-6597650D01*
X12319000Y-6293650D02*
X12319000Y-6393650D01*
X12269000Y-6343650D02*
X12369000Y-6343650D01*
X12319000Y-6547650D02*
X12319000Y-6647650D01*
X12269000Y-6597650D02*
X12369000Y-6597650D01*
D12*
X11167318Y-9882768D02*
X11167318Y-9720132D01*
X11004682Y-9720132D01*
X11004682Y-9882768D01*
X11167318Y-9882768D01*
X12367318Y-9882768D02*
X12367318Y-9720132D01*
X12204682Y-9720132D01*
X12204682Y-9882768D01*
X12367318Y-9882768D01*
D11*
X10923777Y-11181334D02*
X10923777Y-10981334D01*
X10923777Y-10981334D02*
X10971396Y-10981334D01*
X10971396Y-10981334D02*
X10999967Y-10990858D01*
X10999967Y-10990858D02*
X11019015Y-11009905D01*
X11019015Y-11009905D02*
X11028539Y-11028953D01*
X11028539Y-11028953D02*
X11038063Y-11067048D01*
X11038063Y-11067048D02*
X11038063Y-11095620D01*
X11038063Y-11095620D02*
X11028539Y-11133715D01*
X11028539Y-11133715D02*
X11019015Y-11152762D01*
X11019015Y-11152762D02*
X10999967Y-11171810D01*
X10999967Y-11171810D02*
X10971396Y-11181334D01*
X10971396Y-11181334D02*
X10923777Y-11181334D01*
X11123777Y-11181334D02*
X11123777Y-11048000D01*
X11123777Y-11086096D02*
X11133301Y-11067048D01*
X11133301Y-11067048D02*
X11142824Y-11057524D01*
X11142824Y-11057524D02*
X11161872Y-11048000D01*
X11161872Y-11048000D02*
X11180920Y-11048000D01*
X11247586Y-11181334D02*
X11247586Y-11048000D01*
X11247586Y-10981334D02*
X11238062Y-10990858D01*
X11238062Y-10990858D02*
X11247586Y-11000381D01*
X11247586Y-11000381D02*
X11257110Y-10990858D01*
X11257110Y-10990858D02*
X11247586Y-10981334D01*
X11247586Y-10981334D02*
X11247586Y-11000381D01*
X11371396Y-11181334D02*
X11352348Y-11171810D01*
X11352348Y-11171810D02*
X11342824Y-11152762D01*
X11342824Y-11152762D02*
X11342824Y-10981334D01*
X11476158Y-11181334D02*
X11457110Y-11171810D01*
X11457110Y-11171810D02*
X11447586Y-11152762D01*
X11447586Y-11152762D02*
X11447586Y-10981334D01*
X11704729Y-11181334D02*
X11704729Y-10981334D01*
X11704729Y-10981334D02*
X11771396Y-11124191D01*
X11771396Y-11124191D02*
X11838062Y-10981334D01*
X11838062Y-10981334D02*
X11838062Y-11181334D01*
X12019015Y-11181334D02*
X12019015Y-11076572D01*
X12019015Y-11076572D02*
X12009491Y-11057524D01*
X12009491Y-11057524D02*
X11990443Y-11048000D01*
X11990443Y-11048000D02*
X11952348Y-11048000D01*
X11952348Y-11048000D02*
X11933301Y-11057524D01*
X12019015Y-11171810D02*
X11999967Y-11181334D01*
X11999967Y-11181334D02*
X11952348Y-11181334D01*
X11952348Y-11181334D02*
X11933301Y-11171810D01*
X11933301Y-11171810D02*
X11923777Y-11152762D01*
X11923777Y-11152762D02*
X11923777Y-11133715D01*
X11923777Y-11133715D02*
X11933301Y-11114667D01*
X11933301Y-11114667D02*
X11952348Y-11105143D01*
X11952348Y-11105143D02*
X11999967Y-11105143D01*
X11999967Y-11105143D02*
X12019015Y-11095620D01*
X12114253Y-11048000D02*
X12114253Y-11248000D01*
X12114253Y-11057524D02*
X12133301Y-11048000D01*
X12133301Y-11048000D02*
X12171396Y-11048000D01*
X12171396Y-11048000D02*
X12190443Y-11057524D01*
X12190443Y-11057524D02*
X12199967Y-11067048D01*
X12199967Y-11067048D02*
X12209491Y-11086096D01*
X12209491Y-11086096D02*
X12209491Y-11143239D01*
X12209491Y-11143239D02*
X12199967Y-11162286D01*
X12199967Y-11162286D02*
X12190443Y-11171810D01*
X12190443Y-11171810D02*
X12171396Y-11181334D01*
X12171396Y-11181334D02*
X12133301Y-11181334D01*
X12133301Y-11181334D02*
X12114253Y-11171810D01*
X12295205Y-11162286D02*
X12304729Y-11171810D01*
X12304729Y-11171810D02*
X12295205Y-11181334D01*
X12295205Y-11181334D02*
X12285682Y-11171810D01*
X12285682Y-11171810D02*
X12295205Y-11162286D01*
X12295205Y-11162286D02*
X12295205Y-11181334D01*
X12295205Y-11057524D02*
X12304729Y-11067048D01*
X12304729Y-11067048D02*
X12295205Y-11076572D01*
X12295205Y-11076572D02*
X12285682Y-11067048D01*
X12285682Y-11067048D02*
X12295205Y-11057524D01*
X12295205Y-11057524D02*
X12295205Y-11076572D01*
D10*
X10623000Y-11489850D02*
X10663000Y-11529850D01*
X10663000Y-11489850D02*
X10623000Y-11529850D01*
D11*
X10961872Y-11401334D02*
X10980920Y-11401334D01*
X10980920Y-11401334D02*
X10999967Y-11410858D01*
X10999967Y-11410858D02*
X11009491Y-11420381D01*
X11009491Y-11420381D02*
X11019015Y-11439429D01*
X11019015Y-11439429D02*
X11028539Y-11477524D01*
X11028539Y-11477524D02*
X11028539Y-11525143D01*
X11028539Y-11525143D02*
X11019015Y-11563238D01*
X11019015Y-11563238D02*
X11009491Y-11582286D01*
X11009491Y-11582286D02*
X10999967Y-11591810D01*
X10999967Y-11591810D02*
X10980920Y-11601334D01*
X10980920Y-11601334D02*
X10961872Y-11601334D01*
X10961872Y-11601334D02*
X10942824Y-11591810D01*
X10942824Y-11591810D02*
X10933301Y-11582286D01*
X10933301Y-11582286D02*
X10923777Y-11563238D01*
X10923777Y-11563238D02*
X10914253Y-11525143D01*
X10914253Y-11525143D02*
X10914253Y-11477524D01*
X10914253Y-11477524D02*
X10923777Y-11439429D01*
X10923777Y-11439429D02*
X10933301Y-11420381D01*
X10933301Y-11420381D02*
X10942824Y-11410858D01*
X10942824Y-11410858D02*
X10961872Y-11401334D01*
X11114253Y-11582286D02*
X11123777Y-11591810D01*
X11123777Y-11591810D02*
X11114253Y-11601334D01*
X11114253Y-11601334D02*
X11104729Y-11591810D01*
X11104729Y-11591810D02*
X11114253Y-11582286D01*
X11114253Y-11582286D02*
X11114253Y-11601334D01*
X11295205Y-11468000D02*
X11295205Y-11601334D01*
X11247586Y-11391810D02*
X11199967Y-11534667D01*
X11199967Y-11534667D02*
X11323777Y-11534667D01*
X11438062Y-11401334D02*
X11457110Y-11401334D01*
X11457110Y-11401334D02*
X11476158Y-11410858D01*
X11476158Y-11410858D02*
X11485682Y-11420381D01*
X11485682Y-11420381D02*
X11495205Y-11439429D01*
X11495205Y-11439429D02*
X11504729Y-11477524D01*
X11504729Y-11477524D02*
X11504729Y-11525143D01*
X11504729Y-11525143D02*
X11495205Y-11563238D01*
X11495205Y-11563238D02*
X11485682Y-11582286D01*
X11485682Y-11582286D02*
X11476158Y-11591810D01*
X11476158Y-11591810D02*
X11457110Y-11601334D01*
X11457110Y-11601334D02*
X11438062Y-11601334D01*
X11438062Y-11601334D02*
X11419015Y-11591810D01*
X11419015Y-11591810D02*
X11409491Y-11582286D01*
X11409491Y-11582286D02*
X11399967Y-11563238D01*
X11399967Y-11563238D02*
X11390443Y-11525143D01*
X11390443Y-11525143D02*
X11390443Y-11477524D01*
X11390443Y-11477524D02*
X11399967Y-11439429D01*
X11399967Y-11439429D02*
X11409491Y-11420381D01*
X11409491Y-11420381D02*
X11419015Y-11410858D01*
X11419015Y-11410858D02*
X11438062Y-11401334D01*
X11628539Y-11401334D02*
X11647586Y-11401334D01*
X11647586Y-11401334D02*
X11666634Y-11410858D01*
X11666634Y-11410858D02*
X11676158Y-11420381D01*
X11676158Y-11420381D02*
X11685682Y-11439429D01*
X11685682Y-11439429D02*
X11695205Y-11477524D01*
X11695205Y-11477524D02*
X11695205Y-11525143D01*
X11695205Y-11525143D02*
X11685682Y-11563238D01*
X11685682Y-11563238D02*
X11676158Y-11582286D01*
X11676158Y-11582286D02*
X11666634Y-11591810D01*
X11666634Y-11591810D02*
X11647586Y-11601334D01*
X11647586Y-11601334D02*
X11628539Y-11601334D01*
X11628539Y-11601334D02*
X11609491Y-11591810D01*
X11609491Y-11591810D02*
X11599967Y-11582286D01*
X11599967Y-11582286D02*
X11590443Y-11563238D01*
X11590443Y-11563238D02*
X11580920Y-11525143D01*
X11580920Y-11525143D02*
X11580920Y-11477524D01*
X11580920Y-11477524D02*
X11590443Y-11439429D01*
X11590443Y-11439429D02*
X11599967Y-11420381D01*
X11599967Y-11420381D02*
X11609491Y-11410858D01*
X11609491Y-11410858D02*
X11628539Y-11401334D01*
X11780920Y-11601334D02*
X11780920Y-11468000D01*
X11780920Y-11487048D02*
X11790443Y-11477524D01*
X11790443Y-11477524D02*
X11809491Y-11468000D01*
X11809491Y-11468000D02*
X11838063Y-11468000D01*
X11838063Y-11468000D02*
X11857110Y-11477524D01*
X11857110Y-11477524D02*
X11866634Y-11496572D01*
X11866634Y-11496572D02*
X11866634Y-11601334D01*
X11866634Y-11496572D02*
X11876158Y-11477524D01*
X11876158Y-11477524D02*
X11895205Y-11468000D01*
X11895205Y-11468000D02*
X11923777Y-11468000D01*
X11923777Y-11468000D02*
X11942824Y-11477524D01*
X11942824Y-11477524D02*
X11952348Y-11496572D01*
X11952348Y-11496572D02*
X11952348Y-11601334D01*
X12047586Y-11601334D02*
X12047586Y-11468000D01*
X12047586Y-11487048D02*
X12057110Y-11477524D01*
X12057110Y-11477524D02*
X12076158Y-11468000D01*
X12076158Y-11468000D02*
X12104729Y-11468000D01*
X12104729Y-11468000D02*
X12123777Y-11477524D01*
X12123777Y-11477524D02*
X12133301Y-11496572D01*
X12133301Y-11496572D02*
X12133301Y-11601334D01*
X12133301Y-11496572D02*
X12142824Y-11477524D01*
X12142824Y-11477524D02*
X12161872Y-11468000D01*
X12161872Y-11468000D02*
X12190443Y-11468000D01*
X12190443Y-11468000D02*
X12209491Y-11477524D01*
X12209491Y-11477524D02*
X12219015Y-11496572D01*
X12219015Y-11496572D02*
X12219015Y-11601334D01*
X12609491Y-11391810D02*
X12438063Y-11648953D01*
X12866634Y-11401334D02*
X12885682Y-11401334D01*
X12885682Y-11401334D02*
X12904729Y-11410858D01*
X12904729Y-11410858D02*
X12914253Y-11420381D01*
X12914253Y-11420381D02*
X12923777Y-11439429D01*
X12923777Y-11439429D02*
X12933301Y-11477524D01*
X12933301Y-11477524D02*
X12933301Y-11525143D01*
X12933301Y-11525143D02*
X12923777Y-11563238D01*
X12923777Y-11563238D02*
X12914253Y-11582286D01*
X12914253Y-11582286D02*
X12904729Y-11591810D01*
X12904729Y-11591810D02*
X12885682Y-11601334D01*
X12885682Y-11601334D02*
X12866634Y-11601334D01*
X12866634Y-11601334D02*
X12847586Y-11591810D01*
X12847586Y-11591810D02*
X12838063Y-11582286D01*
X12838063Y-11582286D02*
X12828539Y-11563238D01*
X12828539Y-11563238D02*
X12819015Y-11525143D01*
X12819015Y-11525143D02*
X12819015Y-11477524D01*
X12819015Y-11477524D02*
X12828539Y-11439429D01*
X12828539Y-11439429D02*
X12838063Y-11420381D01*
X12838063Y-11420381D02*
X12847586Y-11410858D01*
X12847586Y-11410858D02*
X12866634Y-11401334D01*
X13019015Y-11582286D02*
X13028539Y-11591810D01*
X13028539Y-11591810D02*
X13019015Y-11601334D01*
X13019015Y-11601334D02*
X13009491Y-11591810D01*
X13009491Y-11591810D02*
X13019015Y-11582286D01*
X13019015Y-11582286D02*
X13019015Y-11601334D01*
X13152348Y-11401334D02*
X13171396Y-11401334D01*
X13171396Y-11401334D02*
X13190444Y-11410858D01*
X13190444Y-11410858D02*
X13199967Y-11420381D01*
X13199967Y-11420381D02*
X13209491Y-11439429D01*
X13209491Y-11439429D02*
X13219015Y-11477524D01*
X13219015Y-11477524D02*
X13219015Y-11525143D01*
X13219015Y-11525143D02*
X13209491Y-11563238D01*
X13209491Y-11563238D02*
X13199967Y-11582286D01*
X13199967Y-11582286D02*
X13190444Y-11591810D01*
X13190444Y-11591810D02*
X13171396Y-11601334D01*
X13171396Y-11601334D02*
X13152348Y-11601334D01*
X13152348Y-11601334D02*
X13133301Y-11591810D01*
X13133301Y-11591810D02*
X13123777Y-11582286D01*
X13123777Y-11582286D02*
X13114253Y-11563238D01*
X13114253Y-11563238D02*
X13104729Y-11525143D01*
X13104729Y-11525143D02*
X13104729Y-11477524D01*
X13104729Y-11477524D02*
X13114253Y-11439429D01*
X13114253Y-11439429D02*
X13123777Y-11420381D01*
X13123777Y-11420381D02*
X13133301Y-11410858D01*
X13133301Y-11410858D02*
X13152348Y-11401334D01*
X13409491Y-11601334D02*
X13295206Y-11601334D01*
X13352348Y-11601334D02*
X13352348Y-11401334D01*
X13352348Y-11401334D02*
X13333301Y-11429905D01*
X13333301Y-11429905D02*
X13314253Y-11448953D01*
X13314253Y-11448953D02*
X13295206Y-11458477D01*
X13590444Y-11401334D02*
X13495206Y-11401334D01*
X13495206Y-11401334D02*
X13485682Y-11496572D01*
X13485682Y-11496572D02*
X13495206Y-11487048D01*
X13495206Y-11487048D02*
X13514253Y-11477524D01*
X13514253Y-11477524D02*
X13561872Y-11477524D01*
X13561872Y-11477524D02*
X13580920Y-11487048D01*
X13580920Y-11487048D02*
X13590444Y-11496572D01*
X13590444Y-11496572D02*
X13599967Y-11515619D01*
X13599967Y-11515619D02*
X13599967Y-11563238D01*
X13599967Y-11563238D02*
X13590444Y-11582286D01*
X13590444Y-11582286D02*
X13580920Y-11591810D01*
X13580920Y-11591810D02*
X13561872Y-11601334D01*
X13561872Y-11601334D02*
X13514253Y-11601334D01*
X13514253Y-11601334D02*
X13495206Y-11591810D01*
X13495206Y-11591810D02*
X13485682Y-11582286D01*
X13666634Y-11401334D02*
X13799967Y-11401334D01*
X13799967Y-11401334D02*
X13714253Y-11601334D01*
X13866634Y-11401334D02*
X13866634Y-11439429D01*
X13942825Y-11401334D02*
X13942825Y-11439429D01*
X14238063Y-11677524D02*
X14228539Y-11668000D01*
X14228539Y-11668000D02*
X14209491Y-11639429D01*
X14209491Y-11639429D02*
X14199968Y-11620381D01*
X14199968Y-11620381D02*
X14190444Y-11591810D01*
X14190444Y-11591810D02*
X14180920Y-11544191D01*
X14180920Y-11544191D02*
X14180920Y-11506096D01*
X14180920Y-11506096D02*
X14190444Y-11458477D01*
X14190444Y-11458477D02*
X14199968Y-11429905D01*
X14199968Y-11429905D02*
X14209491Y-11410858D01*
X14209491Y-11410858D02*
X14228539Y-11382286D01*
X14228539Y-11382286D02*
X14238063Y-11372762D01*
X14295206Y-11401334D02*
X14419015Y-11401334D01*
X14419015Y-11401334D02*
X14352348Y-11477524D01*
X14352348Y-11477524D02*
X14380920Y-11477524D01*
X14380920Y-11477524D02*
X14399968Y-11487048D01*
X14399968Y-11487048D02*
X14409491Y-11496572D01*
X14409491Y-11496572D02*
X14419015Y-11515619D01*
X14419015Y-11515619D02*
X14419015Y-11563238D01*
X14419015Y-11563238D02*
X14409491Y-11582286D01*
X14409491Y-11582286D02*
X14399968Y-11591810D01*
X14399968Y-11591810D02*
X14380920Y-11601334D01*
X14380920Y-11601334D02*
X14323777Y-11601334D01*
X14323777Y-11601334D02*
X14304729Y-11591810D01*
X14304729Y-11591810D02*
X14295206Y-11582286D01*
X14657110Y-11601334D02*
X14657110Y-11401334D01*
X14742825Y-11601334D02*
X14742825Y-11496572D01*
X14742825Y-11496572D02*
X14733301Y-11477524D01*
X14733301Y-11477524D02*
X14714253Y-11468000D01*
X14714253Y-11468000D02*
X14685682Y-11468000D01*
X14685682Y-11468000D02*
X14666634Y-11477524D01*
X14666634Y-11477524D02*
X14657110Y-11487048D01*
X14866634Y-11601334D02*
X14847587Y-11591810D01*
X14847587Y-11591810D02*
X14838063Y-11582286D01*
X14838063Y-11582286D02*
X14828539Y-11563238D01*
X14828539Y-11563238D02*
X14828539Y-11506096D01*
X14828539Y-11506096D02*
X14838063Y-11487048D01*
X14838063Y-11487048D02*
X14847587Y-11477524D01*
X14847587Y-11477524D02*
X14866634Y-11468000D01*
X14866634Y-11468000D02*
X14895206Y-11468000D01*
X14895206Y-11468000D02*
X14914253Y-11477524D01*
X14914253Y-11477524D02*
X14923777Y-11487048D01*
X14923777Y-11487048D02*
X14933301Y-11506096D01*
X14933301Y-11506096D02*
X14933301Y-11563238D01*
X14933301Y-11563238D02*
X14923777Y-11582286D01*
X14923777Y-11582286D02*
X14914253Y-11591810D01*
X14914253Y-11591810D02*
X14895206Y-11601334D01*
X14895206Y-11601334D02*
X14866634Y-11601334D01*
X15047587Y-11601334D02*
X15028539Y-11591810D01*
X15028539Y-11591810D02*
X15019015Y-11572762D01*
X15019015Y-11572762D02*
X15019015Y-11401334D01*
X15199968Y-11591810D02*
X15180920Y-11601334D01*
X15180920Y-11601334D02*
X15142825Y-11601334D01*
X15142825Y-11601334D02*
X15123777Y-11591810D01*
X15123777Y-11591810D02*
X15114253Y-11572762D01*
X15114253Y-11572762D02*
X15114253Y-11496572D01*
X15114253Y-11496572D02*
X15123777Y-11477524D01*
X15123777Y-11477524D02*
X15142825Y-11468000D01*
X15142825Y-11468000D02*
X15180920Y-11468000D01*
X15180920Y-11468000D02*
X15199968Y-11477524D01*
X15199968Y-11477524D02*
X15209491Y-11496572D01*
X15209491Y-11496572D02*
X15209491Y-11515619D01*
X15209491Y-11515619D02*
X15114253Y-11534667D01*
X15285682Y-11591810D02*
X15304730Y-11601334D01*
X15304730Y-11601334D02*
X15342825Y-11601334D01*
X15342825Y-11601334D02*
X15361872Y-11591810D01*
X15361872Y-11591810D02*
X15371396Y-11572762D01*
X15371396Y-11572762D02*
X15371396Y-11563238D01*
X15371396Y-11563238D02*
X15361872Y-11544191D01*
X15361872Y-11544191D02*
X15342825Y-11534667D01*
X15342825Y-11534667D02*
X15314253Y-11534667D01*
X15314253Y-11534667D02*
X15295206Y-11525143D01*
X15295206Y-11525143D02*
X15285682Y-11506096D01*
X15285682Y-11506096D02*
X15285682Y-11496572D01*
X15285682Y-11496572D02*
X15295206Y-11477524D01*
X15295206Y-11477524D02*
X15314253Y-11468000D01*
X15314253Y-11468000D02*
X15342825Y-11468000D01*
X15342825Y-11468000D02*
X15361872Y-11477524D01*
X15438063Y-11677524D02*
X15447587Y-11668000D01*
X15447587Y-11668000D02*
X15466634Y-11639429D01*
X15466634Y-11639429D02*
X15476158Y-11620381D01*
X15476158Y-11620381D02*
X15485682Y-11591810D01*
X15485682Y-11591810D02*
X15495206Y-11544191D01*
X15495206Y-11544191D02*
X15495206Y-11506096D01*
X15495206Y-11506096D02*
X15485682Y-11458477D01*
X15485682Y-11458477D02*
X15476158Y-11429905D01*
X15476158Y-11429905D02*
X15466634Y-11410858D01*
X15466634Y-11410858D02*
X15447587Y-11382286D01*
X15447587Y-11382286D02*
X15438063Y-11372762D01*
D10*
X10663000Y-11773850D02*
G75*
G03*
X10663000Y-11773850I-47500J0D01*
G01*
D11*
X10961872Y-11665334D02*
X10980920Y-11665334D01*
X10980920Y-11665334D02*
X10999967Y-11674858D01*
X10999967Y-11674858D02*
X11009491Y-11684381D01*
X11009491Y-11684381D02*
X11019015Y-11703429D01*
X11019015Y-11703429D02*
X11028539Y-11741524D01*
X11028539Y-11741524D02*
X11028539Y-11789143D01*
X11028539Y-11789143D02*
X11019015Y-11827238D01*
X11019015Y-11827238D02*
X11009491Y-11846286D01*
X11009491Y-11846286D02*
X10999967Y-11855810D01*
X10999967Y-11855810D02*
X10980920Y-11865334D01*
X10980920Y-11865334D02*
X10961872Y-11865334D01*
X10961872Y-11865334D02*
X10942824Y-11855810D01*
X10942824Y-11855810D02*
X10933301Y-11846286D01*
X10933301Y-11846286D02*
X10923777Y-11827238D01*
X10923777Y-11827238D02*
X10914253Y-11789143D01*
X10914253Y-11789143D02*
X10914253Y-11741524D01*
X10914253Y-11741524D02*
X10923777Y-11703429D01*
X10923777Y-11703429D02*
X10933301Y-11684381D01*
X10933301Y-11684381D02*
X10942824Y-11674858D01*
X10942824Y-11674858D02*
X10961872Y-11665334D01*
X11114253Y-11846286D02*
X11123777Y-11855810D01*
X11123777Y-11855810D02*
X11114253Y-11865334D01*
X11114253Y-11865334D02*
X11104729Y-11855810D01*
X11104729Y-11855810D02*
X11114253Y-11846286D01*
X11114253Y-11846286D02*
X11114253Y-11865334D01*
X11219015Y-11865334D02*
X11257110Y-11865334D01*
X11257110Y-11865334D02*
X11276158Y-11855810D01*
X11276158Y-11855810D02*
X11285682Y-11846286D01*
X11285682Y-11846286D02*
X11304729Y-11817715D01*
X11304729Y-11817715D02*
X11314253Y-11779619D01*
X11314253Y-11779619D02*
X11314253Y-11703429D01*
X11314253Y-11703429D02*
X11304729Y-11684381D01*
X11304729Y-11684381D02*
X11295205Y-11674858D01*
X11295205Y-11674858D02*
X11276158Y-11665334D01*
X11276158Y-11665334D02*
X11238062Y-11665334D01*
X11238062Y-11665334D02*
X11219015Y-11674858D01*
X11219015Y-11674858D02*
X11209491Y-11684381D01*
X11209491Y-11684381D02*
X11199967Y-11703429D01*
X11199967Y-11703429D02*
X11199967Y-11751048D01*
X11199967Y-11751048D02*
X11209491Y-11770096D01*
X11209491Y-11770096D02*
X11219015Y-11779619D01*
X11219015Y-11779619D02*
X11238062Y-11789143D01*
X11238062Y-11789143D02*
X11276158Y-11789143D01*
X11276158Y-11789143D02*
X11295205Y-11779619D01*
X11295205Y-11779619D02*
X11304729Y-11770096D01*
X11304729Y-11770096D02*
X11314253Y-11751048D01*
X11495205Y-11665334D02*
X11399967Y-11665334D01*
X11399967Y-11665334D02*
X11390443Y-11760572D01*
X11390443Y-11760572D02*
X11399967Y-11751048D01*
X11399967Y-11751048D02*
X11419015Y-11741524D01*
X11419015Y-11741524D02*
X11466634Y-11741524D01*
X11466634Y-11741524D02*
X11485682Y-11751048D01*
X11485682Y-11751048D02*
X11495205Y-11760572D01*
X11495205Y-11760572D02*
X11504729Y-11779619D01*
X11504729Y-11779619D02*
X11504729Y-11827238D01*
X11504729Y-11827238D02*
X11495205Y-11846286D01*
X11495205Y-11846286D02*
X11485682Y-11855810D01*
X11485682Y-11855810D02*
X11466634Y-11865334D01*
X11466634Y-11865334D02*
X11419015Y-11865334D01*
X11419015Y-11865334D02*
X11399967Y-11855810D01*
X11399967Y-11855810D02*
X11390443Y-11846286D01*
X11628539Y-11665334D02*
X11647586Y-11665334D01*
X11647586Y-11665334D02*
X11666634Y-11674858D01*
X11666634Y-11674858D02*
X11676158Y-11684381D01*
X11676158Y-11684381D02*
X11685682Y-11703429D01*
X11685682Y-11703429D02*
X11695205Y-11741524D01*
X11695205Y-11741524D02*
X11695205Y-11789143D01*
X11695205Y-11789143D02*
X11685682Y-11827238D01*
X11685682Y-11827238D02*
X11676158Y-11846286D01*
X11676158Y-11846286D02*
X11666634Y-11855810D01*
X11666634Y-11855810D02*
X11647586Y-11865334D01*
X11647586Y-11865334D02*
X11628539Y-11865334D01*
X11628539Y-11865334D02*
X11609491Y-11855810D01*
X11609491Y-11855810D02*
X11599967Y-11846286D01*
X11599967Y-11846286D02*
X11590443Y-11827238D01*
X11590443Y-11827238D02*
X11580920Y-11789143D01*
X11580920Y-11789143D02*
X11580920Y-11741524D01*
X11580920Y-11741524D02*
X11590443Y-11703429D01*
X11590443Y-11703429D02*
X11599967Y-11684381D01*
X11599967Y-11684381D02*
X11609491Y-11674858D01*
X11609491Y-11674858D02*
X11628539Y-11665334D01*
X11780920Y-11865334D02*
X11780920Y-11732000D01*
X11780920Y-11751048D02*
X11790443Y-11741524D01*
X11790443Y-11741524D02*
X11809491Y-11732000D01*
X11809491Y-11732000D02*
X11838063Y-11732000D01*
X11838063Y-11732000D02*
X11857110Y-11741524D01*
X11857110Y-11741524D02*
X11866634Y-11760572D01*
X11866634Y-11760572D02*
X11866634Y-11865334D01*
X11866634Y-11760572D02*
X11876158Y-11741524D01*
X11876158Y-11741524D02*
X11895205Y-11732000D01*
X11895205Y-11732000D02*
X11923777Y-11732000D01*
X11923777Y-11732000D02*
X11942824Y-11741524D01*
X11942824Y-11741524D02*
X11952348Y-11760572D01*
X11952348Y-11760572D02*
X11952348Y-11865334D01*
X12047586Y-11865334D02*
X12047586Y-11732000D01*
X12047586Y-11751048D02*
X12057110Y-11741524D01*
X12057110Y-11741524D02*
X12076158Y-11732000D01*
X12076158Y-11732000D02*
X12104729Y-11732000D01*
X12104729Y-11732000D02*
X12123777Y-11741524D01*
X12123777Y-11741524D02*
X12133301Y-11760572D01*
X12133301Y-11760572D02*
X12133301Y-11865334D01*
X12133301Y-11760572D02*
X12142824Y-11741524D01*
X12142824Y-11741524D02*
X12161872Y-11732000D01*
X12161872Y-11732000D02*
X12190443Y-11732000D01*
X12190443Y-11732000D02*
X12209491Y-11741524D01*
X12209491Y-11741524D02*
X12219015Y-11760572D01*
X12219015Y-11760572D02*
X12219015Y-11865334D01*
X12609491Y-11655810D02*
X12438063Y-11912953D01*
X12866634Y-11665334D02*
X12885682Y-11665334D01*
X12885682Y-11665334D02*
X12904729Y-11674858D01*
X12904729Y-11674858D02*
X12914253Y-11684381D01*
X12914253Y-11684381D02*
X12923777Y-11703429D01*
X12923777Y-11703429D02*
X12933301Y-11741524D01*
X12933301Y-11741524D02*
X12933301Y-11789143D01*
X12933301Y-11789143D02*
X12923777Y-11827238D01*
X12923777Y-11827238D02*
X12914253Y-11846286D01*
X12914253Y-11846286D02*
X12904729Y-11855810D01*
X12904729Y-11855810D02*
X12885682Y-11865334D01*
X12885682Y-11865334D02*
X12866634Y-11865334D01*
X12866634Y-11865334D02*
X12847586Y-11855810D01*
X12847586Y-11855810D02*
X12838063Y-11846286D01*
X12838063Y-11846286D02*
X12828539Y-11827238D01*
X12828539Y-11827238D02*
X12819015Y-11789143D01*
X12819015Y-11789143D02*
X12819015Y-11741524D01*
X12819015Y-11741524D02*
X12828539Y-11703429D01*
X12828539Y-11703429D02*
X12838063Y-11684381D01*
X12838063Y-11684381D02*
X12847586Y-11674858D01*
X12847586Y-11674858D02*
X12866634Y-11665334D01*
X13019015Y-11846286D02*
X13028539Y-11855810D01*
X13028539Y-11855810D02*
X13019015Y-11865334D01*
X13019015Y-11865334D02*
X13009491Y-11855810D01*
X13009491Y-11855810D02*
X13019015Y-11846286D01*
X13019015Y-11846286D02*
X13019015Y-11865334D01*
X13152348Y-11665334D02*
X13171396Y-11665334D01*
X13171396Y-11665334D02*
X13190444Y-11674858D01*
X13190444Y-11674858D02*
X13199967Y-11684381D01*
X13199967Y-11684381D02*
X13209491Y-11703429D01*
X13209491Y-11703429D02*
X13219015Y-11741524D01*
X13219015Y-11741524D02*
X13219015Y-11789143D01*
X13219015Y-11789143D02*
X13209491Y-11827238D01*
X13209491Y-11827238D02*
X13199967Y-11846286D01*
X13199967Y-11846286D02*
X13190444Y-11855810D01*
X13190444Y-11855810D02*
X13171396Y-11865334D01*
X13171396Y-11865334D02*
X13152348Y-11865334D01*
X13152348Y-11865334D02*
X13133301Y-11855810D01*
X13133301Y-11855810D02*
X13123777Y-11846286D01*
X13123777Y-11846286D02*
X13114253Y-11827238D01*
X13114253Y-11827238D02*
X13104729Y-11789143D01*
X13104729Y-11789143D02*
X13104729Y-11741524D01*
X13104729Y-11741524D02*
X13114253Y-11703429D01*
X13114253Y-11703429D02*
X13123777Y-11684381D01*
X13123777Y-11684381D02*
X13133301Y-11674858D01*
X13133301Y-11674858D02*
X13152348Y-11665334D01*
X13285682Y-11665334D02*
X13409491Y-11665334D01*
X13409491Y-11665334D02*
X13342825Y-11741524D01*
X13342825Y-11741524D02*
X13371396Y-11741524D01*
X13371396Y-11741524D02*
X13390444Y-11751048D01*
X13390444Y-11751048D02*
X13399967Y-11760572D01*
X13399967Y-11760572D02*
X13409491Y-11779619D01*
X13409491Y-11779619D02*
X13409491Y-11827238D01*
X13409491Y-11827238D02*
X13399967Y-11846286D01*
X13399967Y-11846286D02*
X13390444Y-11855810D01*
X13390444Y-11855810D02*
X13371396Y-11865334D01*
X13371396Y-11865334D02*
X13314253Y-11865334D01*
X13314253Y-11865334D02*
X13295206Y-11855810D01*
X13295206Y-11855810D02*
X13285682Y-11846286D01*
X13476158Y-11665334D02*
X13609491Y-11665334D01*
X13609491Y-11665334D02*
X13523777Y-11865334D01*
X13771396Y-11732000D02*
X13771396Y-11865334D01*
X13723777Y-11655810D02*
X13676158Y-11798667D01*
X13676158Y-11798667D02*
X13799967Y-11798667D01*
X13866634Y-11665334D02*
X13866634Y-11703429D01*
X13942825Y-11665334D02*
X13942825Y-11703429D01*
X14238063Y-11941524D02*
X14228539Y-11932000D01*
X14228539Y-11932000D02*
X14209491Y-11903429D01*
X14209491Y-11903429D02*
X14199968Y-11884381D01*
X14199968Y-11884381D02*
X14190444Y-11855810D01*
X14190444Y-11855810D02*
X14180920Y-11808191D01*
X14180920Y-11808191D02*
X14180920Y-11770096D01*
X14180920Y-11770096D02*
X14190444Y-11722477D01*
X14190444Y-11722477D02*
X14199968Y-11693905D01*
X14199968Y-11693905D02*
X14209491Y-11674858D01*
X14209491Y-11674858D02*
X14228539Y-11646286D01*
X14228539Y-11646286D02*
X14238063Y-11636762D01*
X14399968Y-11732000D02*
X14399968Y-11865334D01*
X14352348Y-11655810D02*
X14304729Y-11798667D01*
X14304729Y-11798667D02*
X14428539Y-11798667D01*
X14657110Y-11865334D02*
X14657110Y-11665334D01*
X14742825Y-11865334D02*
X14742825Y-11760572D01*
X14742825Y-11760572D02*
X14733301Y-11741524D01*
X14733301Y-11741524D02*
X14714253Y-11732000D01*
X14714253Y-11732000D02*
X14685682Y-11732000D01*
X14685682Y-11732000D02*
X14666634Y-11741524D01*
X14666634Y-11741524D02*
X14657110Y-11751048D01*
X14866634Y-11865334D02*
X14847587Y-11855810D01*
X14847587Y-11855810D02*
X14838063Y-11846286D01*
X14838063Y-11846286D02*
X14828539Y-11827238D01*
X14828539Y-11827238D02*
X14828539Y-11770096D01*
X14828539Y-11770096D02*
X14838063Y-11751048D01*
X14838063Y-11751048D02*
X14847587Y-11741524D01*
X14847587Y-11741524D02*
X14866634Y-11732000D01*
X14866634Y-11732000D02*
X14895206Y-11732000D01*
X14895206Y-11732000D02*
X14914253Y-11741524D01*
X14914253Y-11741524D02*
X14923777Y-11751048D01*
X14923777Y-11751048D02*
X14933301Y-11770096D01*
X14933301Y-11770096D02*
X14933301Y-11827238D01*
X14933301Y-11827238D02*
X14923777Y-11846286D01*
X14923777Y-11846286D02*
X14914253Y-11855810D01*
X14914253Y-11855810D02*
X14895206Y-11865334D01*
X14895206Y-11865334D02*
X14866634Y-11865334D01*
X15047587Y-11865334D02*
X15028539Y-11855810D01*
X15028539Y-11855810D02*
X15019015Y-11836762D01*
X15019015Y-11836762D02*
X15019015Y-11665334D01*
X15199968Y-11855810D02*
X15180920Y-11865334D01*
X15180920Y-11865334D02*
X15142825Y-11865334D01*
X15142825Y-11865334D02*
X15123777Y-11855810D01*
X15123777Y-11855810D02*
X15114253Y-11836762D01*
X15114253Y-11836762D02*
X15114253Y-11760572D01*
X15114253Y-11760572D02*
X15123777Y-11741524D01*
X15123777Y-11741524D02*
X15142825Y-11732000D01*
X15142825Y-11732000D02*
X15180920Y-11732000D01*
X15180920Y-11732000D02*
X15199968Y-11741524D01*
X15199968Y-11741524D02*
X15209491Y-11760572D01*
X15209491Y-11760572D02*
X15209491Y-11779619D01*
X15209491Y-11779619D02*
X15114253Y-11798667D01*
X15285682Y-11855810D02*
X15304730Y-11865334D01*
X15304730Y-11865334D02*
X15342825Y-11865334D01*
X15342825Y-11865334D02*
X15361872Y-11855810D01*
X15361872Y-11855810D02*
X15371396Y-11836762D01*
X15371396Y-11836762D02*
X15371396Y-11827238D01*
X15371396Y-11827238D02*
X15361872Y-11808191D01*
X15361872Y-11808191D02*
X15342825Y-11798667D01*
X15342825Y-11798667D02*
X15314253Y-11798667D01*
X15314253Y-11798667D02*
X15295206Y-11789143D01*
X15295206Y-11789143D02*
X15285682Y-11770096D01*
X15285682Y-11770096D02*
X15285682Y-11760572D01*
X15285682Y-11760572D02*
X15295206Y-11741524D01*
X15295206Y-11741524D02*
X15314253Y-11732000D01*
X15314253Y-11732000D02*
X15342825Y-11732000D01*
X15342825Y-11732000D02*
X15361872Y-11741524D01*
X15438063Y-11941524D02*
X15447587Y-11932000D01*
X15447587Y-11932000D02*
X15466634Y-11903429D01*
X15466634Y-11903429D02*
X15476158Y-11884381D01*
X15476158Y-11884381D02*
X15485682Y-11855810D01*
X15485682Y-11855810D02*
X15495206Y-11808191D01*
X15495206Y-11808191D02*
X15495206Y-11770096D01*
X15495206Y-11770096D02*
X15485682Y-11722477D01*
X15485682Y-11722477D02*
X15476158Y-11693905D01*
X15476158Y-11693905D02*
X15466634Y-11674858D01*
X15466634Y-11674858D02*
X15447587Y-11646286D01*
X15447587Y-11646286D02*
X15438063Y-11636762D01*
D10*
X10613000Y-11987850D02*
X10613000Y-12087850D01*
X10563000Y-12037850D02*
X10663000Y-12037850D01*
D11*
X11028539Y-12129334D02*
X10914253Y-12129334D01*
X10971396Y-12129334D02*
X10971396Y-11929334D01*
X10971396Y-11929334D02*
X10952348Y-11957905D01*
X10952348Y-11957905D02*
X10933301Y-11976953D01*
X10933301Y-11976953D02*
X10914253Y-11986477D01*
X11114253Y-12110286D02*
X11123777Y-12119810D01*
X11123777Y-12119810D02*
X11114253Y-12129334D01*
X11114253Y-12129334D02*
X11104729Y-12119810D01*
X11104729Y-12119810D02*
X11114253Y-12110286D01*
X11114253Y-12110286D02*
X11114253Y-12129334D01*
X11247586Y-11929334D02*
X11266634Y-11929334D01*
X11266634Y-11929334D02*
X11285682Y-11938858D01*
X11285682Y-11938858D02*
X11295205Y-11948381D01*
X11295205Y-11948381D02*
X11304729Y-11967429D01*
X11304729Y-11967429D02*
X11314253Y-12005524D01*
X11314253Y-12005524D02*
X11314253Y-12053143D01*
X11314253Y-12053143D02*
X11304729Y-12091238D01*
X11304729Y-12091238D02*
X11295205Y-12110286D01*
X11295205Y-12110286D02*
X11285682Y-12119810D01*
X11285682Y-12119810D02*
X11266634Y-12129334D01*
X11266634Y-12129334D02*
X11247586Y-12129334D01*
X11247586Y-12129334D02*
X11228539Y-12119810D01*
X11228539Y-12119810D02*
X11219015Y-12110286D01*
X11219015Y-12110286D02*
X11209491Y-12091238D01*
X11209491Y-12091238D02*
X11199967Y-12053143D01*
X11199967Y-12053143D02*
X11199967Y-12005524D01*
X11199967Y-12005524D02*
X11209491Y-11967429D01*
X11209491Y-11967429D02*
X11219015Y-11948381D01*
X11219015Y-11948381D02*
X11228539Y-11938858D01*
X11228539Y-11938858D02*
X11247586Y-11929334D01*
X11438062Y-11929334D02*
X11457110Y-11929334D01*
X11457110Y-11929334D02*
X11476158Y-11938858D01*
X11476158Y-11938858D02*
X11485682Y-11948381D01*
X11485682Y-11948381D02*
X11495205Y-11967429D01*
X11495205Y-11967429D02*
X11504729Y-12005524D01*
X11504729Y-12005524D02*
X11504729Y-12053143D01*
X11504729Y-12053143D02*
X11495205Y-12091238D01*
X11495205Y-12091238D02*
X11485682Y-12110286D01*
X11485682Y-12110286D02*
X11476158Y-12119810D01*
X11476158Y-12119810D02*
X11457110Y-12129334D01*
X11457110Y-12129334D02*
X11438062Y-12129334D01*
X11438062Y-12129334D02*
X11419015Y-12119810D01*
X11419015Y-12119810D02*
X11409491Y-12110286D01*
X11409491Y-12110286D02*
X11399967Y-12091238D01*
X11399967Y-12091238D02*
X11390443Y-12053143D01*
X11390443Y-12053143D02*
X11390443Y-12005524D01*
X11390443Y-12005524D02*
X11399967Y-11967429D01*
X11399967Y-11967429D02*
X11409491Y-11948381D01*
X11409491Y-11948381D02*
X11419015Y-11938858D01*
X11419015Y-11938858D02*
X11438062Y-11929334D01*
X11628539Y-11929334D02*
X11647586Y-11929334D01*
X11647586Y-11929334D02*
X11666634Y-11938858D01*
X11666634Y-11938858D02*
X11676158Y-11948381D01*
X11676158Y-11948381D02*
X11685682Y-11967429D01*
X11685682Y-11967429D02*
X11695205Y-12005524D01*
X11695205Y-12005524D02*
X11695205Y-12053143D01*
X11695205Y-12053143D02*
X11685682Y-12091238D01*
X11685682Y-12091238D02*
X11676158Y-12110286D01*
X11676158Y-12110286D02*
X11666634Y-12119810D01*
X11666634Y-12119810D02*
X11647586Y-12129334D01*
X11647586Y-12129334D02*
X11628539Y-12129334D01*
X11628539Y-12129334D02*
X11609491Y-12119810D01*
X11609491Y-12119810D02*
X11599967Y-12110286D01*
X11599967Y-12110286D02*
X11590443Y-12091238D01*
X11590443Y-12091238D02*
X11580920Y-12053143D01*
X11580920Y-12053143D02*
X11580920Y-12005524D01*
X11580920Y-12005524D02*
X11590443Y-11967429D01*
X11590443Y-11967429D02*
X11599967Y-11948381D01*
X11599967Y-11948381D02*
X11609491Y-11938858D01*
X11609491Y-11938858D02*
X11628539Y-11929334D01*
X11780920Y-12129334D02*
X11780920Y-11996000D01*
X11780920Y-12015048D02*
X11790443Y-12005524D01*
X11790443Y-12005524D02*
X11809491Y-11996000D01*
X11809491Y-11996000D02*
X11838063Y-11996000D01*
X11838063Y-11996000D02*
X11857110Y-12005524D01*
X11857110Y-12005524D02*
X11866634Y-12024572D01*
X11866634Y-12024572D02*
X11866634Y-12129334D01*
X11866634Y-12024572D02*
X11876158Y-12005524D01*
X11876158Y-12005524D02*
X11895205Y-11996000D01*
X11895205Y-11996000D02*
X11923777Y-11996000D01*
X11923777Y-11996000D02*
X11942824Y-12005524D01*
X11942824Y-12005524D02*
X11952348Y-12024572D01*
X11952348Y-12024572D02*
X11952348Y-12129334D01*
X12047586Y-12129334D02*
X12047586Y-11996000D01*
X12047586Y-12015048D02*
X12057110Y-12005524D01*
X12057110Y-12005524D02*
X12076158Y-11996000D01*
X12076158Y-11996000D02*
X12104729Y-11996000D01*
X12104729Y-11996000D02*
X12123777Y-12005524D01*
X12123777Y-12005524D02*
X12133301Y-12024572D01*
X12133301Y-12024572D02*
X12133301Y-12129334D01*
X12133301Y-12024572D02*
X12142824Y-12005524D01*
X12142824Y-12005524D02*
X12161872Y-11996000D01*
X12161872Y-11996000D02*
X12190443Y-11996000D01*
X12190443Y-11996000D02*
X12209491Y-12005524D01*
X12209491Y-12005524D02*
X12219015Y-12024572D01*
X12219015Y-12024572D02*
X12219015Y-12129334D01*
X12609491Y-11919810D02*
X12438063Y-12176953D01*
X12866634Y-11929334D02*
X12885682Y-11929334D01*
X12885682Y-11929334D02*
X12904729Y-11938858D01*
X12904729Y-11938858D02*
X12914253Y-11948381D01*
X12914253Y-11948381D02*
X12923777Y-11967429D01*
X12923777Y-11967429D02*
X12933301Y-12005524D01*
X12933301Y-12005524D02*
X12933301Y-12053143D01*
X12933301Y-12053143D02*
X12923777Y-12091238D01*
X12923777Y-12091238D02*
X12914253Y-12110286D01*
X12914253Y-12110286D02*
X12904729Y-12119810D01*
X12904729Y-12119810D02*
X12885682Y-12129334D01*
X12885682Y-12129334D02*
X12866634Y-12129334D01*
X12866634Y-12129334D02*
X12847586Y-12119810D01*
X12847586Y-12119810D02*
X12838063Y-12110286D01*
X12838063Y-12110286D02*
X12828539Y-12091238D01*
X12828539Y-12091238D02*
X12819015Y-12053143D01*
X12819015Y-12053143D02*
X12819015Y-12005524D01*
X12819015Y-12005524D02*
X12828539Y-11967429D01*
X12828539Y-11967429D02*
X12838063Y-11948381D01*
X12838063Y-11948381D02*
X12847586Y-11938858D01*
X12847586Y-11938858D02*
X12866634Y-11929334D01*
X13019015Y-12110286D02*
X13028539Y-12119810D01*
X13028539Y-12119810D02*
X13019015Y-12129334D01*
X13019015Y-12129334D02*
X13009491Y-12119810D01*
X13009491Y-12119810D02*
X13019015Y-12110286D01*
X13019015Y-12110286D02*
X13019015Y-12129334D01*
X13152348Y-11929334D02*
X13171396Y-11929334D01*
X13171396Y-11929334D02*
X13190444Y-11938858D01*
X13190444Y-11938858D02*
X13199967Y-11948381D01*
X13199967Y-11948381D02*
X13209491Y-11967429D01*
X13209491Y-11967429D02*
X13219015Y-12005524D01*
X13219015Y-12005524D02*
X13219015Y-12053143D01*
X13219015Y-12053143D02*
X13209491Y-12091238D01*
X13209491Y-12091238D02*
X13199967Y-12110286D01*
X13199967Y-12110286D02*
X13190444Y-12119810D01*
X13190444Y-12119810D02*
X13171396Y-12129334D01*
X13171396Y-12129334D02*
X13152348Y-12129334D01*
X13152348Y-12129334D02*
X13133301Y-12119810D01*
X13133301Y-12119810D02*
X13123777Y-12110286D01*
X13123777Y-12110286D02*
X13114253Y-12091238D01*
X13114253Y-12091238D02*
X13104729Y-12053143D01*
X13104729Y-12053143D02*
X13104729Y-12005524D01*
X13104729Y-12005524D02*
X13114253Y-11967429D01*
X13114253Y-11967429D02*
X13123777Y-11948381D01*
X13123777Y-11948381D02*
X13133301Y-11938858D01*
X13133301Y-11938858D02*
X13152348Y-11929334D01*
X13285682Y-11929334D02*
X13409491Y-11929334D01*
X13409491Y-11929334D02*
X13342825Y-12005524D01*
X13342825Y-12005524D02*
X13371396Y-12005524D01*
X13371396Y-12005524D02*
X13390444Y-12015048D01*
X13390444Y-12015048D02*
X13399967Y-12024572D01*
X13399967Y-12024572D02*
X13409491Y-12043619D01*
X13409491Y-12043619D02*
X13409491Y-12091238D01*
X13409491Y-12091238D02*
X13399967Y-12110286D01*
X13399967Y-12110286D02*
X13390444Y-12119810D01*
X13390444Y-12119810D02*
X13371396Y-12129334D01*
X13371396Y-12129334D02*
X13314253Y-12129334D01*
X13314253Y-12129334D02*
X13295206Y-12119810D01*
X13295206Y-12119810D02*
X13285682Y-12110286D01*
X13504729Y-12129334D02*
X13542825Y-12129334D01*
X13542825Y-12129334D02*
X13561872Y-12119810D01*
X13561872Y-12119810D02*
X13571396Y-12110286D01*
X13571396Y-12110286D02*
X13590444Y-12081715D01*
X13590444Y-12081715D02*
X13599967Y-12043619D01*
X13599967Y-12043619D02*
X13599967Y-11967429D01*
X13599967Y-11967429D02*
X13590444Y-11948381D01*
X13590444Y-11948381D02*
X13580920Y-11938858D01*
X13580920Y-11938858D02*
X13561872Y-11929334D01*
X13561872Y-11929334D02*
X13523777Y-11929334D01*
X13523777Y-11929334D02*
X13504729Y-11938858D01*
X13504729Y-11938858D02*
X13495206Y-11948381D01*
X13495206Y-11948381D02*
X13485682Y-11967429D01*
X13485682Y-11967429D02*
X13485682Y-12015048D01*
X13485682Y-12015048D02*
X13495206Y-12034096D01*
X13495206Y-12034096D02*
X13504729Y-12043619D01*
X13504729Y-12043619D02*
X13523777Y-12053143D01*
X13523777Y-12053143D02*
X13561872Y-12053143D01*
X13561872Y-12053143D02*
X13580920Y-12043619D01*
X13580920Y-12043619D02*
X13590444Y-12034096D01*
X13590444Y-12034096D02*
X13599967Y-12015048D01*
X13771396Y-11996000D02*
X13771396Y-12129334D01*
X13723777Y-11919810D02*
X13676158Y-12062667D01*
X13676158Y-12062667D02*
X13799967Y-12062667D01*
X13866634Y-11929334D02*
X13866634Y-11967429D01*
X13942825Y-11929334D02*
X13942825Y-11967429D01*
X14238063Y-12205524D02*
X14228539Y-12196000D01*
X14228539Y-12196000D02*
X14209491Y-12167429D01*
X14209491Y-12167429D02*
X14199968Y-12148381D01*
X14199968Y-12148381D02*
X14190444Y-12119810D01*
X14190444Y-12119810D02*
X14180920Y-12072191D01*
X14180920Y-12072191D02*
X14180920Y-12034096D01*
X14180920Y-12034096D02*
X14190444Y-11986477D01*
X14190444Y-11986477D02*
X14199968Y-11957905D01*
X14199968Y-11957905D02*
X14209491Y-11938858D01*
X14209491Y-11938858D02*
X14228539Y-11910286D01*
X14228539Y-11910286D02*
X14238063Y-11900762D01*
X14419015Y-12129334D02*
X14304729Y-12129334D01*
X14361872Y-12129334D02*
X14361872Y-11929334D01*
X14361872Y-11929334D02*
X14342825Y-11957905D01*
X14342825Y-11957905D02*
X14323777Y-11976953D01*
X14323777Y-11976953D02*
X14304729Y-11986477D01*
X14590444Y-11929334D02*
X14552348Y-11929334D01*
X14552348Y-11929334D02*
X14533301Y-11938858D01*
X14533301Y-11938858D02*
X14523777Y-11948381D01*
X14523777Y-11948381D02*
X14504729Y-11976953D01*
X14504729Y-11976953D02*
X14495206Y-12015048D01*
X14495206Y-12015048D02*
X14495206Y-12091238D01*
X14495206Y-12091238D02*
X14504729Y-12110286D01*
X14504729Y-12110286D02*
X14514253Y-12119810D01*
X14514253Y-12119810D02*
X14533301Y-12129334D01*
X14533301Y-12129334D02*
X14571396Y-12129334D01*
X14571396Y-12129334D02*
X14590444Y-12119810D01*
X14590444Y-12119810D02*
X14599968Y-12110286D01*
X14599968Y-12110286D02*
X14609491Y-12091238D01*
X14609491Y-12091238D02*
X14609491Y-12043619D01*
X14609491Y-12043619D02*
X14599968Y-12024572D01*
X14599968Y-12024572D02*
X14590444Y-12015048D01*
X14590444Y-12015048D02*
X14571396Y-12005524D01*
X14571396Y-12005524D02*
X14533301Y-12005524D01*
X14533301Y-12005524D02*
X14514253Y-12015048D01*
X14514253Y-12015048D02*
X14504729Y-12024572D01*
X14504729Y-12024572D02*
X14495206Y-12043619D01*
X14847587Y-12129334D02*
X14847587Y-11929334D01*
X14933301Y-12129334D02*
X14933301Y-12024572D01*
X14933301Y-12024572D02*
X14923777Y-12005524D01*
X14923777Y-12005524D02*
X14904730Y-11996000D01*
X14904730Y-11996000D02*
X14876158Y-11996000D01*
X14876158Y-11996000D02*
X14857110Y-12005524D01*
X14857110Y-12005524D02*
X14847587Y-12015048D01*
X15057110Y-12129334D02*
X15038063Y-12119810D01*
X15038063Y-12119810D02*
X15028539Y-12110286D01*
X15028539Y-12110286D02*
X15019015Y-12091238D01*
X15019015Y-12091238D02*
X15019015Y-12034096D01*
X15019015Y-12034096D02*
X15028539Y-12015048D01*
X15028539Y-12015048D02*
X15038063Y-12005524D01*
X15038063Y-12005524D02*
X15057110Y-11996000D01*
X15057110Y-11996000D02*
X15085682Y-11996000D01*
X15085682Y-11996000D02*
X15104730Y-12005524D01*
X15104730Y-12005524D02*
X15114253Y-12015048D01*
X15114253Y-12015048D02*
X15123777Y-12034096D01*
X15123777Y-12034096D02*
X15123777Y-12091238D01*
X15123777Y-12091238D02*
X15114253Y-12110286D01*
X15114253Y-12110286D02*
X15104730Y-12119810D01*
X15104730Y-12119810D02*
X15085682Y-12129334D01*
X15085682Y-12129334D02*
X15057110Y-12129334D01*
X15238063Y-12129334D02*
X15219015Y-12119810D01*
X15219015Y-12119810D02*
X15209491Y-12100762D01*
X15209491Y-12100762D02*
X15209491Y-11929334D01*
X15390444Y-12119810D02*
X15371396Y-12129334D01*
X15371396Y-12129334D02*
X15333301Y-12129334D01*
X15333301Y-12129334D02*
X15314253Y-12119810D01*
X15314253Y-12119810D02*
X15304730Y-12100762D01*
X15304730Y-12100762D02*
X15304730Y-12024572D01*
X15304730Y-12024572D02*
X15314253Y-12005524D01*
X15314253Y-12005524D02*
X15333301Y-11996000D01*
X15333301Y-11996000D02*
X15371396Y-11996000D01*
X15371396Y-11996000D02*
X15390444Y-12005524D01*
X15390444Y-12005524D02*
X15399968Y-12024572D01*
X15399968Y-12024572D02*
X15399968Y-12043619D01*
X15399968Y-12043619D02*
X15304730Y-12062667D01*
X15476158Y-12119810D02*
X15495206Y-12129334D01*
X15495206Y-12129334D02*
X15533301Y-12129334D01*
X15533301Y-12129334D02*
X15552349Y-12119810D01*
X15552349Y-12119810D02*
X15561872Y-12100762D01*
X15561872Y-12100762D02*
X15561872Y-12091238D01*
X15561872Y-12091238D02*
X15552349Y-12072191D01*
X15552349Y-12072191D02*
X15533301Y-12062667D01*
X15533301Y-12062667D02*
X15504730Y-12062667D01*
X15504730Y-12062667D02*
X15485682Y-12053143D01*
X15485682Y-12053143D02*
X15476158Y-12034096D01*
X15476158Y-12034096D02*
X15476158Y-12024572D01*
X15476158Y-12024572D02*
X15485682Y-12005524D01*
X15485682Y-12005524D02*
X15504730Y-11996000D01*
X15504730Y-11996000D02*
X15533301Y-11996000D01*
X15533301Y-11996000D02*
X15552349Y-12005524D01*
X15628539Y-12205524D02*
X15638063Y-12196000D01*
X15638063Y-12196000D02*
X15657111Y-12167429D01*
X15657111Y-12167429D02*
X15666634Y-12148381D01*
X15666634Y-12148381D02*
X15676158Y-12119810D01*
X15676158Y-12119810D02*
X15685682Y-12072191D01*
X15685682Y-12072191D02*
X15685682Y-12034096D01*
X15685682Y-12034096D02*
X15676158Y-11986477D01*
X15676158Y-11986477D02*
X15666634Y-11957905D01*
X15666634Y-11957905D02*
X15657111Y-11938858D01*
X15657111Y-11938858D02*
X15638063Y-11910286D01*
X15638063Y-11910286D02*
X15628539Y-11900762D01*
X10633711Y-12372561D02*
X10633711Y-12231139D01*
X10492289Y-12231139D01*
X10492289Y-12372561D01*
X10633711Y-12372561D01*
X10914253Y-12212381D02*
X10923777Y-12202858D01*
X10923777Y-12202858D02*
X10942824Y-12193334D01*
X10942824Y-12193334D02*
X10990444Y-12193334D01*
X10990444Y-12193334D02*
X11009491Y-12202858D01*
X11009491Y-12202858D02*
X11019015Y-12212381D01*
X11019015Y-12212381D02*
X11028539Y-12231429D01*
X11028539Y-12231429D02*
X11028539Y-12250477D01*
X11028539Y-12250477D02*
X11019015Y-12279048D01*
X11019015Y-12279048D02*
X10904729Y-12393334D01*
X10904729Y-12393334D02*
X11028539Y-12393334D01*
X11114253Y-12374286D02*
X11123777Y-12383810D01*
X11123777Y-12383810D02*
X11114253Y-12393334D01*
X11114253Y-12393334D02*
X11104729Y-12383810D01*
X11104729Y-12383810D02*
X11114253Y-12374286D01*
X11114253Y-12374286D02*
X11114253Y-12393334D01*
X11190443Y-12193334D02*
X11314253Y-12193334D01*
X11314253Y-12193334D02*
X11247586Y-12269524D01*
X11247586Y-12269524D02*
X11276158Y-12269524D01*
X11276158Y-12269524D02*
X11295205Y-12279048D01*
X11295205Y-12279048D02*
X11304729Y-12288572D01*
X11304729Y-12288572D02*
X11314253Y-12307619D01*
X11314253Y-12307619D02*
X11314253Y-12355238D01*
X11314253Y-12355238D02*
X11304729Y-12374286D01*
X11304729Y-12374286D02*
X11295205Y-12383810D01*
X11295205Y-12383810D02*
X11276158Y-12393334D01*
X11276158Y-12393334D02*
X11219015Y-12393334D01*
X11219015Y-12393334D02*
X11199967Y-12383810D01*
X11199967Y-12383810D02*
X11190443Y-12374286D01*
X11438062Y-12193334D02*
X11457110Y-12193334D01*
X11457110Y-12193334D02*
X11476158Y-12202858D01*
X11476158Y-12202858D02*
X11485682Y-12212381D01*
X11485682Y-12212381D02*
X11495205Y-12231429D01*
X11495205Y-12231429D02*
X11504729Y-12269524D01*
X11504729Y-12269524D02*
X11504729Y-12317143D01*
X11504729Y-12317143D02*
X11495205Y-12355238D01*
X11495205Y-12355238D02*
X11485682Y-12374286D01*
X11485682Y-12374286D02*
X11476158Y-12383810D01*
X11476158Y-12383810D02*
X11457110Y-12393334D01*
X11457110Y-12393334D02*
X11438062Y-12393334D01*
X11438062Y-12393334D02*
X11419015Y-12383810D01*
X11419015Y-12383810D02*
X11409491Y-12374286D01*
X11409491Y-12374286D02*
X11399967Y-12355238D01*
X11399967Y-12355238D02*
X11390443Y-12317143D01*
X11390443Y-12317143D02*
X11390443Y-12269524D01*
X11390443Y-12269524D02*
X11399967Y-12231429D01*
X11399967Y-12231429D02*
X11409491Y-12212381D01*
X11409491Y-12212381D02*
X11419015Y-12202858D01*
X11419015Y-12202858D02*
X11438062Y-12193334D01*
X11628539Y-12193334D02*
X11647586Y-12193334D01*
X11647586Y-12193334D02*
X11666634Y-12202858D01*
X11666634Y-12202858D02*
X11676158Y-12212381D01*
X11676158Y-12212381D02*
X11685682Y-12231429D01*
X11685682Y-12231429D02*
X11695205Y-12269524D01*
X11695205Y-12269524D02*
X11695205Y-12317143D01*
X11695205Y-12317143D02*
X11685682Y-12355238D01*
X11685682Y-12355238D02*
X11676158Y-12374286D01*
X11676158Y-12374286D02*
X11666634Y-12383810D01*
X11666634Y-12383810D02*
X11647586Y-12393334D01*
X11647586Y-12393334D02*
X11628539Y-12393334D01*
X11628539Y-12393334D02*
X11609491Y-12383810D01*
X11609491Y-12383810D02*
X11599967Y-12374286D01*
X11599967Y-12374286D02*
X11590443Y-12355238D01*
X11590443Y-12355238D02*
X11580920Y-12317143D01*
X11580920Y-12317143D02*
X11580920Y-12269524D01*
X11580920Y-12269524D02*
X11590443Y-12231429D01*
X11590443Y-12231429D02*
X11599967Y-12212381D01*
X11599967Y-12212381D02*
X11609491Y-12202858D01*
X11609491Y-12202858D02*
X11628539Y-12193334D01*
X11780920Y-12393334D02*
X11780920Y-12260000D01*
X11780920Y-12279048D02*
X11790443Y-12269524D01*
X11790443Y-12269524D02*
X11809491Y-12260000D01*
X11809491Y-12260000D02*
X11838063Y-12260000D01*
X11838063Y-12260000D02*
X11857110Y-12269524D01*
X11857110Y-12269524D02*
X11866634Y-12288572D01*
X11866634Y-12288572D02*
X11866634Y-12393334D01*
X11866634Y-12288572D02*
X11876158Y-12269524D01*
X11876158Y-12269524D02*
X11895205Y-12260000D01*
X11895205Y-12260000D02*
X11923777Y-12260000D01*
X11923777Y-12260000D02*
X11942824Y-12269524D01*
X11942824Y-12269524D02*
X11952348Y-12288572D01*
X11952348Y-12288572D02*
X11952348Y-12393334D01*
X12047586Y-12393334D02*
X12047586Y-12260000D01*
X12047586Y-12279048D02*
X12057110Y-12269524D01*
X12057110Y-12269524D02*
X12076158Y-12260000D01*
X12076158Y-12260000D02*
X12104729Y-12260000D01*
X12104729Y-12260000D02*
X12123777Y-12269524D01*
X12123777Y-12269524D02*
X12133301Y-12288572D01*
X12133301Y-12288572D02*
X12133301Y-12393334D01*
X12133301Y-12288572D02*
X12142824Y-12269524D01*
X12142824Y-12269524D02*
X12161872Y-12260000D01*
X12161872Y-12260000D02*
X12190443Y-12260000D01*
X12190443Y-12260000D02*
X12209491Y-12269524D01*
X12209491Y-12269524D02*
X12219015Y-12288572D01*
X12219015Y-12288572D02*
X12219015Y-12393334D01*
X12609491Y-12183810D02*
X12438063Y-12440953D01*
X12866634Y-12193334D02*
X12885682Y-12193334D01*
X12885682Y-12193334D02*
X12904729Y-12202858D01*
X12904729Y-12202858D02*
X12914253Y-12212381D01*
X12914253Y-12212381D02*
X12923777Y-12231429D01*
X12923777Y-12231429D02*
X12933301Y-12269524D01*
X12933301Y-12269524D02*
X12933301Y-12317143D01*
X12933301Y-12317143D02*
X12923777Y-12355238D01*
X12923777Y-12355238D02*
X12914253Y-12374286D01*
X12914253Y-12374286D02*
X12904729Y-12383810D01*
X12904729Y-12383810D02*
X12885682Y-12393334D01*
X12885682Y-12393334D02*
X12866634Y-12393334D01*
X12866634Y-12393334D02*
X12847586Y-12383810D01*
X12847586Y-12383810D02*
X12838063Y-12374286D01*
X12838063Y-12374286D02*
X12828539Y-12355238D01*
X12828539Y-12355238D02*
X12819015Y-12317143D01*
X12819015Y-12317143D02*
X12819015Y-12269524D01*
X12819015Y-12269524D02*
X12828539Y-12231429D01*
X12828539Y-12231429D02*
X12838063Y-12212381D01*
X12838063Y-12212381D02*
X12847586Y-12202858D01*
X12847586Y-12202858D02*
X12866634Y-12193334D01*
X13019015Y-12374286D02*
X13028539Y-12383810D01*
X13028539Y-12383810D02*
X13019015Y-12393334D01*
X13019015Y-12393334D02*
X13009491Y-12383810D01*
X13009491Y-12383810D02*
X13019015Y-12374286D01*
X13019015Y-12374286D02*
X13019015Y-12393334D01*
X13152348Y-12193334D02*
X13171396Y-12193334D01*
X13171396Y-12193334D02*
X13190444Y-12202858D01*
X13190444Y-12202858D02*
X13199967Y-12212381D01*
X13199967Y-12212381D02*
X13209491Y-12231429D01*
X13209491Y-12231429D02*
X13219015Y-12269524D01*
X13219015Y-12269524D02*
X13219015Y-12317143D01*
X13219015Y-12317143D02*
X13209491Y-12355238D01*
X13209491Y-12355238D02*
X13199967Y-12374286D01*
X13199967Y-12374286D02*
X13190444Y-12383810D01*
X13190444Y-12383810D02*
X13171396Y-12393334D01*
X13171396Y-12393334D02*
X13152348Y-12393334D01*
X13152348Y-12393334D02*
X13133301Y-12383810D01*
X13133301Y-12383810D02*
X13123777Y-12374286D01*
X13123777Y-12374286D02*
X13114253Y-12355238D01*
X13114253Y-12355238D02*
X13104729Y-12317143D01*
X13104729Y-12317143D02*
X13104729Y-12269524D01*
X13104729Y-12269524D02*
X13114253Y-12231429D01*
X13114253Y-12231429D02*
X13123777Y-12212381D01*
X13123777Y-12212381D02*
X13133301Y-12202858D01*
X13133301Y-12202858D02*
X13152348Y-12193334D01*
X13314253Y-12393334D02*
X13352348Y-12393334D01*
X13352348Y-12393334D02*
X13371396Y-12383810D01*
X13371396Y-12383810D02*
X13380920Y-12374286D01*
X13380920Y-12374286D02*
X13399967Y-12345715D01*
X13399967Y-12345715D02*
X13409491Y-12307619D01*
X13409491Y-12307619D02*
X13409491Y-12231429D01*
X13409491Y-12231429D02*
X13399967Y-12212381D01*
X13399967Y-12212381D02*
X13390444Y-12202858D01*
X13390444Y-12202858D02*
X13371396Y-12193334D01*
X13371396Y-12193334D02*
X13333301Y-12193334D01*
X13333301Y-12193334D02*
X13314253Y-12202858D01*
X13314253Y-12202858D02*
X13304729Y-12212381D01*
X13304729Y-12212381D02*
X13295206Y-12231429D01*
X13295206Y-12231429D02*
X13295206Y-12279048D01*
X13295206Y-12279048D02*
X13304729Y-12298096D01*
X13304729Y-12298096D02*
X13314253Y-12307619D01*
X13314253Y-12307619D02*
X13333301Y-12317143D01*
X13333301Y-12317143D02*
X13371396Y-12317143D01*
X13371396Y-12317143D02*
X13390444Y-12307619D01*
X13390444Y-12307619D02*
X13399967Y-12298096D01*
X13399967Y-12298096D02*
X13409491Y-12279048D01*
X13533301Y-12193334D02*
X13552348Y-12193334D01*
X13552348Y-12193334D02*
X13571396Y-12202858D01*
X13571396Y-12202858D02*
X13580920Y-12212381D01*
X13580920Y-12212381D02*
X13590444Y-12231429D01*
X13590444Y-12231429D02*
X13599967Y-12269524D01*
X13599967Y-12269524D02*
X13599967Y-12317143D01*
X13599967Y-12317143D02*
X13590444Y-12355238D01*
X13590444Y-12355238D02*
X13580920Y-12374286D01*
X13580920Y-12374286D02*
X13571396Y-12383810D01*
X13571396Y-12383810D02*
X13552348Y-12393334D01*
X13552348Y-12393334D02*
X13533301Y-12393334D01*
X13533301Y-12393334D02*
X13514253Y-12383810D01*
X13514253Y-12383810D02*
X13504729Y-12374286D01*
X13504729Y-12374286D02*
X13495206Y-12355238D01*
X13495206Y-12355238D02*
X13485682Y-12317143D01*
X13485682Y-12317143D02*
X13485682Y-12269524D01*
X13485682Y-12269524D02*
X13495206Y-12231429D01*
X13495206Y-12231429D02*
X13504729Y-12212381D01*
X13504729Y-12212381D02*
X13514253Y-12202858D01*
X13514253Y-12202858D02*
X13533301Y-12193334D01*
X13771396Y-12193334D02*
X13733301Y-12193334D01*
X13733301Y-12193334D02*
X13714253Y-12202858D01*
X13714253Y-12202858D02*
X13704729Y-12212381D01*
X13704729Y-12212381D02*
X13685682Y-12240953D01*
X13685682Y-12240953D02*
X13676158Y-12279048D01*
X13676158Y-12279048D02*
X13676158Y-12355238D01*
X13676158Y-12355238D02*
X13685682Y-12374286D01*
X13685682Y-12374286D02*
X13695206Y-12383810D01*
X13695206Y-12383810D02*
X13714253Y-12393334D01*
X13714253Y-12393334D02*
X13752348Y-12393334D01*
X13752348Y-12393334D02*
X13771396Y-12383810D01*
X13771396Y-12383810D02*
X13780920Y-12374286D01*
X13780920Y-12374286D02*
X13790444Y-12355238D01*
X13790444Y-12355238D02*
X13790444Y-12307619D01*
X13790444Y-12307619D02*
X13780920Y-12288572D01*
X13780920Y-12288572D02*
X13771396Y-12279048D01*
X13771396Y-12279048D02*
X13752348Y-12269524D01*
X13752348Y-12269524D02*
X13714253Y-12269524D01*
X13714253Y-12269524D02*
X13695206Y-12279048D01*
X13695206Y-12279048D02*
X13685682Y-12288572D01*
X13685682Y-12288572D02*
X13676158Y-12307619D01*
X13866634Y-12193334D02*
X13866634Y-12231429D01*
X13942825Y-12193334D02*
X13942825Y-12231429D01*
X14238063Y-12469524D02*
X14228539Y-12460000D01*
X14228539Y-12460000D02*
X14209491Y-12431429D01*
X14209491Y-12431429D02*
X14199968Y-12412381D01*
X14199968Y-12412381D02*
X14190444Y-12383810D01*
X14190444Y-12383810D02*
X14180920Y-12336191D01*
X14180920Y-12336191D02*
X14180920Y-12298096D01*
X14180920Y-12298096D02*
X14190444Y-12250477D01*
X14190444Y-12250477D02*
X14199968Y-12221905D01*
X14199968Y-12221905D02*
X14209491Y-12202858D01*
X14209491Y-12202858D02*
X14228539Y-12174286D01*
X14228539Y-12174286D02*
X14238063Y-12164762D01*
X14304729Y-12212381D02*
X14314253Y-12202858D01*
X14314253Y-12202858D02*
X14333301Y-12193334D01*
X14333301Y-12193334D02*
X14380920Y-12193334D01*
X14380920Y-12193334D02*
X14399968Y-12202858D01*
X14399968Y-12202858D02*
X14409491Y-12212381D01*
X14409491Y-12212381D02*
X14419015Y-12231429D01*
X14419015Y-12231429D02*
X14419015Y-12250477D01*
X14419015Y-12250477D02*
X14409491Y-12279048D01*
X14409491Y-12279048D02*
X14295206Y-12393334D01*
X14295206Y-12393334D02*
X14419015Y-12393334D01*
X14657110Y-12393334D02*
X14657110Y-12193334D01*
X14742825Y-12393334D02*
X14742825Y-12288572D01*
X14742825Y-12288572D02*
X14733301Y-12269524D01*
X14733301Y-12269524D02*
X14714253Y-12260000D01*
X14714253Y-12260000D02*
X14685682Y-12260000D01*
X14685682Y-12260000D02*
X14666634Y-12269524D01*
X14666634Y-12269524D02*
X14657110Y-12279048D01*
X14866634Y-12393334D02*
X14847587Y-12383810D01*
X14847587Y-12383810D02*
X14838063Y-12374286D01*
X14838063Y-12374286D02*
X14828539Y-12355238D01*
X14828539Y-12355238D02*
X14828539Y-12298096D01*
X14828539Y-12298096D02*
X14838063Y-12279048D01*
X14838063Y-12279048D02*
X14847587Y-12269524D01*
X14847587Y-12269524D02*
X14866634Y-12260000D01*
X14866634Y-12260000D02*
X14895206Y-12260000D01*
X14895206Y-12260000D02*
X14914253Y-12269524D01*
X14914253Y-12269524D02*
X14923777Y-12279048D01*
X14923777Y-12279048D02*
X14933301Y-12298096D01*
X14933301Y-12298096D02*
X14933301Y-12355238D01*
X14933301Y-12355238D02*
X14923777Y-12374286D01*
X14923777Y-12374286D02*
X14914253Y-12383810D01*
X14914253Y-12383810D02*
X14895206Y-12393334D01*
X14895206Y-12393334D02*
X14866634Y-12393334D01*
X15047587Y-12393334D02*
X15028539Y-12383810D01*
X15028539Y-12383810D02*
X15019015Y-12364762D01*
X15019015Y-12364762D02*
X15019015Y-12193334D01*
X15199968Y-12383810D02*
X15180920Y-12393334D01*
X15180920Y-12393334D02*
X15142825Y-12393334D01*
X15142825Y-12393334D02*
X15123777Y-12383810D01*
X15123777Y-12383810D02*
X15114253Y-12364762D01*
X15114253Y-12364762D02*
X15114253Y-12288572D01*
X15114253Y-12288572D02*
X15123777Y-12269524D01*
X15123777Y-12269524D02*
X15142825Y-12260000D01*
X15142825Y-12260000D02*
X15180920Y-12260000D01*
X15180920Y-12260000D02*
X15199968Y-12269524D01*
X15199968Y-12269524D02*
X15209491Y-12288572D01*
X15209491Y-12288572D02*
X15209491Y-12307619D01*
X15209491Y-12307619D02*
X15114253Y-12326667D01*
X15285682Y-12383810D02*
X15304730Y-12393334D01*
X15304730Y-12393334D02*
X15342825Y-12393334D01*
X15342825Y-12393334D02*
X15361872Y-12383810D01*
X15361872Y-12383810D02*
X15371396Y-12364762D01*
X15371396Y-12364762D02*
X15371396Y-12355238D01*
X15371396Y-12355238D02*
X15361872Y-12336191D01*
X15361872Y-12336191D02*
X15342825Y-12326667D01*
X15342825Y-12326667D02*
X15314253Y-12326667D01*
X15314253Y-12326667D02*
X15295206Y-12317143D01*
X15295206Y-12317143D02*
X15285682Y-12298096D01*
X15285682Y-12298096D02*
X15285682Y-12288572D01*
X15285682Y-12288572D02*
X15295206Y-12269524D01*
X15295206Y-12269524D02*
X15314253Y-12260000D01*
X15314253Y-12260000D02*
X15342825Y-12260000D01*
X15342825Y-12260000D02*
X15361872Y-12269524D01*
X15438063Y-12469524D02*
X15447587Y-12460000D01*
X15447587Y-12460000D02*
X15466634Y-12431429D01*
X15466634Y-12431429D02*
X15476158Y-12412381D01*
X15476158Y-12412381D02*
X15485682Y-12383810D01*
X15485682Y-12383810D02*
X15495206Y-12336191D01*
X15495206Y-12336191D02*
X15495206Y-12298096D01*
X15495206Y-12298096D02*
X15485682Y-12250477D01*
X15485682Y-12250477D02*
X15476158Y-12221905D01*
X15476158Y-12221905D02*
X15466634Y-12202858D01*
X15466634Y-12202858D02*
X15447587Y-12174286D01*
X15447587Y-12174286D02*
X15438063Y-12164762D01*
M02*
