G04 #@! TF.GenerationSoftware,KiCad,Pcbnew,7.0.9-7.0.9~ubuntu20.04.1*
G04 #@! TF.CreationDate,2023-12-02T17:13:26+01:00*
G04 #@! TF.ProjectId,kicad-pmod_usb,6b696361-642d-4706-9d6f-645f7573622e,1.0*
G04 #@! TF.SameCoordinates,Original*
G04 #@! TF.FileFunction,Copper,L2,Bot*
G04 #@! TF.FilePolarity,Positive*
%FSLAX46Y46*%
G04 Gerber Fmt 4.6, Leading zero omitted, Abs format (unit mm)*
G04 Created by KiCad (PCBNEW 7.0.9-7.0.9~ubuntu20.04.1) date 2023-12-02 17:13:26*
%MOMM*%
%LPD*%
G01*
G04 APERTURE LIST*
G04 Aperture macros list*
%AMRoundRect*
0 Rectangle with rounded corners*
0 $1 Rounding radius*
0 $2 $3 $4 $5 $6 $7 $8 $9 X,Y pos of 4 corners*
0 Add a 4 corners polygon primitive as box body*
4,1,4,$2,$3,$4,$5,$6,$7,$8,$9,$2,$3,0*
0 Add four circle primitives for the rounded corners*
1,1,$1+$1,$2,$3*
1,1,$1+$1,$4,$5*
1,1,$1+$1,$6,$7*
1,1,$1+$1,$8,$9*
0 Add four rect primitives between the rounded corners*
20,1,$1+$1,$2,$3,$4,$5,0*
20,1,$1+$1,$4,$5,$6,$7,0*
20,1,$1+$1,$6,$7,$8,$9,0*
20,1,$1+$1,$8,$9,$2,$3,0*%
G04 Aperture macros list end*
G04 #@! TA.AperFunction,ComponentPad*
%ADD10R,1.700000X1.700000*%
G04 #@! TD*
G04 #@! TA.AperFunction,ComponentPad*
%ADD11O,1.700000X1.700000*%
G04 #@! TD*
G04 #@! TA.AperFunction,ComponentPad*
%ADD12R,1.600000X1.600000*%
G04 #@! TD*
G04 #@! TA.AperFunction,ComponentPad*
%ADD13C,1.600000*%
G04 #@! TD*
G04 #@! TA.AperFunction,ComponentPad*
%ADD14C,4.000000*%
G04 #@! TD*
G04 #@! TA.AperFunction,SMDPad,CuDef*
%ADD15RoundRect,0.150000X-0.150000X0.512500X-0.150000X-0.512500X0.150000X-0.512500X0.150000X0.512500X0*%
G04 #@! TD*
G04 #@! TA.AperFunction,ViaPad*
%ADD16C,0.800000*%
G04 #@! TD*
G04 #@! TA.AperFunction,Conductor*
%ADD17C,0.200000*%
G04 #@! TD*
G04 #@! TA.AperFunction,Conductor*
%ADD18C,0.500000*%
G04 #@! TD*
G04 #@! TA.AperFunction,Conductor*
%ADD19C,0.250000*%
G04 #@! TD*
G04 APERTURE END LIST*
D10*
X123190000Y-65976500D03*
D11*
X123190000Y-63436500D03*
X120650000Y-65976500D03*
X120650000Y-63436500D03*
X118110000Y-65976500D03*
X118110000Y-63436500D03*
X115570000Y-65976500D03*
X115570000Y-63436500D03*
X113030000Y-65976500D03*
X113030000Y-63436500D03*
X110490000Y-65976500D03*
X110490000Y-63436500D03*
D12*
X118110000Y-93154500D03*
D13*
X115610000Y-93154500D03*
X115610000Y-95154500D03*
X118110000Y-95154500D03*
D14*
X122860000Y-98014500D03*
X110860000Y-98014500D03*
D10*
X119634000Y-80708500D03*
D11*
X119634000Y-78168500D03*
X119634000Y-75628500D03*
X119634000Y-73088500D03*
D15*
X114620000Y-86492500D03*
X115570000Y-86492500D03*
X116520000Y-86492500D03*
X116520000Y-88767500D03*
X115570000Y-88767500D03*
X114620000Y-88767500D03*
D16*
X114046000Y-68770500D03*
X114300000Y-72072500D03*
X115570000Y-89852500D03*
D17*
X116520000Y-86492500D02*
X116520000Y-85722500D01*
X116520000Y-85722500D02*
X115795000Y-84997500D01*
X115795000Y-84997500D02*
X115795000Y-72165700D01*
X117065000Y-70895700D02*
X117065000Y-67021500D01*
X115795000Y-72165700D02*
X117065000Y-70895700D01*
X117065000Y-67021500D02*
X118110000Y-65976500D01*
X114620000Y-86492500D02*
X114620000Y-85722500D01*
X114620000Y-85722500D02*
X115345000Y-84997500D01*
X115345000Y-84997500D02*
X115345000Y-71979300D01*
X115345000Y-71979300D02*
X116615000Y-70709300D01*
X116615000Y-70709300D02*
X116615000Y-67021500D01*
X116615000Y-67021500D02*
X115570000Y-65976500D01*
D18*
X110490000Y-65976500D02*
X110490000Y-63436500D01*
D17*
X114835000Y-94379500D02*
X115610000Y-95154500D01*
X114455000Y-94379500D02*
X114835000Y-94379500D01*
X113669000Y-93593500D02*
X114455000Y-94379500D01*
X113669000Y-92502500D02*
X113669000Y-93593500D01*
X115345000Y-90826100D02*
X113669000Y-92502500D01*
X115345000Y-90552500D02*
X115345000Y-90826100D01*
X115280000Y-90552500D02*
X115345000Y-90552500D01*
X114870000Y-90142400D02*
X115280000Y-90552500D01*
X114870000Y-90011300D02*
X114870000Y-90142400D01*
X114620000Y-89761300D02*
X114870000Y-90011300D01*
X114620000Y-88767500D02*
X114620000Y-89761300D01*
X114835000Y-93929500D02*
X115610000Y-93154500D01*
X114641000Y-93929500D02*
X114835000Y-93929500D01*
X114119000Y-93407100D02*
X114641000Y-93929500D01*
X114119000Y-92688900D02*
X114119000Y-93407100D01*
X115795000Y-91012500D02*
X114119000Y-92688900D01*
X115795000Y-90552500D02*
X115795000Y-91012500D01*
X115860000Y-90552500D02*
X115795000Y-90552500D01*
X116270000Y-90142400D02*
X115860000Y-90552500D01*
X116270000Y-90011300D02*
X116270000Y-90142400D01*
X116520000Y-89761300D02*
X116270000Y-90011300D01*
X116520000Y-88767500D02*
X116520000Y-89761300D01*
D19*
X116745300Y-63803900D02*
X116745300Y-63436500D01*
X117553200Y-64611800D02*
X116745300Y-63803900D01*
X118446300Y-64611800D02*
X117553200Y-64611800D01*
X119285400Y-65450900D02*
X118446300Y-64611800D01*
X119285400Y-71624900D02*
X119285400Y-65450900D01*
X118422400Y-72487900D02*
X119285400Y-71624900D01*
X118422400Y-76148900D02*
X118422400Y-72487900D01*
X119266700Y-76993200D02*
X118422400Y-76148900D01*
X119634000Y-76993200D02*
X119266700Y-76993200D01*
X119634000Y-78168500D02*
X119634000Y-76993200D01*
X115570000Y-63436500D02*
X116745300Y-63436500D01*
X119285300Y-63069100D02*
X119285300Y-63436500D01*
X120093200Y-62261200D02*
X119285300Y-63069100D01*
X121165500Y-62261200D02*
X120093200Y-62261200D01*
X121920000Y-63015700D02*
X121165500Y-62261200D01*
X121920000Y-63914800D02*
X121920000Y-63015700D01*
X122711700Y-64706500D02*
X121920000Y-63914800D01*
X124126500Y-64706500D02*
X122711700Y-64706500D01*
X124365400Y-64945400D02*
X124126500Y-64706500D01*
X124365400Y-70089100D02*
X124365400Y-64945400D01*
X120001300Y-74453200D02*
X124365400Y-70089100D01*
X119634000Y-74453200D02*
X120001300Y-74453200D01*
X119634000Y-75628500D02*
X119634000Y-74453200D01*
X118110000Y-63436500D02*
X119285300Y-63436500D01*
X121017400Y-64611800D02*
X120650000Y-64611800D01*
X121825300Y-65419700D02*
X121017400Y-64611800D01*
X121825300Y-69721900D02*
X121825300Y-65419700D01*
X119634000Y-71913200D02*
X121825300Y-69721900D01*
X119634000Y-73088500D02*
X119634000Y-71913200D01*
X120650000Y-63436500D02*
X120650000Y-64611800D01*
D18*
X113030000Y-86484800D02*
X113030000Y-65976500D01*
X114175200Y-87630000D02*
X113030000Y-86484800D01*
X115002800Y-87630000D02*
X114175200Y-87630000D01*
X115570000Y-87062800D02*
X115002800Y-87630000D01*
X115570000Y-86492500D02*
X115570000Y-87062800D01*
X115250000Y-98014500D02*
X110860000Y-98014500D01*
X118110000Y-95154500D02*
X115250000Y-98014500D01*
X115570000Y-89852500D02*
X115570000Y-88767500D01*
G04 #@! TA.AperFunction,Conductor*
G36*
X112570507Y-63646344D02*
G01*
X112648239Y-63767298D01*
X112756900Y-63861452D01*
X112887685Y-63921180D01*
X112897466Y-63922586D01*
X112268625Y-64551425D01*
X112345031Y-64604925D01*
X112388655Y-64659502D01*
X112395848Y-64729001D01*
X112364326Y-64791355D01*
X112345029Y-64808076D01*
X112268625Y-64861572D01*
X112897466Y-65490413D01*
X112887685Y-65491820D01*
X112756900Y-65551548D01*
X112648239Y-65645702D01*
X112570507Y-65766656D01*
X112546923Y-65846976D01*
X111915073Y-65215126D01*
X111861881Y-65291094D01*
X111807304Y-65334719D01*
X111737806Y-65341913D01*
X111675451Y-65310391D01*
X111658730Y-65291094D01*
X111528494Y-65105097D01*
X111361404Y-64938007D01*
X111293375Y-64890372D01*
X111249751Y-64835794D01*
X111240500Y-64788798D01*
X111240500Y-64624200D01*
X111260185Y-64557161D01*
X111293375Y-64522626D01*
X111361401Y-64474995D01*
X111528495Y-64307901D01*
X111658732Y-64121903D01*
X111713307Y-64078280D01*
X111782805Y-64071086D01*
X111845160Y-64102609D01*
X111861880Y-64121905D01*
X111915073Y-64197873D01*
X112546923Y-63566023D01*
X112570507Y-63646344D01*
G37*
G04 #@! TD.AperFunction*
G04 #@! TA.AperFunction,Conductor*
G36*
X114144925Y-64197873D02*
G01*
X114198119Y-64121905D01*
X114252696Y-64078281D01*
X114322195Y-64071088D01*
X114384549Y-64102610D01*
X114401269Y-64121905D01*
X114531505Y-64307901D01*
X114531506Y-64307902D01*
X114698597Y-64474993D01*
X114698603Y-64474998D01*
X114884158Y-64604925D01*
X114927783Y-64659502D01*
X114934977Y-64729000D01*
X114903454Y-64791355D01*
X114884158Y-64808075D01*
X114698597Y-64938005D01*
X114531505Y-65105097D01*
X114401269Y-65291095D01*
X114346692Y-65334720D01*
X114277194Y-65341914D01*
X114214839Y-65310391D01*
X114198119Y-65291095D01*
X114144925Y-65215126D01*
X114144925Y-65215125D01*
X113513076Y-65846975D01*
X113489493Y-65766656D01*
X113411761Y-65645702D01*
X113303100Y-65551548D01*
X113172315Y-65491820D01*
X113162533Y-65490413D01*
X113791373Y-64861573D01*
X113714969Y-64808076D01*
X113671344Y-64753499D01*
X113664150Y-64684001D01*
X113695672Y-64621646D01*
X113714968Y-64604925D01*
X113791373Y-64551425D01*
X113162533Y-63922586D01*
X113172315Y-63921180D01*
X113303100Y-63861452D01*
X113411761Y-63767298D01*
X113489493Y-63646344D01*
X113513076Y-63566024D01*
X114144925Y-64197873D01*
G37*
G04 #@! TD.AperFunction*
G04 #@! TA.AperFunction,Conductor*
G36*
X126623030Y-59373531D02*
G01*
X126629746Y-59374414D01*
X126637709Y-59375463D01*
X126711327Y-59387122D01*
X126739367Y-59395030D01*
X126763809Y-59405154D01*
X126768190Y-59407174D01*
X126815076Y-59431064D01*
X126834258Y-59443167D01*
X126853594Y-59458003D01*
X126859353Y-59462423D01*
X126865448Y-59467767D01*
X126904730Y-59507049D01*
X126910075Y-59513145D01*
X126929327Y-59538233D01*
X126941435Y-59557424D01*
X126954084Y-59582248D01*
X126965318Y-59604296D01*
X126967352Y-59608708D01*
X126977466Y-59633125D01*
X126985377Y-59661176D01*
X126985379Y-59661183D01*
X126997037Y-59734796D01*
X126998969Y-59749467D01*
X126999500Y-59757569D01*
X126999500Y-107883449D01*
X126999201Y-107889531D01*
X126996027Y-107921756D01*
X126983580Y-108032220D01*
X126979021Y-108054330D01*
X126962881Y-108107539D01*
X126935210Y-108186617D01*
X126927528Y-108204114D01*
X126899046Y-108257402D01*
X126896862Y-108261164D01*
X126853133Y-108330757D01*
X126848559Y-108337109D01*
X126806167Y-108388764D01*
X126802078Y-108393276D01*
X126744776Y-108450578D01*
X126740264Y-108454667D01*
X126688609Y-108497059D01*
X126682257Y-108501633D01*
X126612664Y-108545362D01*
X126608902Y-108547546D01*
X126555614Y-108576028D01*
X126538117Y-108583710D01*
X126459039Y-108611381D01*
X126405830Y-108627521D01*
X126383720Y-108632080D01*
X126273256Y-108644527D01*
X126241031Y-108647701D01*
X126234949Y-108648000D01*
X107445051Y-108648000D01*
X107438970Y-108647701D01*
X107406743Y-108644527D01*
X107296278Y-108632080D01*
X107274167Y-108627521D01*
X107220960Y-108611381D01*
X107141881Y-108583710D01*
X107124384Y-108576028D01*
X107104120Y-108565197D01*
X107071085Y-108547539D01*
X107067340Y-108545365D01*
X107048846Y-108533745D01*
X106997741Y-108501633D01*
X106991389Y-108497059D01*
X106939734Y-108454667D01*
X106935232Y-108450587D01*
X106877910Y-108393265D01*
X106873831Y-108388764D01*
X106831439Y-108337109D01*
X106826865Y-108330757D01*
X106821712Y-108322557D01*
X106783123Y-108261141D01*
X106780970Y-108257433D01*
X106752467Y-108204107D01*
X106744794Y-108186632D01*
X106717118Y-108107539D01*
X106700975Y-108054323D01*
X106696419Y-108032228D01*
X106683972Y-107921756D01*
X106680799Y-107889531D01*
X106680500Y-107883452D01*
X106680500Y-98014505D01*
X108355057Y-98014505D01*
X108374807Y-98328442D01*
X108374808Y-98328449D01*
X108433755Y-98637458D01*
X108530963Y-98936632D01*
X108530965Y-98936637D01*
X108664900Y-99221261D01*
X108664903Y-99221267D01*
X108833457Y-99486867D01*
X108833460Y-99486871D01*
X108924286Y-99596660D01*
X109889438Y-98631507D01*
X109938348Y-98710499D01*
X110081931Y-98868001D01*
X110240388Y-98987663D01*
X109274971Y-99953079D01*
X109274972Y-99953081D01*
X109517772Y-100129485D01*
X109517790Y-100129496D01*
X109793447Y-100281040D01*
X109793455Y-100281044D01*
X110085926Y-100396840D01*
X110390620Y-100475073D01*
X110390629Y-100475075D01*
X110702701Y-100514499D01*
X110702715Y-100514500D01*
X111017285Y-100514500D01*
X111017298Y-100514499D01*
X111329370Y-100475075D01*
X111329379Y-100475073D01*
X111634073Y-100396840D01*
X111926544Y-100281044D01*
X111926552Y-100281040D01*
X112202209Y-100129496D01*
X112202219Y-100129490D01*
X112445026Y-99953079D01*
X112445027Y-99953079D01*
X111479611Y-98987663D01*
X111638069Y-98868001D01*
X111781652Y-98710499D01*
X111830560Y-98631508D01*
X112795712Y-99596660D01*
X112886544Y-99486864D01*
X113055096Y-99221267D01*
X113055099Y-99221261D01*
X113189034Y-98936637D01*
X113189036Y-98936632D01*
X113286244Y-98637458D01*
X113345191Y-98328449D01*
X113345192Y-98328442D01*
X113364943Y-98014505D01*
X120355057Y-98014505D01*
X120374807Y-98328442D01*
X120374808Y-98328449D01*
X120433755Y-98637458D01*
X120530963Y-98936632D01*
X120530965Y-98936637D01*
X120664900Y-99221261D01*
X120664903Y-99221267D01*
X120833457Y-99486867D01*
X120833460Y-99486871D01*
X120924286Y-99596660D01*
X121889438Y-98631507D01*
X121938348Y-98710499D01*
X122081931Y-98868001D01*
X122240388Y-98987663D01*
X121274971Y-99953079D01*
X121274972Y-99953081D01*
X121517772Y-100129485D01*
X121517790Y-100129496D01*
X121793447Y-100281040D01*
X121793455Y-100281044D01*
X122085926Y-100396840D01*
X122390620Y-100475073D01*
X122390629Y-100475075D01*
X122702701Y-100514499D01*
X122702715Y-100514500D01*
X123017285Y-100514500D01*
X123017298Y-100514499D01*
X123329370Y-100475075D01*
X123329379Y-100475073D01*
X123634073Y-100396840D01*
X123926544Y-100281044D01*
X123926552Y-100281040D01*
X124202209Y-100129496D01*
X124202219Y-100129490D01*
X124445026Y-99953079D01*
X124445027Y-99953079D01*
X123479611Y-98987663D01*
X123638069Y-98868001D01*
X123781652Y-98710499D01*
X123830560Y-98631508D01*
X124795712Y-99596660D01*
X124886544Y-99486864D01*
X125055096Y-99221267D01*
X125055099Y-99221261D01*
X125189034Y-98936637D01*
X125189036Y-98936632D01*
X125286244Y-98637458D01*
X125345191Y-98328449D01*
X125345192Y-98328442D01*
X125364943Y-98014505D01*
X125364943Y-98014494D01*
X125345192Y-97700557D01*
X125345191Y-97700550D01*
X125286244Y-97391541D01*
X125189036Y-97092367D01*
X125189034Y-97092362D01*
X125055099Y-96807738D01*
X125055096Y-96807732D01*
X124886542Y-96542132D01*
X124886539Y-96542128D01*
X124795712Y-96432338D01*
X123830560Y-97397491D01*
X123781652Y-97318501D01*
X123638069Y-97160999D01*
X123479611Y-97041336D01*
X124445027Y-96075919D01*
X124445026Y-96075917D01*
X124202227Y-95899514D01*
X124202209Y-95899503D01*
X123926552Y-95747959D01*
X123926544Y-95747955D01*
X123634073Y-95632159D01*
X123329379Y-95553926D01*
X123329370Y-95553924D01*
X123017298Y-95514500D01*
X122702701Y-95514500D01*
X122390629Y-95553924D01*
X122390620Y-95553926D01*
X122085926Y-95632159D01*
X121793455Y-95747955D01*
X121793447Y-95747959D01*
X121517787Y-95899504D01*
X121517782Y-95899507D01*
X121274972Y-96075918D01*
X121274971Y-96075919D01*
X122240388Y-97041336D01*
X122081931Y-97160999D01*
X121938348Y-97318501D01*
X121889439Y-97397491D01*
X120924286Y-96432338D01*
X120924285Y-96432338D01*
X120833459Y-96542129D01*
X120833457Y-96542132D01*
X120664903Y-96807732D01*
X120664900Y-96807738D01*
X120530965Y-97092362D01*
X120530963Y-97092367D01*
X120433755Y-97391541D01*
X120374808Y-97700550D01*
X120374807Y-97700557D01*
X120355057Y-98014494D01*
X120355057Y-98014505D01*
X113364943Y-98014505D01*
X113364943Y-98014494D01*
X113345192Y-97700557D01*
X113345191Y-97700550D01*
X113286244Y-97391541D01*
X113189036Y-97092367D01*
X113189034Y-97092362D01*
X113055099Y-96807738D01*
X113055096Y-96807732D01*
X112886542Y-96542132D01*
X112886539Y-96542128D01*
X112795712Y-96432338D01*
X111830560Y-97397491D01*
X111781652Y-97318501D01*
X111638069Y-97160999D01*
X111479611Y-97041336D01*
X112445027Y-96075919D01*
X112445026Y-96075917D01*
X112202227Y-95899514D01*
X112202209Y-95899503D01*
X111926552Y-95747959D01*
X111926544Y-95747955D01*
X111634073Y-95632159D01*
X111329379Y-95553926D01*
X111329370Y-95553924D01*
X111017298Y-95514500D01*
X110702701Y-95514500D01*
X110390629Y-95553924D01*
X110390620Y-95553926D01*
X110085926Y-95632159D01*
X109793455Y-95747955D01*
X109793447Y-95747959D01*
X109517787Y-95899504D01*
X109517782Y-95899507D01*
X109274972Y-96075918D01*
X109274971Y-96075919D01*
X110240388Y-97041336D01*
X110081931Y-97160999D01*
X109938348Y-97318501D01*
X109889439Y-97397491D01*
X108924286Y-96432338D01*
X108924285Y-96432338D01*
X108833459Y-96542129D01*
X108833457Y-96542132D01*
X108664903Y-96807732D01*
X108664900Y-96807738D01*
X108530965Y-97092362D01*
X108530963Y-97092367D01*
X108433755Y-97391541D01*
X108374808Y-97700550D01*
X108374807Y-97700557D01*
X108355057Y-98014494D01*
X108355057Y-98014505D01*
X106680500Y-98014505D01*
X106680500Y-65976500D01*
X109134341Y-65976500D01*
X109154936Y-66211903D01*
X109154938Y-66211913D01*
X109216094Y-66440155D01*
X109216096Y-66440159D01*
X109216097Y-66440163D01*
X109295800Y-66611086D01*
X109315965Y-66654330D01*
X109315967Y-66654334D01*
X109374462Y-66737873D01*
X109451505Y-66847901D01*
X109618599Y-67014995D01*
X109715384Y-67082765D01*
X109812165Y-67150532D01*
X109812167Y-67150533D01*
X109812170Y-67150535D01*
X110026337Y-67250403D01*
X110254592Y-67311563D01*
X110442918Y-67328039D01*
X110489999Y-67332159D01*
X110490000Y-67332159D01*
X110490001Y-67332159D01*
X110529234Y-67328726D01*
X110725408Y-67311563D01*
X110953663Y-67250403D01*
X111167830Y-67150535D01*
X111361401Y-67014995D01*
X111528495Y-66847901D01*
X111658732Y-66661903D01*
X111713307Y-66618280D01*
X111782805Y-66611086D01*
X111845160Y-66642609D01*
X111861880Y-66661905D01*
X111915073Y-66737873D01*
X112546923Y-66106023D01*
X112570507Y-66186344D01*
X112648239Y-66307298D01*
X112756900Y-66401452D01*
X112887685Y-66461180D01*
X112897466Y-66462586D01*
X112268625Y-67091425D01*
X112352421Y-67150099D01*
X112566507Y-67249929D01*
X112566516Y-67249933D01*
X112794673Y-67311067D01*
X112794684Y-67311069D01*
X113029998Y-67331657D01*
X113030002Y-67331657D01*
X113265315Y-67311069D01*
X113265326Y-67311067D01*
X113493483Y-67249933D01*
X113493492Y-67249929D01*
X113707578Y-67150100D01*
X113707582Y-67150098D01*
X113791373Y-67091426D01*
X113791373Y-67091425D01*
X113162533Y-66462586D01*
X113172315Y-66461180D01*
X113303100Y-66401452D01*
X113411761Y-66307298D01*
X113489493Y-66186344D01*
X113513076Y-66106024D01*
X114144925Y-66737873D01*
X114198119Y-66661905D01*
X114252696Y-66618281D01*
X114322195Y-66611088D01*
X114384549Y-66642610D01*
X114401269Y-66661905D01*
X114531505Y-66847901D01*
X114698599Y-67014995D01*
X114795384Y-67082765D01*
X114892165Y-67150532D01*
X114892167Y-67150533D01*
X114892170Y-67150535D01*
X115106337Y-67250403D01*
X115334592Y-67311563D01*
X115522918Y-67328039D01*
X115569999Y-67332159D01*
X115570000Y-67332159D01*
X115570001Y-67332159D01*
X115609234Y-67328726D01*
X115805408Y-67311563D01*
X115858406Y-67297362D01*
X115928255Y-67299023D01*
X115986118Y-67338185D01*
X116013623Y-67402413D01*
X116014500Y-67417136D01*
X116014500Y-70409202D01*
X115994815Y-70476241D01*
X115978181Y-70496883D01*
X114951096Y-71523968D01*
X114944994Y-71529319D01*
X114916720Y-71551015D01*
X114829833Y-71664249D01*
X114820463Y-71676460D01*
X114759956Y-71822537D01*
X114759955Y-71822539D01*
X114739318Y-71979298D01*
X114739318Y-71979300D01*
X114743959Y-72014555D01*
X114743969Y-72014626D01*
X114744500Y-72022728D01*
X114744500Y-84697402D01*
X114724815Y-84764441D01*
X114708181Y-84785083D01*
X114226096Y-85267168D01*
X114219994Y-85272519D01*
X114191717Y-85294218D01*
X114155230Y-85341769D01*
X114127234Y-85378256D01*
X114112875Y-85396968D01*
X114095460Y-85419663D01*
X114094338Y-85422373D01*
X114067463Y-85462590D01*
X113951923Y-85578129D01*
X113951917Y-85578137D01*
X113868255Y-85719603D01*
X113868254Y-85719606D01*
X113822402Y-85877426D01*
X113822401Y-85877432D01*
X113819500Y-85914304D01*
X113819500Y-87070696D01*
X113822401Y-87107567D01*
X113822402Y-87107573D01*
X113868254Y-87265393D01*
X113868255Y-87265396D01*
X113951917Y-87406862D01*
X113951923Y-87406870D01*
X114068129Y-87523076D01*
X114068140Y-87523085D01*
X114068455Y-87523271D01*
X114068650Y-87523480D01*
X114074298Y-87527861D01*
X114073591Y-87528772D01*
X114116136Y-87574343D01*
X114128637Y-87643085D01*
X114101988Y-87707673D01*
X114074078Y-87731856D01*
X114074298Y-87732139D01*
X114069092Y-87736176D01*
X114068455Y-87736729D01*
X114068140Y-87736914D01*
X114068129Y-87736923D01*
X113951923Y-87853129D01*
X113951917Y-87853137D01*
X113868255Y-87994603D01*
X113868254Y-87994606D01*
X113822402Y-88152426D01*
X113822401Y-88152432D01*
X113819500Y-88189304D01*
X113819500Y-89345696D01*
X113822401Y-89382567D01*
X113822402Y-89382573D01*
X113868254Y-89540393D01*
X113868255Y-89540396D01*
X113951917Y-89681862D01*
X113951923Y-89681870D01*
X113981970Y-89711916D01*
X114015456Y-89773238D01*
X114017229Y-89783411D01*
X114019500Y-89800660D01*
X114034955Y-89918060D01*
X114034956Y-89918062D01*
X114095464Y-90064141D01*
X114191718Y-90189582D01*
X114219995Y-90211280D01*
X114226085Y-90216620D01*
X114252781Y-90243316D01*
X114252796Y-90243331D01*
X114280840Y-90291800D01*
X114281775Y-90291413D01*
X114283383Y-90295297D01*
X114283511Y-90295675D01*
X114284592Y-90298285D01*
X114284829Y-90298694D01*
X114284948Y-90299133D01*
X114284955Y-90299162D01*
X114315064Y-90371850D01*
X114345428Y-90445180D01*
X114345462Y-90445238D01*
X114392759Y-90506877D01*
X114418822Y-90540850D01*
X114418901Y-90540947D01*
X114441717Y-90570681D01*
X114469955Y-90592348D01*
X114476059Y-90597701D01*
X114512484Y-90634135D01*
X114545961Y-90695461D01*
X114540969Y-90765152D01*
X114512484Y-90809476D01*
X113275066Y-92047189D01*
X113268958Y-92052546D01*
X113240718Y-92074217D01*
X113217739Y-92104163D01*
X113217643Y-92104281D01*
X113194359Y-92134633D01*
X113144454Y-92199671D01*
X113144440Y-92199697D01*
X113144430Y-92199712D01*
X113113700Y-92273928D01*
X113083954Y-92345739D01*
X113083952Y-92345749D01*
X113083938Y-92345798D01*
X113073425Y-92425728D01*
X113068194Y-92465459D01*
X113068177Y-92465625D01*
X113063317Y-92502567D01*
X113063317Y-92502572D01*
X113067968Y-92537856D01*
X113068500Y-92545966D01*
X113068500Y-93550071D01*
X113067969Y-93558173D01*
X113063318Y-93593499D01*
X113063318Y-93593500D01*
X113068500Y-93632860D01*
X113083955Y-93750260D01*
X113083956Y-93750262D01*
X113144464Y-93896341D01*
X113240718Y-94021782D01*
X113268995Y-94043480D01*
X113275085Y-94048820D01*
X113649299Y-94423034D01*
X113999669Y-94773404D01*
X114005020Y-94779505D01*
X114026718Y-94807782D01*
X114083900Y-94851659D01*
X114152159Y-94904036D01*
X114152161Y-94904036D01*
X114152163Y-94904038D01*
X114236349Y-94938909D01*
X114290753Y-94982750D01*
X114312818Y-95049044D01*
X114312425Y-95064277D01*
X114304532Y-95154497D01*
X114304532Y-95154501D01*
X114324364Y-95381186D01*
X114324366Y-95381197D01*
X114383258Y-95600988D01*
X114383261Y-95600997D01*
X114479431Y-95807232D01*
X114479432Y-95807234D01*
X114609954Y-95993641D01*
X114770858Y-96154545D01*
X114770861Y-96154547D01*
X114957266Y-96285068D01*
X115163504Y-96381239D01*
X115383308Y-96440135D01*
X115545230Y-96454301D01*
X115609998Y-96459968D01*
X115610000Y-96459968D01*
X115610002Y-96459968D01*
X115666673Y-96455009D01*
X115836692Y-96440135D01*
X116056496Y-96381239D01*
X116262734Y-96285068D01*
X116449139Y-96154547D01*
X116610047Y-95993639D01*
X116740568Y-95807234D01*
X116747893Y-95791523D01*
X116794062Y-95739086D01*
X116861254Y-95719932D01*
X116928136Y-95740145D01*
X116972657Y-95791523D01*
X116979865Y-95806981D01*
X116979866Y-95806983D01*
X117030973Y-95879971D01*
X117030973Y-95879972D01*
X117647063Y-95263881D01*
X117673481Y-95353851D01*
X117747327Y-95468758D01*
X117850555Y-95558205D01*
X117974801Y-95614946D01*
X117999548Y-95618504D01*
X117384526Y-96233525D01*
X117384526Y-96233526D01*
X117457512Y-96284631D01*
X117457516Y-96284633D01*
X117663673Y-96380765D01*
X117663682Y-96380769D01*
X117883389Y-96439639D01*
X117883400Y-96439641D01*
X118109998Y-96459466D01*
X118110002Y-96459466D01*
X118336599Y-96439641D01*
X118336610Y-96439639D01*
X118556317Y-96380769D01*
X118556331Y-96380764D01*
X118762478Y-96284636D01*
X118835472Y-96233525D01*
X118220451Y-95618504D01*
X118245199Y-95614946D01*
X118369445Y-95558205D01*
X118472673Y-95468758D01*
X118546519Y-95353851D01*
X118572935Y-95263882D01*
X119189025Y-95879972D01*
X119240136Y-95806978D01*
X119336264Y-95600831D01*
X119336269Y-95600817D01*
X119395139Y-95381110D01*
X119395141Y-95381099D01*
X119414966Y-95154502D01*
X119414966Y-95154497D01*
X119395141Y-94927900D01*
X119395139Y-94927889D01*
X119336269Y-94708182D01*
X119336265Y-94708173D01*
X119240134Y-94502018D01*
X119240130Y-94502012D01*
X119231188Y-94489240D01*
X119208861Y-94423034D01*
X119225873Y-94355267D01*
X119258454Y-94318851D01*
X119267546Y-94312046D01*
X119353796Y-94196831D01*
X119404091Y-94061983D01*
X119410500Y-94002373D01*
X119410499Y-92306628D01*
X119404091Y-92247017D01*
X119386447Y-92199712D01*
X119353797Y-92112171D01*
X119353793Y-92112164D01*
X119267547Y-91996955D01*
X119267544Y-91996952D01*
X119152335Y-91910706D01*
X119152328Y-91910702D01*
X119017482Y-91860408D01*
X119017483Y-91860408D01*
X118957883Y-91854001D01*
X118957881Y-91854000D01*
X118957873Y-91854000D01*
X118957864Y-91854000D01*
X117262129Y-91854000D01*
X117262123Y-91854001D01*
X117202516Y-91860408D01*
X117067671Y-91910702D01*
X117067664Y-91910706D01*
X116952455Y-91996952D01*
X116952452Y-91996955D01*
X116866206Y-92112164D01*
X116866202Y-92112171D01*
X116815909Y-92247013D01*
X116814632Y-92252422D01*
X116780058Y-92313138D01*
X116718147Y-92345523D01*
X116648556Y-92339296D01*
X116606274Y-92311587D01*
X116449141Y-92154454D01*
X116262734Y-92023932D01*
X116262732Y-92023931D01*
X116056497Y-91927761D01*
X116056493Y-91927760D01*
X116005693Y-91914148D01*
X115946033Y-91877782D01*
X115915505Y-91814935D01*
X115923800Y-91745559D01*
X115950093Y-91706705D01*
X116188941Y-91467800D01*
X116195034Y-91462455D01*
X116223282Y-91440782D01*
X116246196Y-91410918D01*
X116246286Y-91410810D01*
X116247495Y-91409233D01*
X116247498Y-91409231D01*
X116258739Y-91394575D01*
X116271423Y-91378043D01*
X116287460Y-91357141D01*
X116319536Y-91315341D01*
X116319538Y-91315334D01*
X116319562Y-91315294D01*
X116319568Y-91315283D01*
X116319572Y-91315278D01*
X116349679Y-91242567D01*
X116380044Y-91169262D01*
X116380045Y-91169252D01*
X116380047Y-91169246D01*
X116380059Y-91169200D01*
X116380063Y-91169192D01*
X116390574Y-91089271D01*
X116395500Y-91051861D01*
X116395500Y-91051853D01*
X116395727Y-91050129D01*
X116395739Y-91050003D01*
X116400682Y-91012428D01*
X116396031Y-90977139D01*
X116395500Y-90969032D01*
X116395500Y-90917560D01*
X116415185Y-90850521D01*
X116431804Y-90829894D01*
X116663936Y-90597703D01*
X116670032Y-90592357D01*
X116698282Y-90570682D01*
X116721164Y-90540860D01*
X116721237Y-90540772D01*
X116722493Y-90539134D01*
X116722498Y-90539130D01*
X116747241Y-90506877D01*
X116794536Y-90445241D01*
X116794537Y-90445236D01*
X116794563Y-90445192D01*
X116794566Y-90445184D01*
X116794573Y-90445177D01*
X116824935Y-90371850D01*
X116855044Y-90299162D01*
X116855045Y-90299152D01*
X116855060Y-90299096D01*
X116855063Y-90299091D01*
X116855063Y-90299085D01*
X116855472Y-90297628D01*
X116856295Y-90296219D01*
X116856477Y-90295694D01*
X116858467Y-90290900D01*
X116859221Y-90291213D01*
X116887215Y-90243318D01*
X116913922Y-90216611D01*
X116919999Y-90211283D01*
X116948282Y-90189582D01*
X117044536Y-90064141D01*
X117105044Y-89918062D01*
X117120500Y-89800661D01*
X117122770Y-89783414D01*
X117151033Y-89719520D01*
X117158022Y-89711922D01*
X117188081Y-89681865D01*
X117271744Y-89540398D01*
X117317598Y-89382569D01*
X117320500Y-89345694D01*
X117320500Y-88189306D01*
X117317598Y-88152431D01*
X117271744Y-87994602D01*
X117188081Y-87853135D01*
X117188079Y-87853133D01*
X117188076Y-87853129D01*
X117071870Y-87736923D01*
X117071867Y-87736921D01*
X117071865Y-87736919D01*
X117071549Y-87736732D01*
X117071353Y-87736522D01*
X117065702Y-87732139D01*
X117066409Y-87731227D01*
X117023866Y-87685664D01*
X117011362Y-87616923D01*
X117038006Y-87552333D01*
X117065921Y-87528144D01*
X117065702Y-87527861D01*
X117070911Y-87523820D01*
X117071550Y-87523267D01*
X117071865Y-87523081D01*
X117188081Y-87406865D01*
X117271744Y-87265398D01*
X117317598Y-87107569D01*
X117320500Y-87070694D01*
X117320500Y-85914306D01*
X117317598Y-85877431D01*
X117271744Y-85719602D01*
X117188081Y-85578135D01*
X117188079Y-85578133D01*
X117188076Y-85578129D01*
X117072535Y-85462588D01*
X117045654Y-85422359D01*
X117044537Y-85419663D01*
X117044536Y-85419659D01*
X117044535Y-85419658D01*
X117044535Y-85419657D01*
X117031489Y-85402656D01*
X117012766Y-85378256D01*
X116948282Y-85294218D01*
X116920005Y-85272520D01*
X116913904Y-85267169D01*
X116431819Y-84785084D01*
X116398334Y-84723761D01*
X116395500Y-84697403D01*
X116395500Y-72465796D01*
X116415185Y-72398757D01*
X116431814Y-72378119D01*
X117458923Y-71351010D01*
X117464998Y-71345684D01*
X117493282Y-71323982D01*
X117589536Y-71198541D01*
X117650044Y-71052462D01*
X117665500Y-70935061D01*
X117670682Y-70895700D01*
X117666030Y-70860369D01*
X117665500Y-70852271D01*
X117665500Y-67417136D01*
X117685185Y-67350097D01*
X117737989Y-67304342D01*
X117807147Y-67294398D01*
X117821586Y-67297360D01*
X117874592Y-67311563D01*
X118062918Y-67328039D01*
X118109999Y-67332159D01*
X118110000Y-67332159D01*
X118110001Y-67332159D01*
X118149234Y-67328726D01*
X118345408Y-67311563D01*
X118503809Y-67269120D01*
X118573656Y-67270783D01*
X118631519Y-67309945D01*
X118659023Y-67374174D01*
X118659900Y-67388895D01*
X118659900Y-71314446D01*
X118640215Y-71381485D01*
X118623581Y-71402127D01*
X118038608Y-71987099D01*
X118026351Y-71996920D01*
X118026534Y-71997141D01*
X118020523Y-72002113D01*
X117973172Y-72052536D01*
X117952289Y-72073419D01*
X117952277Y-72073432D01*
X117948021Y-72078917D01*
X117944237Y-72083347D01*
X117912337Y-72117318D01*
X117912336Y-72117320D01*
X117902684Y-72134876D01*
X117892010Y-72151126D01*
X117879729Y-72166961D01*
X117879724Y-72166968D01*
X117861215Y-72209738D01*
X117858645Y-72214984D01*
X117836203Y-72255806D01*
X117831222Y-72275207D01*
X117824921Y-72293610D01*
X117816962Y-72312002D01*
X117816961Y-72312005D01*
X117809671Y-72358027D01*
X117808487Y-72363746D01*
X117796901Y-72408872D01*
X117796900Y-72408882D01*
X117796900Y-72428916D01*
X117795373Y-72448315D01*
X117792240Y-72468094D01*
X117792240Y-72468095D01*
X117796625Y-72514483D01*
X117796900Y-72520321D01*
X117796900Y-76066155D01*
X117795175Y-76081772D01*
X117795461Y-76081799D01*
X117794726Y-76089565D01*
X117796900Y-76158714D01*
X117796900Y-76188243D01*
X117796901Y-76188260D01*
X117797768Y-76195131D01*
X117798226Y-76200950D01*
X117799690Y-76247524D01*
X117799691Y-76247527D01*
X117805280Y-76266767D01*
X117809224Y-76285811D01*
X117811736Y-76305692D01*
X117828890Y-76349019D01*
X117830782Y-76354547D01*
X117843781Y-76399288D01*
X117853980Y-76416534D01*
X117862538Y-76434003D01*
X117869914Y-76452632D01*
X117897298Y-76490323D01*
X117900506Y-76495207D01*
X117924227Y-76535316D01*
X117924233Y-76535324D01*
X117938390Y-76549480D01*
X117951028Y-76564276D01*
X117962805Y-76580486D01*
X117962806Y-76580487D01*
X117998709Y-76610188D01*
X118003020Y-76614110D01*
X118323218Y-76934308D01*
X118559204Y-77170294D01*
X118592689Y-77231617D01*
X118587705Y-77301309D01*
X118573098Y-77329098D01*
X118459965Y-77490669D01*
X118459964Y-77490671D01*
X118360098Y-77704835D01*
X118360094Y-77704844D01*
X118298938Y-77933086D01*
X118298936Y-77933096D01*
X118278341Y-78168499D01*
X118278341Y-78168500D01*
X118298936Y-78403903D01*
X118298938Y-78403913D01*
X118360094Y-78632155D01*
X118360096Y-78632159D01*
X118360097Y-78632163D01*
X118459965Y-78846330D01*
X118459967Y-78846334D01*
X118568281Y-79001021D01*
X118595501Y-79039896D01*
X118595506Y-79039902D01*
X118717818Y-79162214D01*
X118751303Y-79223537D01*
X118746319Y-79293229D01*
X118704447Y-79349162D01*
X118673471Y-79366077D01*
X118541912Y-79415146D01*
X118541906Y-79415149D01*
X118426812Y-79501309D01*
X118426809Y-79501312D01*
X118340649Y-79616406D01*
X118340645Y-79616413D01*
X118290403Y-79751120D01*
X118290401Y-79751127D01*
X118284000Y-79810655D01*
X118284000Y-80458500D01*
X119200314Y-80458500D01*
X119174507Y-80498656D01*
X119134000Y-80636611D01*
X119134000Y-80780389D01*
X119174507Y-80918344D01*
X119200314Y-80958500D01*
X118284000Y-80958500D01*
X118284000Y-81606344D01*
X118290401Y-81665872D01*
X118290403Y-81665879D01*
X118340645Y-81800586D01*
X118340649Y-81800593D01*
X118426809Y-81915687D01*
X118426812Y-81915690D01*
X118541906Y-82001850D01*
X118541913Y-82001854D01*
X118676620Y-82052096D01*
X118676627Y-82052098D01*
X118736155Y-82058499D01*
X118736172Y-82058500D01*
X119384000Y-82058500D01*
X119384000Y-81144001D01*
X119491685Y-81193180D01*
X119598237Y-81208500D01*
X119669763Y-81208500D01*
X119776315Y-81193180D01*
X119884000Y-81144001D01*
X119884000Y-82058500D01*
X120531828Y-82058500D01*
X120531844Y-82058499D01*
X120591372Y-82052098D01*
X120591379Y-82052096D01*
X120726086Y-82001854D01*
X120726093Y-82001850D01*
X120841187Y-81915690D01*
X120841190Y-81915687D01*
X120927350Y-81800593D01*
X120927354Y-81800586D01*
X120977596Y-81665879D01*
X120977598Y-81665872D01*
X120983999Y-81606344D01*
X120984000Y-81606327D01*
X120984000Y-80958500D01*
X120067686Y-80958500D01*
X120093493Y-80918344D01*
X120134000Y-80780389D01*
X120134000Y-80636611D01*
X120093493Y-80498656D01*
X120067686Y-80458500D01*
X120984000Y-80458500D01*
X120984000Y-79810672D01*
X120983999Y-79810655D01*
X120977598Y-79751127D01*
X120977596Y-79751120D01*
X120927354Y-79616413D01*
X120927350Y-79616406D01*
X120841190Y-79501312D01*
X120841187Y-79501309D01*
X120726093Y-79415149D01*
X120726088Y-79415146D01*
X120594528Y-79366077D01*
X120538595Y-79324205D01*
X120514178Y-79258741D01*
X120529030Y-79190468D01*
X120550175Y-79162220D01*
X120672495Y-79039901D01*
X120808035Y-78846330D01*
X120907903Y-78632163D01*
X120969063Y-78403908D01*
X120989659Y-78168500D01*
X120969063Y-77933092D01*
X120907903Y-77704837D01*
X120808035Y-77490671D01*
X120672495Y-77297099D01*
X120672494Y-77297097D01*
X120505402Y-77130006D01*
X120505401Y-77130005D01*
X120319840Y-77000074D01*
X120276216Y-76945497D01*
X120269023Y-76875998D01*
X120300545Y-76813644D01*
X120319831Y-76796932D01*
X120505401Y-76666995D01*
X120672495Y-76499901D01*
X120808035Y-76306330D01*
X120907903Y-76092163D01*
X120969063Y-75863908D01*
X120989659Y-75628500D01*
X120969063Y-75393092D01*
X120907903Y-75164837D01*
X120808035Y-74950671D01*
X120694901Y-74789098D01*
X120672574Y-74722892D01*
X120689584Y-74655125D01*
X120708791Y-74630298D01*
X124749188Y-70589901D01*
X124761442Y-70580086D01*
X124761259Y-70579864D01*
X124767266Y-70574892D01*
X124767277Y-70574886D01*
X124800011Y-70540028D01*
X124814627Y-70524464D01*
X124825071Y-70514018D01*
X124835520Y-70503571D01*
X124839779Y-70498078D01*
X124843552Y-70493661D01*
X124875462Y-70459682D01*
X124885113Y-70442124D01*
X124895796Y-70425861D01*
X124908073Y-70410036D01*
X124926585Y-70367253D01*
X124929138Y-70362041D01*
X124951597Y-70321192D01*
X124956580Y-70301780D01*
X124962881Y-70283380D01*
X124970837Y-70264996D01*
X124978129Y-70218952D01*
X124979306Y-70213271D01*
X124990900Y-70168119D01*
X124990900Y-70148083D01*
X124992427Y-70128682D01*
X124995560Y-70108904D01*
X124991175Y-70062515D01*
X124990900Y-70056677D01*
X124990900Y-65028142D01*
X124992624Y-65012522D01*
X124992339Y-65012495D01*
X124993073Y-65004733D01*
X124990977Y-64938007D01*
X124990900Y-64935571D01*
X124990900Y-64906050D01*
X124990031Y-64899179D01*
X124989573Y-64893352D01*
X124988110Y-64846773D01*
X124982519Y-64827530D01*
X124978573Y-64808478D01*
X124976064Y-64788608D01*
X124958904Y-64745267D01*
X124957024Y-64739779D01*
X124944018Y-64695010D01*
X124937507Y-64684001D01*
X124933823Y-64677771D01*
X124925261Y-64660294D01*
X124917887Y-64641670D01*
X124917886Y-64641668D01*
X124890479Y-64603945D01*
X124887288Y-64599086D01*
X124863572Y-64558983D01*
X124863565Y-64558974D01*
X124849406Y-64544815D01*
X124836768Y-64530019D01*
X124831395Y-64522624D01*
X124824994Y-64513813D01*
X124789089Y-64484110D01*
X124784767Y-64480177D01*
X124734383Y-64429793D01*
X124627297Y-64322706D01*
X124617480Y-64310452D01*
X124617260Y-64310635D01*
X124612288Y-64304625D01*
X124601116Y-64294134D01*
X124561863Y-64257272D01*
X124561862Y-64257271D01*
X124540976Y-64236384D01*
X124535486Y-64232125D01*
X124531061Y-64228347D01*
X124497082Y-64196438D01*
X124497080Y-64196436D01*
X124497077Y-64196435D01*
X124479529Y-64186788D01*
X124463262Y-64176103D01*
X124447452Y-64163839D01*
X124406546Y-64107195D01*
X124402758Y-64037428D01*
X124411066Y-64013471D01*
X124463903Y-63900163D01*
X124525063Y-63671908D01*
X124545659Y-63436500D01*
X124525063Y-63201092D01*
X124463903Y-62972837D01*
X124364035Y-62758671D01*
X124358731Y-62751095D01*
X124228494Y-62565097D01*
X124061402Y-62398006D01*
X124061395Y-62398001D01*
X124029340Y-62375556D01*
X123952245Y-62321573D01*
X123867834Y-62262467D01*
X123867830Y-62262465D01*
X123867828Y-62262464D01*
X123653663Y-62162597D01*
X123653659Y-62162596D01*
X123653655Y-62162594D01*
X123425413Y-62101438D01*
X123425403Y-62101436D01*
X123190001Y-62080841D01*
X123189999Y-62080841D01*
X122954596Y-62101436D01*
X122954586Y-62101438D01*
X122726344Y-62162594D01*
X122726335Y-62162598D01*
X122512171Y-62262464D01*
X122512169Y-62262465D01*
X122326366Y-62392565D01*
X122260160Y-62414892D01*
X122192392Y-62397882D01*
X122167562Y-62378671D01*
X121666303Y-61877412D01*
X121656480Y-61865150D01*
X121656259Y-61865334D01*
X121651286Y-61859323D01*
X121632659Y-61841831D01*
X121600864Y-61811973D01*
X121590419Y-61801528D01*
X121579975Y-61791083D01*
X121574486Y-61786825D01*
X121570061Y-61783047D01*
X121536082Y-61751138D01*
X121536080Y-61751136D01*
X121536077Y-61751135D01*
X121518529Y-61741488D01*
X121502263Y-61730804D01*
X121486433Y-61718525D01*
X121443668Y-61700018D01*
X121438422Y-61697448D01*
X121397593Y-61675003D01*
X121397592Y-61675002D01*
X121378193Y-61670022D01*
X121359781Y-61663718D01*
X121341398Y-61655762D01*
X121341392Y-61655760D01*
X121295374Y-61648472D01*
X121289652Y-61647287D01*
X121244521Y-61635700D01*
X121244519Y-61635700D01*
X121224484Y-61635700D01*
X121205086Y-61634173D01*
X121197662Y-61632997D01*
X121185305Y-61631040D01*
X121185304Y-61631040D01*
X121138916Y-61635425D01*
X121133078Y-61635700D01*
X120175938Y-61635700D01*
X120160321Y-61633976D01*
X120160294Y-61634262D01*
X120152532Y-61633527D01*
X120083404Y-61635700D01*
X120053850Y-61635700D01*
X120053129Y-61635790D01*
X120046957Y-61636569D01*
X120041145Y-61637026D01*
X119994573Y-61638490D01*
X119994572Y-61638490D01*
X119975329Y-61644081D01*
X119956279Y-61648025D01*
X119936411Y-61650534D01*
X119936409Y-61650535D01*
X119893084Y-61667688D01*
X119887557Y-61669580D01*
X119842810Y-61682581D01*
X119842809Y-61682582D01*
X119825567Y-61692779D01*
X119808099Y-61701337D01*
X119789469Y-61708713D01*
X119789467Y-61708714D01*
X119751776Y-61736098D01*
X119746894Y-61739305D01*
X119706779Y-61763030D01*
X119692608Y-61777200D01*
X119677823Y-61789828D01*
X119661612Y-61801607D01*
X119631909Y-61837510D01*
X119627977Y-61841831D01*
X119108145Y-62361662D01*
X119046822Y-62395147D01*
X118977130Y-62390163D01*
X118949342Y-62375557D01*
X118787830Y-62262465D01*
X118573663Y-62162597D01*
X118573659Y-62162596D01*
X118573655Y-62162594D01*
X118345413Y-62101438D01*
X118345403Y-62101436D01*
X118110001Y-62080841D01*
X118109999Y-62080841D01*
X117874596Y-62101436D01*
X117874586Y-62101438D01*
X117646344Y-62162594D01*
X117646335Y-62162598D01*
X117432171Y-62262464D01*
X117432169Y-62262465D01*
X117238597Y-62398005D01*
X117071505Y-62565097D01*
X116941575Y-62750658D01*
X116886998Y-62794283D01*
X116817500Y-62801477D01*
X116755145Y-62769954D01*
X116738425Y-62750658D01*
X116608494Y-62565097D01*
X116441402Y-62398006D01*
X116441395Y-62398001D01*
X116409340Y-62375556D01*
X116332245Y-62321573D01*
X116247834Y-62262467D01*
X116247830Y-62262465D01*
X116247828Y-62262464D01*
X116033663Y-62162597D01*
X116033659Y-62162596D01*
X116033655Y-62162594D01*
X115805413Y-62101438D01*
X115805403Y-62101436D01*
X115570001Y-62080841D01*
X115569999Y-62080841D01*
X115334596Y-62101436D01*
X115334586Y-62101438D01*
X115106344Y-62162594D01*
X115106335Y-62162598D01*
X114892171Y-62262464D01*
X114892169Y-62262465D01*
X114698597Y-62398005D01*
X114531505Y-62565097D01*
X114401269Y-62751095D01*
X114346692Y-62794720D01*
X114277194Y-62801914D01*
X114214839Y-62770391D01*
X114198119Y-62751095D01*
X114144925Y-62675126D01*
X114144925Y-62675125D01*
X113513076Y-63306975D01*
X113489493Y-63226656D01*
X113411761Y-63105702D01*
X113303100Y-63011548D01*
X113172315Y-62951820D01*
X113162533Y-62950413D01*
X113791373Y-62321573D01*
X113791373Y-62321572D01*
X113707583Y-62262902D01*
X113707579Y-62262900D01*
X113493492Y-62163070D01*
X113493483Y-62163066D01*
X113265326Y-62101932D01*
X113265315Y-62101930D01*
X113030002Y-62081343D01*
X113029998Y-62081343D01*
X112794684Y-62101930D01*
X112794673Y-62101932D01*
X112566516Y-62163066D01*
X112566507Y-62163070D01*
X112352419Y-62262901D01*
X112268625Y-62321572D01*
X112897466Y-62950413D01*
X112887685Y-62951820D01*
X112756900Y-63011548D01*
X112648239Y-63105702D01*
X112570507Y-63226656D01*
X112546923Y-63306976D01*
X111915073Y-62675126D01*
X111861881Y-62751094D01*
X111807304Y-62794719D01*
X111737806Y-62801913D01*
X111675451Y-62770391D01*
X111658730Y-62751094D01*
X111528494Y-62565097D01*
X111361402Y-62398006D01*
X111361395Y-62398001D01*
X111329340Y-62375556D01*
X111252245Y-62321573D01*
X111167834Y-62262467D01*
X111167830Y-62262465D01*
X111167828Y-62262464D01*
X110953663Y-62162597D01*
X110953659Y-62162596D01*
X110953655Y-62162594D01*
X110725413Y-62101438D01*
X110725403Y-62101436D01*
X110490001Y-62080841D01*
X110489999Y-62080841D01*
X110254596Y-62101436D01*
X110254586Y-62101438D01*
X110026344Y-62162594D01*
X110026335Y-62162598D01*
X109812171Y-62262464D01*
X109812169Y-62262465D01*
X109618597Y-62398005D01*
X109451505Y-62565097D01*
X109315965Y-62758669D01*
X109315964Y-62758671D01*
X109216098Y-62972835D01*
X109216094Y-62972844D01*
X109154938Y-63201086D01*
X109154936Y-63201096D01*
X109134341Y-63436499D01*
X109134341Y-63436500D01*
X109154936Y-63671903D01*
X109154938Y-63671913D01*
X109216094Y-63900155D01*
X109216096Y-63900159D01*
X109216097Y-63900163D01*
X109288674Y-64055804D01*
X109315965Y-64114330D01*
X109315967Y-64114334D01*
X109374462Y-64197873D01*
X109451504Y-64307900D01*
X109451506Y-64307902D01*
X109618595Y-64474992D01*
X109618598Y-64474994D01*
X109618599Y-64474995D01*
X109686623Y-64522625D01*
X109730248Y-64577201D01*
X109739500Y-64624200D01*
X109739500Y-64788798D01*
X109719815Y-64855837D01*
X109686625Y-64890372D01*
X109618595Y-64938007D01*
X109451505Y-65105097D01*
X109315965Y-65298669D01*
X109315964Y-65298671D01*
X109216098Y-65512835D01*
X109216094Y-65512844D01*
X109154938Y-65741086D01*
X109154936Y-65741096D01*
X109134341Y-65976499D01*
X109134341Y-65976500D01*
X106680500Y-65976500D01*
X106680500Y-59757570D01*
X106681031Y-59749470D01*
X106682962Y-59734796D01*
X106694624Y-59661164D01*
X106702528Y-59633137D01*
X106712661Y-59608674D01*
X106714670Y-59604317D01*
X106738569Y-59557413D01*
X106750659Y-59538250D01*
X106769933Y-59513133D01*
X106775253Y-59507065D01*
X106814565Y-59467753D01*
X106820633Y-59462433D01*
X106845750Y-59443159D01*
X106864913Y-59431069D01*
X106911817Y-59407170D01*
X106916174Y-59405161D01*
X106940637Y-59395028D01*
X106968664Y-59387124D01*
X107042284Y-59375463D01*
X107051045Y-59374310D01*
X107056970Y-59373531D01*
X107065070Y-59373000D01*
X126614930Y-59373000D01*
X126623030Y-59373531D01*
G37*
G04 #@! TD.AperFunction*
M02*
