%TF.GenerationSoftware,KiCad,Pcbnew,7.0.9-7.0.9~ubuntu20.04.1*%
%TF.CreationDate,2023-12-02T17:15:19+01:00*%
%TF.ProjectId,kicad-pmod_usb,6b696361-642d-4706-9d6f-645f7573622e,1.0*%
%TF.SameCoordinates,Original*%
%TF.FileFunction,Drillmap*%
%TF.FilePolarity,Positive*%
%FSLAX45Y45*%
G04 Gerber Fmt 4.5, Leading zero omitted, Abs format (unit mm)*
G04 Created by KiCad (PCBNEW 7.0.9-7.0.9~ubuntu20.04.1) date 2023-12-02 17:15:19*
%MOMM*%
%LPD*%
G01*
G04 APERTURE LIST*
%ADD10C,0.100000*%
%ADD11C,0.200000*%
G04 APERTURE END LIST*
D10*
X10706100Y-5937250D02*
G75*
G03*
X10668000Y-5975350I0J-38100D01*
G01*
X10668000Y-10788650D02*
G75*
G03*
X10744200Y-10864850I76200J0D01*
G01*
X12661900Y-5937250D02*
X10706100Y-5937250D01*
X12700000Y-10788650D02*
X12700000Y-5975350D01*
X12623800Y-10864850D02*
G75*
G03*
X12700000Y-10788650I0J76200D01*
G01*
X10744200Y-10864850D02*
X12623800Y-10864850D01*
X10668000Y-5975350D02*
X10668000Y-10788650D01*
X12700000Y-5975350D02*
G75*
G03*
X12661900Y-5937250I-38100J0D01*
G01*
D11*
X10923777Y-11181334D02*
X10923777Y-10981334D01*
X10923777Y-10981334D02*
X10971396Y-10981334D01*
X10971396Y-10981334D02*
X10999967Y-10990858D01*
X10999967Y-10990858D02*
X11019015Y-11009905D01*
X11019015Y-11009905D02*
X11028539Y-11028953D01*
X11028539Y-11028953D02*
X11038063Y-11067048D01*
X11038063Y-11067048D02*
X11038063Y-11095620D01*
X11038063Y-11095620D02*
X11028539Y-11133715D01*
X11028539Y-11133715D02*
X11019015Y-11152762D01*
X11019015Y-11152762D02*
X10999967Y-11171810D01*
X10999967Y-11171810D02*
X10971396Y-11181334D01*
X10971396Y-11181334D02*
X10923777Y-11181334D01*
X11123777Y-11181334D02*
X11123777Y-11048000D01*
X11123777Y-11086096D02*
X11133301Y-11067048D01*
X11133301Y-11067048D02*
X11142824Y-11057524D01*
X11142824Y-11057524D02*
X11161872Y-11048000D01*
X11161872Y-11048000D02*
X11180920Y-11048000D01*
X11247586Y-11181334D02*
X11247586Y-11048000D01*
X11247586Y-10981334D02*
X11238062Y-10990858D01*
X11238062Y-10990858D02*
X11247586Y-11000381D01*
X11247586Y-11000381D02*
X11257110Y-10990858D01*
X11257110Y-10990858D02*
X11247586Y-10981334D01*
X11247586Y-10981334D02*
X11247586Y-11000381D01*
X11371396Y-11181334D02*
X11352348Y-11171810D01*
X11352348Y-11171810D02*
X11342824Y-11152762D01*
X11342824Y-11152762D02*
X11342824Y-10981334D01*
X11476158Y-11181334D02*
X11457110Y-11171810D01*
X11457110Y-11171810D02*
X11447586Y-11152762D01*
X11447586Y-11152762D02*
X11447586Y-10981334D01*
X11704729Y-11181334D02*
X11704729Y-10981334D01*
X11704729Y-10981334D02*
X11771396Y-11124191D01*
X11771396Y-11124191D02*
X11838062Y-10981334D01*
X11838062Y-10981334D02*
X11838062Y-11181334D01*
X12019015Y-11181334D02*
X12019015Y-11076572D01*
X12019015Y-11076572D02*
X12009491Y-11057524D01*
X12009491Y-11057524D02*
X11990443Y-11048000D01*
X11990443Y-11048000D02*
X11952348Y-11048000D01*
X11952348Y-11048000D02*
X11933301Y-11057524D01*
X12019015Y-11171810D02*
X11999967Y-11181334D01*
X11999967Y-11181334D02*
X11952348Y-11181334D01*
X11952348Y-11181334D02*
X11933301Y-11171810D01*
X11933301Y-11171810D02*
X11923777Y-11152762D01*
X11923777Y-11152762D02*
X11923777Y-11133715D01*
X11923777Y-11133715D02*
X11933301Y-11114667D01*
X11933301Y-11114667D02*
X11952348Y-11105143D01*
X11952348Y-11105143D02*
X11999967Y-11105143D01*
X11999967Y-11105143D02*
X12019015Y-11095620D01*
X12114253Y-11048000D02*
X12114253Y-11248000D01*
X12114253Y-11057524D02*
X12133301Y-11048000D01*
X12133301Y-11048000D02*
X12171396Y-11048000D01*
X12171396Y-11048000D02*
X12190443Y-11057524D01*
X12190443Y-11057524D02*
X12199967Y-11067048D01*
X12199967Y-11067048D02*
X12209491Y-11086096D01*
X12209491Y-11086096D02*
X12209491Y-11143239D01*
X12209491Y-11143239D02*
X12199967Y-11162286D01*
X12199967Y-11162286D02*
X12190443Y-11171810D01*
X12190443Y-11171810D02*
X12171396Y-11181334D01*
X12171396Y-11181334D02*
X12133301Y-11181334D01*
X12133301Y-11181334D02*
X12114253Y-11171810D01*
X12295205Y-11162286D02*
X12304729Y-11171810D01*
X12304729Y-11171810D02*
X12295205Y-11181334D01*
X12295205Y-11181334D02*
X12285682Y-11171810D01*
X12285682Y-11171810D02*
X12295205Y-11162286D01*
X12295205Y-11162286D02*
X12295205Y-11181334D01*
X12295205Y-11057524D02*
X12304729Y-11067048D01*
X12304729Y-11067048D02*
X12295205Y-11076572D01*
X12295205Y-11076572D02*
X12285682Y-11067048D01*
X12285682Y-11067048D02*
X12295205Y-11057524D01*
X12295205Y-11057524D02*
X12295205Y-11076572D01*
M02*
