G04 #@! TF.GenerationSoftware,KiCad,Pcbnew,7.0.9-7.0.9~ubuntu20.04.1*
G04 #@! TF.CreationDate,2023-12-02T17:13:25+01:00*
G04 #@! TF.ProjectId,kicad-pmod_usb,6b696361-642d-4706-9d6f-645f7573622e,1.0*
G04 #@! TF.SameCoordinates,Original*
G04 #@! TF.FileFunction,Copper,L1,Top*
G04 #@! TF.FilePolarity,Positive*
%FSLAX46Y46*%
G04 Gerber Fmt 4.6, Leading zero omitted, Abs format (unit mm)*
G04 Created by KiCad (PCBNEW 7.0.9-7.0.9~ubuntu20.04.1) date 2023-12-02 17:13:25*
%MOMM*%
%LPD*%
G01*
G04 APERTURE LIST*
G04 Aperture macros list*
%AMRoundRect*
0 Rectangle with rounded corners*
0 $1 Rounding radius*
0 $2 $3 $4 $5 $6 $7 $8 $9 X,Y pos of 4 corners*
0 Add a 4 corners polygon primitive as box body*
4,1,4,$2,$3,$4,$5,$6,$7,$8,$9,$2,$3,0*
0 Add four circle primitives for the rounded corners*
1,1,$1+$1,$2,$3*
1,1,$1+$1,$4,$5*
1,1,$1+$1,$6,$7*
1,1,$1+$1,$8,$9*
0 Add four rect primitives between the rounded corners*
20,1,$1+$1,$2,$3,$4,$5,0*
20,1,$1+$1,$4,$5,$6,$7,0*
20,1,$1+$1,$6,$7,$8,$9,0*
20,1,$1+$1,$8,$9,$2,$3,0*%
G04 Aperture macros list end*
G04 #@! TA.AperFunction,SMDPad,CuDef*
%ADD10RoundRect,0.237500X-0.237500X0.250000X-0.237500X-0.250000X0.237500X-0.250000X0.237500X0.250000X0*%
G04 #@! TD*
G04 #@! TA.AperFunction,SMDPad,CuDef*
%ADD11RoundRect,0.237500X0.237500X-0.287500X0.237500X0.287500X-0.237500X0.287500X-0.237500X-0.287500X0*%
G04 #@! TD*
G04 #@! TA.AperFunction,ComponentPad*
%ADD12R,1.700000X1.700000*%
G04 #@! TD*
G04 #@! TA.AperFunction,ComponentPad*
%ADD13O,1.700000X1.700000*%
G04 #@! TD*
G04 #@! TA.AperFunction,ComponentPad*
%ADD14R,1.600000X1.600000*%
G04 #@! TD*
G04 #@! TA.AperFunction,ComponentPad*
%ADD15C,1.600000*%
G04 #@! TD*
G04 #@! TA.AperFunction,ComponentPad*
%ADD16C,4.000000*%
G04 #@! TD*
G04 #@! TA.AperFunction,SMDPad,CuDef*
%ADD17RoundRect,0.237500X0.300000X0.237500X-0.300000X0.237500X-0.300000X-0.237500X0.300000X-0.237500X0*%
G04 #@! TD*
G04 #@! TA.AperFunction,SMDPad,CuDef*
%ADD18R,1.600000X2.180000*%
G04 #@! TD*
G04 #@! TA.AperFunction,SMDPad,CuDef*
%ADD19RoundRect,0.237500X0.237500X-0.250000X0.237500X0.250000X-0.237500X0.250000X-0.237500X-0.250000X0*%
G04 #@! TD*
G04 #@! TA.AperFunction,SMDPad,CuDef*
%ADD20RoundRect,0.237500X0.250000X0.237500X-0.250000X0.237500X-0.250000X-0.237500X0.250000X-0.237500X0*%
G04 #@! TD*
G04 #@! TA.AperFunction,ViaPad*
%ADD21C,0.800000*%
G04 #@! TD*
G04 #@! TA.AperFunction,Conductor*
%ADD22C,0.500000*%
G04 #@! TD*
G04 #@! TA.AperFunction,Conductor*
%ADD23C,0.250000*%
G04 #@! TD*
G04 APERTURE END LIST*
D10*
X122682000Y-86400000D03*
X122682000Y-88225000D03*
D11*
X124714000Y-88187500D03*
X124714000Y-86437500D03*
D10*
X122682000Y-70144000D03*
X122682000Y-71969000D03*
X109982000Y-70144000D03*
X109982000Y-71969000D03*
D11*
X124714000Y-77801500D03*
X124714000Y-79551500D03*
D12*
X123190000Y-65976500D03*
D13*
X123190000Y-63436500D03*
X120650000Y-65976500D03*
X120650000Y-63436500D03*
X118110000Y-65976500D03*
X118110000Y-63436500D03*
X115570000Y-65976500D03*
X115570000Y-63436500D03*
X113030000Y-65976500D03*
X113030000Y-63436500D03*
X110490000Y-65976500D03*
X110490000Y-63436500D03*
D14*
X118110000Y-93154500D03*
D15*
X115610000Y-93154500D03*
X115610000Y-95154500D03*
X118110000Y-95154500D03*
D16*
X122860000Y-98014500D03*
X110860000Y-98014500D03*
D17*
X112368500Y-89344500D03*
X110643500Y-89344500D03*
D10*
X112014000Y-70144000D03*
X112014000Y-71969000D03*
D12*
X119634000Y-80708500D03*
D13*
X119634000Y-78168500D03*
X119634000Y-75628500D03*
X119634000Y-73088500D03*
D18*
X109982000Y-84790500D03*
X109982000Y-75610500D03*
D19*
X122682000Y-79589000D03*
X122682000Y-77764000D03*
D20*
X117395000Y-68516500D03*
X115570000Y-68516500D03*
D21*
X114046000Y-68770500D03*
X114300000Y-72072500D03*
X115570000Y-89852500D03*
D22*
X122256700Y-82008800D02*
X121525000Y-82740500D01*
X121525000Y-82740500D02*
X119634000Y-82740500D01*
X119634000Y-82740500D02*
X119634000Y-80708500D01*
D23*
X109982000Y-71969000D02*
X109158700Y-71145700D01*
X109158700Y-71145700D02*
X109158700Y-65646099D01*
X109158700Y-65646099D02*
X110003599Y-64801200D01*
X110003599Y-64801200D02*
X118666800Y-64801200D01*
X118666800Y-64801200D02*
X119474700Y-65609100D01*
X119474700Y-65609100D02*
X119474700Y-65976500D01*
X119474700Y-65976500D02*
X120650000Y-65976500D01*
X115570000Y-65976500D02*
X115570000Y-68516500D01*
X118877800Y-92029200D02*
X122682000Y-88225000D01*
X118110000Y-92029200D02*
X118877800Y-92029200D01*
X118110000Y-93154500D02*
X118110000Y-92029200D01*
X112259200Y-71969000D02*
X112014000Y-71969000D01*
X118458700Y-78168500D02*
X112259200Y-71969000D01*
X119634000Y-78168500D02*
X118458700Y-78168500D01*
X109982000Y-75610500D02*
X109982000Y-71969000D01*
X120197800Y-74453200D02*
X122682000Y-71969000D01*
X119634000Y-74453200D02*
X120197800Y-74453200D01*
X119634000Y-75628500D02*
X119634000Y-74453200D01*
X124392900Y-76053100D02*
X122682000Y-77764000D01*
X124392900Y-65006700D02*
X124392900Y-76053100D01*
X123998000Y-64611800D02*
X124392900Y-65006700D01*
X123190000Y-64611800D02*
X123998000Y-64611800D01*
X123190000Y-63436500D02*
X123190000Y-64611800D01*
X119842000Y-68516500D02*
X117395000Y-68516500D01*
X122014700Y-66343800D02*
X119842000Y-68516500D01*
X122014700Y-65976500D02*
X122014700Y-66343800D01*
X123190000Y-65976500D02*
X122014700Y-65976500D01*
X124469500Y-77801500D02*
X122682000Y-79589000D01*
X124714000Y-77801500D02*
X124469500Y-77801500D01*
X122719500Y-86437500D02*
X122682000Y-86400000D01*
X124714000Y-86437500D02*
X122719500Y-86437500D01*
D22*
X125685000Y-87216500D02*
X124714000Y-88187500D01*
X125685000Y-85437100D02*
X125685000Y-87216500D01*
X122256700Y-82008800D02*
X125685000Y-85437100D01*
X124714000Y-79551500D02*
X122256700Y-82008800D01*
X124714000Y-89340500D02*
X119450000Y-94604500D01*
X124714000Y-88187500D02*
X124714000Y-89340500D01*
X118900000Y-95154500D02*
X119450000Y-94604500D01*
X118110000Y-95154500D02*
X118900000Y-95154500D01*
X119450000Y-94604500D02*
X122860000Y-98014500D01*
X110643500Y-97798000D02*
X110860000Y-98014500D01*
X110643500Y-89344500D02*
X110643500Y-97798000D01*
X109982000Y-88683000D02*
X109982000Y-84790500D01*
X110643500Y-89344500D02*
X109982000Y-88683000D01*
X112014000Y-70144000D02*
X122682000Y-70144000D01*
X110490000Y-65976500D02*
X110490000Y-67276800D01*
X109982000Y-70144000D02*
X110490000Y-70144000D01*
X110490000Y-70144000D02*
X110490000Y-67276800D01*
X112876500Y-89852500D02*
X112368500Y-89344500D01*
X115570000Y-89852500D02*
X112876500Y-89852500D01*
X111061500Y-73433200D02*
X111061500Y-70652000D01*
X112368500Y-74740200D02*
X111061500Y-73433200D01*
X112368500Y-89344500D02*
X112368500Y-74740200D01*
X110998000Y-70652000D02*
X111061500Y-70652000D01*
X110490000Y-70144000D02*
X110998000Y-70652000D01*
X111506000Y-70652000D02*
X112014000Y-70144000D01*
X111061500Y-70652000D02*
X111506000Y-70652000D01*
G04 #@! TA.AperFunction,Conductor*
G36*
X121916987Y-70914185D02*
G01*
X121937629Y-70930819D01*
X121975629Y-70968819D01*
X122009114Y-71030142D01*
X122004130Y-71099834D01*
X121975629Y-71144181D01*
X121861661Y-71258148D01*
X121771093Y-71404981D01*
X121771092Y-71404984D01*
X121716826Y-71568747D01*
X121716826Y-71568748D01*
X121716825Y-71568748D01*
X121706500Y-71669815D01*
X121706500Y-72008546D01*
X121686815Y-72075585D01*
X121670181Y-72096227D01*
X121107434Y-72658973D01*
X121046111Y-72692458D01*
X120976419Y-72687474D01*
X120920486Y-72645602D01*
X120907371Y-72623697D01*
X120906701Y-72622261D01*
X120808035Y-72410671D01*
X120779034Y-72369252D01*
X120672494Y-72217097D01*
X120505402Y-72050006D01*
X120505395Y-72050001D01*
X120311834Y-71914467D01*
X120311830Y-71914465D01*
X120287445Y-71903094D01*
X120097663Y-71814597D01*
X120097659Y-71814596D01*
X120097655Y-71814594D01*
X119869413Y-71753438D01*
X119869403Y-71753436D01*
X119634001Y-71732841D01*
X119633999Y-71732841D01*
X119398596Y-71753436D01*
X119398586Y-71753438D01*
X119170344Y-71814594D01*
X119170335Y-71814598D01*
X118956171Y-71914464D01*
X118956169Y-71914465D01*
X118762597Y-72050005D01*
X118595505Y-72217097D01*
X118459965Y-72410669D01*
X118459964Y-72410671D01*
X118360098Y-72624835D01*
X118360094Y-72624844D01*
X118298938Y-72853086D01*
X118298936Y-72853096D01*
X118278341Y-73088499D01*
X118278341Y-73088500D01*
X118298936Y-73323903D01*
X118298938Y-73323913D01*
X118360094Y-73552155D01*
X118360096Y-73552159D01*
X118360097Y-73552163D01*
X118459965Y-73766330D01*
X118459967Y-73766334D01*
X118595501Y-73959895D01*
X118595506Y-73959902D01*
X118762597Y-74126993D01*
X118762603Y-74126998D01*
X118948158Y-74256925D01*
X118991783Y-74311502D01*
X118998977Y-74381000D01*
X118967454Y-74443355D01*
X118948158Y-74460075D01*
X118762597Y-74590005D01*
X118595505Y-74757097D01*
X118459965Y-74950669D01*
X118459964Y-74950671D01*
X118360098Y-75164835D01*
X118360094Y-75164844D01*
X118298938Y-75393086D01*
X118298936Y-75393096D01*
X118278341Y-75628499D01*
X118278341Y-75628500D01*
X118298936Y-75863903D01*
X118298938Y-75863913D01*
X118360094Y-76092155D01*
X118360096Y-76092159D01*
X118360097Y-76092163D01*
X118450108Y-76285192D01*
X118459965Y-76306330D01*
X118459967Y-76306334D01*
X118595501Y-76499895D01*
X118595506Y-76499902D01*
X118762597Y-76666993D01*
X118762603Y-76666998D01*
X118948158Y-76796925D01*
X118991783Y-76851502D01*
X118998977Y-76921000D01*
X118967454Y-76983355D01*
X118948158Y-77000075D01*
X118762600Y-77130003D01*
X118621377Y-77271226D01*
X118560054Y-77304710D01*
X118490362Y-77299726D01*
X118446015Y-77271225D01*
X115764795Y-74590005D01*
X113025818Y-71851027D01*
X112992333Y-71789704D01*
X112989499Y-71763346D01*
X112989499Y-71669830D01*
X112989498Y-71669813D01*
X112979174Y-71568747D01*
X112967037Y-71532120D01*
X112924908Y-71404984D01*
X112834340Y-71258150D01*
X112720371Y-71144181D01*
X112686886Y-71082858D01*
X112691870Y-71013166D01*
X112720371Y-70968819D01*
X112758371Y-70930819D01*
X112819694Y-70897334D01*
X112846052Y-70894500D01*
X121849948Y-70894500D01*
X121916987Y-70914185D01*
G37*
G04 #@! TD.AperFunction*
G04 #@! TA.AperFunction,Conductor*
G36*
X112570507Y-66186344D02*
G01*
X112648239Y-66307298D01*
X112756900Y-66401452D01*
X112887685Y-66461180D01*
X112897466Y-66462586D01*
X112268625Y-67091425D01*
X112352421Y-67150099D01*
X112566507Y-67249929D01*
X112566516Y-67249933D01*
X112794673Y-67311067D01*
X112794684Y-67311069D01*
X113029998Y-67331657D01*
X113030002Y-67331657D01*
X113265315Y-67311069D01*
X113265326Y-67311067D01*
X113493483Y-67249933D01*
X113493492Y-67249929D01*
X113707578Y-67150100D01*
X113707582Y-67150098D01*
X113791373Y-67091426D01*
X113791373Y-67091425D01*
X113162533Y-66462586D01*
X113172315Y-66461180D01*
X113303100Y-66401452D01*
X113411761Y-66307298D01*
X113489493Y-66186344D01*
X113513076Y-66106024D01*
X114144925Y-66737873D01*
X114198119Y-66661905D01*
X114252696Y-66618281D01*
X114322195Y-66611088D01*
X114384549Y-66642610D01*
X114401269Y-66661905D01*
X114531505Y-66847901D01*
X114698599Y-67014995D01*
X114891624Y-67150153D01*
X114935248Y-67204728D01*
X114944500Y-67251726D01*
X114944500Y-67574308D01*
X114924815Y-67641347D01*
X114885599Y-67679845D01*
X114859152Y-67696157D01*
X114737161Y-67818148D01*
X114646593Y-67964981D01*
X114646592Y-67964984D01*
X114592326Y-68128747D01*
X114592326Y-68128748D01*
X114592325Y-68128748D01*
X114582000Y-68229815D01*
X114582000Y-68803169D01*
X114582001Y-68803187D01*
X114592325Y-68904252D01*
X114646592Y-69068015D01*
X114646593Y-69068018D01*
X114663308Y-69095117D01*
X114730717Y-69204405D01*
X114749157Y-69271795D01*
X114728235Y-69338459D01*
X114674593Y-69383229D01*
X114625178Y-69393500D01*
X112846052Y-69393500D01*
X112779013Y-69373815D01*
X112758371Y-69357181D01*
X112712351Y-69311161D01*
X112712350Y-69311160D01*
X112565516Y-69220592D01*
X112401753Y-69166326D01*
X112401751Y-69166325D01*
X112300678Y-69156000D01*
X111727330Y-69156000D01*
X111727312Y-69156001D01*
X111626247Y-69166325D01*
X111462484Y-69220592D01*
X111462477Y-69220595D01*
X111429596Y-69240877D01*
X111362204Y-69259317D01*
X111295540Y-69238394D01*
X111250771Y-69184752D01*
X111240500Y-69135338D01*
X111240500Y-67164200D01*
X111260185Y-67097161D01*
X111293375Y-67062626D01*
X111361401Y-67014995D01*
X111528495Y-66847901D01*
X111658732Y-66661903D01*
X111713307Y-66618280D01*
X111782805Y-66611086D01*
X111845160Y-66642609D01*
X111861880Y-66661905D01*
X111915073Y-66737873D01*
X112546922Y-66106023D01*
X112570507Y-66186344D01*
G37*
G04 #@! TD.AperFunction*
G04 #@! TA.AperFunction,Conductor*
G36*
X126623030Y-59373531D02*
G01*
X126629746Y-59374414D01*
X126637709Y-59375463D01*
X126711327Y-59387122D01*
X126739367Y-59395030D01*
X126763809Y-59405154D01*
X126768190Y-59407174D01*
X126815076Y-59431064D01*
X126834258Y-59443167D01*
X126853594Y-59458003D01*
X126859353Y-59462423D01*
X126865448Y-59467767D01*
X126904730Y-59507049D01*
X126910075Y-59513145D01*
X126929327Y-59538233D01*
X126941435Y-59557424D01*
X126954084Y-59582248D01*
X126965318Y-59604296D01*
X126967352Y-59608708D01*
X126977466Y-59633125D01*
X126985377Y-59661176D01*
X126985379Y-59661183D01*
X126997037Y-59734796D01*
X126998969Y-59749467D01*
X126999500Y-59757569D01*
X126999500Y-107883449D01*
X126999201Y-107889531D01*
X126996027Y-107921756D01*
X126983580Y-108032220D01*
X126979021Y-108054330D01*
X126962881Y-108107539D01*
X126935210Y-108186617D01*
X126927528Y-108204114D01*
X126899046Y-108257402D01*
X126896862Y-108261164D01*
X126853133Y-108330757D01*
X126848559Y-108337109D01*
X126806167Y-108388764D01*
X126802078Y-108393276D01*
X126744776Y-108450578D01*
X126740264Y-108454667D01*
X126688609Y-108497059D01*
X126682257Y-108501633D01*
X126612664Y-108545362D01*
X126608902Y-108547546D01*
X126555614Y-108576028D01*
X126538117Y-108583710D01*
X126459039Y-108611381D01*
X126405830Y-108627521D01*
X126383720Y-108632080D01*
X126273256Y-108644527D01*
X126241031Y-108647701D01*
X126234949Y-108648000D01*
X107445051Y-108648000D01*
X107438970Y-108647701D01*
X107406743Y-108644527D01*
X107296278Y-108632080D01*
X107274167Y-108627521D01*
X107220960Y-108611381D01*
X107141881Y-108583710D01*
X107124384Y-108576028D01*
X107104120Y-108565197D01*
X107071085Y-108547539D01*
X107067340Y-108545365D01*
X107048846Y-108533745D01*
X106997741Y-108501633D01*
X106991389Y-108497059D01*
X106939734Y-108454667D01*
X106935232Y-108450587D01*
X106877910Y-108393265D01*
X106873831Y-108388764D01*
X106831439Y-108337109D01*
X106826865Y-108330757D01*
X106821712Y-108322557D01*
X106783123Y-108261141D01*
X106780970Y-108257433D01*
X106752467Y-108204107D01*
X106744794Y-108186632D01*
X106717118Y-108107539D01*
X106700975Y-108054323D01*
X106696419Y-108032228D01*
X106683972Y-107921756D01*
X106680799Y-107889531D01*
X106680500Y-107883452D01*
X106680500Y-98014505D01*
X108355057Y-98014505D01*
X108374807Y-98328442D01*
X108374808Y-98328449D01*
X108433755Y-98637458D01*
X108530963Y-98936632D01*
X108530965Y-98936637D01*
X108664900Y-99221261D01*
X108664903Y-99221267D01*
X108833457Y-99486867D01*
X108833460Y-99486871D01*
X108924286Y-99596660D01*
X109889438Y-98631507D01*
X109938348Y-98710499D01*
X110081931Y-98868001D01*
X110240388Y-98987663D01*
X109274971Y-99953079D01*
X109274972Y-99953081D01*
X109517772Y-100129485D01*
X109517790Y-100129496D01*
X109793447Y-100281040D01*
X109793455Y-100281044D01*
X110085926Y-100396840D01*
X110390620Y-100475073D01*
X110390629Y-100475075D01*
X110702701Y-100514499D01*
X110702715Y-100514500D01*
X111017285Y-100514500D01*
X111017298Y-100514499D01*
X111329370Y-100475075D01*
X111329379Y-100475073D01*
X111634073Y-100396840D01*
X111926544Y-100281044D01*
X111926552Y-100281040D01*
X112202209Y-100129496D01*
X112202219Y-100129490D01*
X112445026Y-99953079D01*
X112445027Y-99953079D01*
X111479611Y-98987663D01*
X111638069Y-98868001D01*
X111781652Y-98710499D01*
X111830560Y-98631508D01*
X112795712Y-99596660D01*
X112886544Y-99486864D01*
X113055096Y-99221267D01*
X113055099Y-99221261D01*
X113189034Y-98936637D01*
X113189036Y-98936632D01*
X113286244Y-98637458D01*
X113345191Y-98328449D01*
X113345192Y-98328442D01*
X113364943Y-98014505D01*
X120355057Y-98014505D01*
X120374807Y-98328442D01*
X120374808Y-98328449D01*
X120433755Y-98637458D01*
X120530963Y-98936632D01*
X120530965Y-98936637D01*
X120664900Y-99221261D01*
X120664903Y-99221267D01*
X120833457Y-99486867D01*
X120833460Y-99486871D01*
X120924286Y-99596660D01*
X121889438Y-98631507D01*
X121938348Y-98710499D01*
X122081931Y-98868001D01*
X122240388Y-98987663D01*
X121274971Y-99953079D01*
X121274972Y-99953081D01*
X121517772Y-100129485D01*
X121517790Y-100129496D01*
X121793447Y-100281040D01*
X121793455Y-100281044D01*
X122085926Y-100396840D01*
X122390620Y-100475073D01*
X122390629Y-100475075D01*
X122702701Y-100514499D01*
X122702715Y-100514500D01*
X123017285Y-100514500D01*
X123017298Y-100514499D01*
X123329370Y-100475075D01*
X123329379Y-100475073D01*
X123634073Y-100396840D01*
X123926544Y-100281044D01*
X123926552Y-100281040D01*
X124202209Y-100129496D01*
X124202219Y-100129490D01*
X124445026Y-99953079D01*
X124445027Y-99953079D01*
X123479611Y-98987663D01*
X123638069Y-98868001D01*
X123781652Y-98710499D01*
X123830560Y-98631508D01*
X124795712Y-99596660D01*
X124886544Y-99486864D01*
X125055096Y-99221267D01*
X125055099Y-99221261D01*
X125189034Y-98936637D01*
X125189036Y-98936632D01*
X125286244Y-98637458D01*
X125345191Y-98328449D01*
X125345192Y-98328442D01*
X125364943Y-98014505D01*
X125364943Y-98014494D01*
X125345192Y-97700557D01*
X125345191Y-97700550D01*
X125286244Y-97391541D01*
X125189036Y-97092367D01*
X125189034Y-97092362D01*
X125055099Y-96807738D01*
X125055096Y-96807732D01*
X124886542Y-96542132D01*
X124886539Y-96542128D01*
X124795712Y-96432338D01*
X123830560Y-97397491D01*
X123781652Y-97318501D01*
X123638069Y-97160999D01*
X123479611Y-97041336D01*
X124445027Y-96075919D01*
X124445026Y-96075917D01*
X124202227Y-95899514D01*
X124202209Y-95899503D01*
X123926552Y-95747959D01*
X123926544Y-95747955D01*
X123634073Y-95632159D01*
X123329379Y-95553926D01*
X123329370Y-95553924D01*
X123017298Y-95514500D01*
X122702701Y-95514500D01*
X122390629Y-95553924D01*
X122390620Y-95553926D01*
X122085926Y-95632159D01*
X121793455Y-95747955D01*
X121793447Y-95747959D01*
X121517787Y-95899504D01*
X121517782Y-95899507D01*
X121274972Y-96075918D01*
X121274971Y-96075919D01*
X122240388Y-97041336D01*
X122081931Y-97160999D01*
X121938348Y-97318501D01*
X121889439Y-97397491D01*
X120924286Y-96432338D01*
X120924285Y-96432338D01*
X120833459Y-96542129D01*
X120833457Y-96542132D01*
X120664903Y-96807732D01*
X120664900Y-96807738D01*
X120530965Y-97092362D01*
X120530963Y-97092367D01*
X120433755Y-97391541D01*
X120374808Y-97700550D01*
X120374807Y-97700557D01*
X120355057Y-98014494D01*
X120355057Y-98014505D01*
X113364943Y-98014505D01*
X113364943Y-98014494D01*
X113345192Y-97700557D01*
X113345191Y-97700550D01*
X113286244Y-97391541D01*
X113189036Y-97092367D01*
X113189034Y-97092362D01*
X113055099Y-96807738D01*
X113055096Y-96807732D01*
X112886542Y-96542132D01*
X112886539Y-96542128D01*
X112795712Y-96432338D01*
X111830560Y-97397491D01*
X111781652Y-97318501D01*
X111638069Y-97160999D01*
X111479611Y-97041336D01*
X112445027Y-96075919D01*
X112445026Y-96075917D01*
X112202227Y-95899514D01*
X112202209Y-95899503D01*
X111926552Y-95747959D01*
X111926544Y-95747955D01*
X111634073Y-95632159D01*
X111329379Y-95553926D01*
X111329370Y-95553924D01*
X111017298Y-95514500D01*
X110702701Y-95514500D01*
X110390629Y-95553924D01*
X110390620Y-95553926D01*
X110085926Y-95632159D01*
X109793455Y-95747955D01*
X109793447Y-95747959D01*
X109517787Y-95899504D01*
X109517782Y-95899507D01*
X109274972Y-96075918D01*
X109274971Y-96075919D01*
X110240388Y-97041336D01*
X110081931Y-97160999D01*
X109938348Y-97318501D01*
X109889439Y-97397491D01*
X108924286Y-96432338D01*
X108924285Y-96432338D01*
X108833459Y-96542129D01*
X108833457Y-96542132D01*
X108664903Y-96807732D01*
X108664900Y-96807738D01*
X108530965Y-97092362D01*
X108530963Y-97092367D01*
X108433755Y-97391541D01*
X108374808Y-97700550D01*
X108374807Y-97700557D01*
X108355057Y-98014494D01*
X108355057Y-98014505D01*
X106680500Y-98014505D01*
X106680500Y-95154501D01*
X114304532Y-95154501D01*
X114324364Y-95381186D01*
X114324366Y-95381197D01*
X114383258Y-95600988D01*
X114383261Y-95600997D01*
X114479431Y-95807232D01*
X114479432Y-95807234D01*
X114609954Y-95993641D01*
X114770858Y-96154545D01*
X114770861Y-96154547D01*
X114957266Y-96285068D01*
X115163504Y-96381239D01*
X115383308Y-96440135D01*
X115545230Y-96454301D01*
X115609998Y-96459968D01*
X115610000Y-96459968D01*
X115610002Y-96459968D01*
X115666673Y-96455009D01*
X115836692Y-96440135D01*
X116056496Y-96381239D01*
X116262734Y-96285068D01*
X116449139Y-96154547D01*
X116610047Y-95993639D01*
X116740568Y-95807234D01*
X116747893Y-95791523D01*
X116794062Y-95739086D01*
X116861254Y-95719932D01*
X116928136Y-95740145D01*
X116972657Y-95791523D01*
X116979865Y-95806981D01*
X116979866Y-95806983D01*
X117030973Y-95879971D01*
X117030973Y-95879972D01*
X117647063Y-95263881D01*
X117673481Y-95353851D01*
X117747327Y-95468758D01*
X117850555Y-95558205D01*
X117974801Y-95614946D01*
X117999548Y-95618504D01*
X117384526Y-96233525D01*
X117384526Y-96233526D01*
X117457512Y-96284631D01*
X117457516Y-96284633D01*
X117663673Y-96380765D01*
X117663682Y-96380769D01*
X117883389Y-96439639D01*
X117883400Y-96439641D01*
X118109998Y-96459466D01*
X118110002Y-96459466D01*
X118336599Y-96439641D01*
X118336610Y-96439639D01*
X118556317Y-96380769D01*
X118556331Y-96380764D01*
X118762478Y-96284636D01*
X118835472Y-96233525D01*
X118220451Y-95618504D01*
X118245199Y-95614946D01*
X118369445Y-95558205D01*
X118472673Y-95468758D01*
X118546519Y-95353851D01*
X118572935Y-95263882D01*
X119189025Y-95879972D01*
X119240136Y-95806978D01*
X119336264Y-95600831D01*
X119336269Y-95600817D01*
X119395139Y-95381110D01*
X119395141Y-95381099D01*
X119414966Y-95154502D01*
X119414966Y-95154497D01*
X119395141Y-94927900D01*
X119395139Y-94927889D01*
X119336269Y-94708182D01*
X119336265Y-94708173D01*
X119240134Y-94502018D01*
X119240130Y-94502012D01*
X119231188Y-94489240D01*
X119208861Y-94423034D01*
X119225873Y-94355267D01*
X119258454Y-94318851D01*
X119267546Y-94312046D01*
X119353796Y-94196831D01*
X119404091Y-94061983D01*
X119410500Y-94002373D01*
X119410499Y-92432450D01*
X119430184Y-92365412D01*
X119446813Y-92344775D01*
X122542272Y-89249318D01*
X122603595Y-89215833D01*
X122629953Y-89212999D01*
X122968670Y-89212999D01*
X122968676Y-89212999D01*
X123069753Y-89202674D01*
X123233516Y-89148408D01*
X123380350Y-89057840D01*
X123502340Y-88935850D01*
X123592756Y-88789261D01*
X123644702Y-88742540D01*
X123713664Y-88731317D01*
X123777747Y-88759161D01*
X123803831Y-88789264D01*
X123894052Y-88935534D01*
X123894055Y-88935538D01*
X124015961Y-89057444D01*
X124015965Y-89057447D01*
X124162688Y-89147948D01*
X124162699Y-89147953D01*
X124326347Y-89202180D01*
X124427352Y-89212499D01*
X124464000Y-89212499D01*
X124464000Y-88437500D01*
X124964000Y-88437500D01*
X124964000Y-89212499D01*
X125000640Y-89212499D01*
X125000654Y-89212498D01*
X125101652Y-89202180D01*
X125265300Y-89147953D01*
X125265311Y-89147948D01*
X125412034Y-89057447D01*
X125412038Y-89057444D01*
X125533944Y-88935538D01*
X125533947Y-88935534D01*
X125624448Y-88788811D01*
X125624453Y-88788800D01*
X125678680Y-88625152D01*
X125688999Y-88524154D01*
X125689000Y-88524141D01*
X125689000Y-88437500D01*
X124964000Y-88437500D01*
X124464000Y-88437500D01*
X124464000Y-88061500D01*
X124483685Y-87994461D01*
X124536489Y-87948706D01*
X124588000Y-87937500D01*
X125688999Y-87937500D01*
X125688999Y-87850860D01*
X125688998Y-87850845D01*
X125678680Y-87749847D01*
X125624453Y-87586199D01*
X125624448Y-87586188D01*
X125533947Y-87439465D01*
X125533944Y-87439461D01*
X125495017Y-87400534D01*
X125461532Y-87339211D01*
X125466516Y-87269519D01*
X125495016Y-87225173D01*
X125534340Y-87185850D01*
X125624908Y-87039016D01*
X125679174Y-86875253D01*
X125689500Y-86774177D01*
X125689499Y-86100824D01*
X125679174Y-85999747D01*
X125624908Y-85835984D01*
X125534340Y-85689150D01*
X125412350Y-85567160D01*
X125265516Y-85476592D01*
X125101753Y-85422326D01*
X125101751Y-85422325D01*
X125000678Y-85412000D01*
X124427330Y-85412000D01*
X124427312Y-85412001D01*
X124326247Y-85422325D01*
X124162484Y-85476592D01*
X124162481Y-85476593D01*
X124015648Y-85567161D01*
X123893659Y-85689150D01*
X123854218Y-85753096D01*
X123802270Y-85799821D01*
X123748679Y-85812000D01*
X123647321Y-85812000D01*
X123580282Y-85792315D01*
X123541782Y-85753096D01*
X123502340Y-85689150D01*
X123380351Y-85567161D01*
X123380350Y-85567160D01*
X123233516Y-85476592D01*
X123069753Y-85422326D01*
X123069751Y-85422325D01*
X122968678Y-85412000D01*
X122395330Y-85412000D01*
X122395312Y-85412001D01*
X122294247Y-85422325D01*
X122130484Y-85476592D01*
X122130481Y-85476593D01*
X121983648Y-85567161D01*
X121861661Y-85689148D01*
X121771093Y-85835981D01*
X121771092Y-85835984D01*
X121716826Y-85999747D01*
X121716826Y-85999748D01*
X121716825Y-85999748D01*
X121706500Y-86100815D01*
X121706500Y-86699169D01*
X121706501Y-86699187D01*
X121716825Y-86800252D01*
X121771092Y-86964015D01*
X121771093Y-86964018D01*
X121861661Y-87110851D01*
X121975629Y-87224819D01*
X122009114Y-87286142D01*
X122004130Y-87355834D01*
X121975629Y-87400181D01*
X121861661Y-87514148D01*
X121771093Y-87660981D01*
X121771092Y-87660984D01*
X121716826Y-87824747D01*
X121716826Y-87824748D01*
X121716825Y-87824748D01*
X121706500Y-87925815D01*
X121706500Y-88264546D01*
X121686815Y-88331585D01*
X121670181Y-88352227D01*
X118655028Y-91367381D01*
X118593705Y-91400866D01*
X118567347Y-91403700D01*
X118180847Y-91403700D01*
X118157615Y-91401504D01*
X118149588Y-91399973D01*
X118149586Y-91399973D01*
X118140633Y-91400536D01*
X118092275Y-91403578D01*
X118088403Y-91403700D01*
X118070643Y-91403700D01*
X118053032Y-91405925D01*
X118049164Y-91406290D01*
X118017375Y-91408290D01*
X117991859Y-91409896D01*
X117984085Y-91412422D01*
X117961320Y-91417510D01*
X117953218Y-91418533D01*
X117953205Y-91418537D01*
X117899810Y-91439677D01*
X117896154Y-91440992D01*
X117841559Y-91458733D01*
X117841556Y-91458734D01*
X117834652Y-91463115D01*
X117813880Y-91473699D01*
X117806273Y-91476711D01*
X117806262Y-91476717D01*
X117759814Y-91510463D01*
X117756595Y-91512651D01*
X117708123Y-91543413D01*
X117708120Y-91543416D01*
X117702529Y-91549370D01*
X117685029Y-91564799D01*
X117678413Y-91569605D01*
X117678412Y-91569606D01*
X117641812Y-91613846D01*
X117639238Y-91616765D01*
X117599937Y-91658617D01*
X117599935Y-91658620D01*
X117595994Y-91665789D01*
X117582889Y-91685073D01*
X117577677Y-91691373D01*
X117577674Y-91691378D01*
X117553230Y-91743322D01*
X117551463Y-91746790D01*
X117527856Y-91789735D01*
X117478311Y-91839000D01*
X117419193Y-91854000D01*
X117262130Y-91854000D01*
X117262123Y-91854001D01*
X117202516Y-91860408D01*
X117067671Y-91910702D01*
X117067664Y-91910706D01*
X116952455Y-91996952D01*
X116952452Y-91996955D01*
X116866206Y-92112164D01*
X116866202Y-92112171D01*
X116815909Y-92247013D01*
X116814632Y-92252422D01*
X116780058Y-92313138D01*
X116718147Y-92345523D01*
X116648556Y-92339296D01*
X116606274Y-92311587D01*
X116449141Y-92154454D01*
X116262734Y-92023932D01*
X116262732Y-92023931D01*
X116056497Y-91927761D01*
X116056488Y-91927758D01*
X115836697Y-91868866D01*
X115836693Y-91868865D01*
X115836692Y-91868865D01*
X115836691Y-91868864D01*
X115836686Y-91868864D01*
X115610002Y-91849032D01*
X115609998Y-91849032D01*
X115383313Y-91868864D01*
X115383302Y-91868866D01*
X115163511Y-91927758D01*
X115163502Y-91927761D01*
X114957267Y-92023931D01*
X114957265Y-92023932D01*
X114770858Y-92154454D01*
X114609954Y-92315358D01*
X114479432Y-92501765D01*
X114479431Y-92501767D01*
X114383261Y-92708002D01*
X114383258Y-92708011D01*
X114324366Y-92927802D01*
X114324364Y-92927813D01*
X114304532Y-93154498D01*
X114304532Y-93154501D01*
X114324364Y-93381186D01*
X114324366Y-93381197D01*
X114383258Y-93600988D01*
X114383261Y-93600997D01*
X114479431Y-93807232D01*
X114479432Y-93807234D01*
X114609954Y-93993641D01*
X114683132Y-94066819D01*
X114716617Y-94128142D01*
X114711633Y-94197834D01*
X114683132Y-94242181D01*
X114609954Y-94315358D01*
X114479432Y-94501765D01*
X114479431Y-94501767D01*
X114383261Y-94708002D01*
X114383258Y-94708011D01*
X114324366Y-94927802D01*
X114324364Y-94927813D01*
X114304532Y-95154498D01*
X114304532Y-95154501D01*
X106680500Y-95154501D01*
X106680500Y-89594500D01*
X109606001Y-89594500D01*
X109606001Y-89631154D01*
X109616319Y-89732152D01*
X109670546Y-89895800D01*
X109670551Y-89895811D01*
X109761052Y-90042534D01*
X109761055Y-90042538D01*
X109882961Y-90164444D01*
X109882965Y-90164447D01*
X110029688Y-90254948D01*
X110029699Y-90254953D01*
X110193347Y-90309180D01*
X110294351Y-90319499D01*
X110393500Y-90319498D01*
X110393500Y-89594500D01*
X109606001Y-89594500D01*
X106680500Y-89594500D01*
X106680500Y-89094500D01*
X109606000Y-89094500D01*
X110393500Y-89094500D01*
X110393500Y-88369499D01*
X110294360Y-88369500D01*
X110294344Y-88369501D01*
X110193347Y-88379819D01*
X110029699Y-88434046D01*
X110029688Y-88434051D01*
X109882965Y-88524552D01*
X109882961Y-88524555D01*
X109761055Y-88646461D01*
X109761052Y-88646465D01*
X109670551Y-88793188D01*
X109670546Y-88793199D01*
X109616319Y-88956847D01*
X109606000Y-89057845D01*
X109606000Y-89094500D01*
X106680500Y-89094500D01*
X106680500Y-85040500D01*
X108682000Y-85040500D01*
X108682000Y-85928344D01*
X108688401Y-85987872D01*
X108688403Y-85987879D01*
X108738645Y-86122586D01*
X108738649Y-86122593D01*
X108824809Y-86237687D01*
X108824812Y-86237690D01*
X108939906Y-86323850D01*
X108939913Y-86323854D01*
X109074620Y-86374096D01*
X109074627Y-86374098D01*
X109134155Y-86380499D01*
X109134172Y-86380500D01*
X109732000Y-86380500D01*
X109732000Y-85040500D01*
X110232000Y-85040500D01*
X110232000Y-86380500D01*
X110829828Y-86380500D01*
X110829844Y-86380499D01*
X110889372Y-86374098D01*
X110889379Y-86374096D01*
X111024086Y-86323854D01*
X111024093Y-86323850D01*
X111139187Y-86237690D01*
X111139190Y-86237687D01*
X111225350Y-86122593D01*
X111225354Y-86122586D01*
X111275596Y-85987879D01*
X111275598Y-85987872D01*
X111281999Y-85928344D01*
X111282000Y-85928327D01*
X111282000Y-85040500D01*
X110232000Y-85040500D01*
X109732000Y-85040500D01*
X108682000Y-85040500D01*
X106680500Y-85040500D01*
X106680500Y-84540500D01*
X108682000Y-84540500D01*
X109732000Y-84540500D01*
X109732000Y-83200500D01*
X110232000Y-83200500D01*
X110232000Y-84540500D01*
X111282000Y-84540500D01*
X111282000Y-83652672D01*
X111281999Y-83652655D01*
X111275598Y-83593127D01*
X111275596Y-83593120D01*
X111225354Y-83458413D01*
X111225350Y-83458406D01*
X111139190Y-83343312D01*
X111139187Y-83343309D01*
X111024093Y-83257149D01*
X111024086Y-83257145D01*
X110889379Y-83206903D01*
X110889372Y-83206901D01*
X110829844Y-83200500D01*
X110232000Y-83200500D01*
X109732000Y-83200500D01*
X109134155Y-83200500D01*
X109074627Y-83206901D01*
X109074620Y-83206903D01*
X108939913Y-83257145D01*
X108939906Y-83257149D01*
X108824812Y-83343309D01*
X108824809Y-83343312D01*
X108738649Y-83458406D01*
X108738645Y-83458413D01*
X108688403Y-83593120D01*
X108688401Y-83593127D01*
X108682000Y-83652655D01*
X108682000Y-84540500D01*
X106680500Y-84540500D01*
X106680500Y-65626294D01*
X108528540Y-65626294D01*
X108532925Y-65672682D01*
X108533200Y-65678520D01*
X108533200Y-71062955D01*
X108531475Y-71078572D01*
X108531761Y-71078599D01*
X108531026Y-71086365D01*
X108533200Y-71155514D01*
X108533200Y-71185043D01*
X108533201Y-71185060D01*
X108534068Y-71191931D01*
X108534526Y-71197750D01*
X108535990Y-71244324D01*
X108535991Y-71244327D01*
X108541580Y-71263567D01*
X108545524Y-71282611D01*
X108548036Y-71302491D01*
X108565190Y-71345819D01*
X108567082Y-71351347D01*
X108580081Y-71396088D01*
X108590280Y-71413334D01*
X108598838Y-71430803D01*
X108606214Y-71449432D01*
X108633598Y-71487123D01*
X108636806Y-71492007D01*
X108660527Y-71532116D01*
X108660533Y-71532124D01*
X108674690Y-71546280D01*
X108687328Y-71561076D01*
X108699105Y-71577286D01*
X108699106Y-71577287D01*
X108735009Y-71606988D01*
X108739320Y-71610910D01*
X108861251Y-71732841D01*
X108970181Y-71841771D01*
X109003666Y-71903094D01*
X109006500Y-71929452D01*
X109006500Y-72268168D01*
X109006501Y-72268187D01*
X109016825Y-72369252D01*
X109053109Y-72478749D01*
X109071092Y-72533016D01*
X109161660Y-72679850D01*
X109283650Y-72801840D01*
X109295463Y-72809126D01*
X109297596Y-72810442D01*
X109344321Y-72862390D01*
X109356500Y-72915981D01*
X109356500Y-73896000D01*
X109336815Y-73963039D01*
X109284011Y-74008794D01*
X109232501Y-74020000D01*
X109134130Y-74020000D01*
X109134123Y-74020001D01*
X109074516Y-74026408D01*
X108939671Y-74076702D01*
X108939664Y-74076706D01*
X108824455Y-74162952D01*
X108824452Y-74162955D01*
X108738206Y-74278164D01*
X108738202Y-74278171D01*
X108687908Y-74413017D01*
X108681501Y-74472616D01*
X108681500Y-74472635D01*
X108681500Y-76748370D01*
X108681501Y-76748376D01*
X108687908Y-76807983D01*
X108738202Y-76942828D01*
X108738206Y-76942835D01*
X108824452Y-77058044D01*
X108824455Y-77058047D01*
X108939664Y-77144293D01*
X108939671Y-77144297D01*
X109074517Y-77194591D01*
X109074516Y-77194591D01*
X109081444Y-77195335D01*
X109134127Y-77201000D01*
X110829872Y-77200999D01*
X110889483Y-77194591D01*
X111024331Y-77144296D01*
X111139546Y-77058046D01*
X111225796Y-76942831D01*
X111276091Y-76807983D01*
X111282500Y-76748373D01*
X111282499Y-75014927D01*
X111302184Y-74947889D01*
X111354987Y-74902134D01*
X111424146Y-74892190D01*
X111487702Y-74921215D01*
X111494180Y-74927247D01*
X111581681Y-75014748D01*
X111615166Y-75076071D01*
X111618000Y-75102429D01*
X111618000Y-88439155D01*
X111598315Y-88506194D01*
X111545511Y-88551949D01*
X111476353Y-88561893D01*
X111412797Y-88532868D01*
X111406319Y-88526836D01*
X111404038Y-88524555D01*
X111404034Y-88524552D01*
X111257311Y-88434051D01*
X111257300Y-88434046D01*
X111093652Y-88379819D01*
X110992654Y-88369500D01*
X110893500Y-88369500D01*
X110893500Y-90319499D01*
X110992640Y-90319499D01*
X110992654Y-90319498D01*
X111093652Y-90309180D01*
X111257300Y-90254953D01*
X111257311Y-90254948D01*
X111404035Y-90164447D01*
X111417960Y-90150521D01*
X111479282Y-90117033D01*
X111548973Y-90122014D01*
X111593327Y-90150517D01*
X111607650Y-90164840D01*
X111754484Y-90255408D01*
X111918247Y-90309674D01*
X112019323Y-90320000D01*
X112226623Y-90319999D01*
X112293663Y-90339683D01*
X112321775Y-90365926D01*
X112321934Y-90365777D01*
X112324284Y-90368268D01*
X112326086Y-90369950D01*
X112326890Y-90371030D01*
X112366920Y-90404619D01*
X112370892Y-90408259D01*
X112376723Y-90414090D01*
X112402439Y-90434423D01*
X112461286Y-90483802D01*
X112461288Y-90483803D01*
X112467323Y-90487772D01*
X112467289Y-90487822D01*
X112473644Y-90491870D01*
X112473677Y-90491818D01*
X112479819Y-90495607D01*
X112479823Y-90495610D01*
X112543682Y-90525388D01*
X112549414Y-90528061D01*
X112618058Y-90562536D01*
X112618061Y-90562537D01*
X112618067Y-90562540D01*
X112618072Y-90562541D01*
X112624855Y-90565010D01*
X112624834Y-90565067D01*
X112631951Y-90567540D01*
X112631970Y-90567484D01*
X112638830Y-90569757D01*
X112714032Y-90585284D01*
X112788779Y-90603000D01*
X112788788Y-90603000D01*
X112795952Y-90603838D01*
X112795945Y-90603897D01*
X112803446Y-90604663D01*
X112803452Y-90604604D01*
X112810640Y-90605233D01*
X112810643Y-90605232D01*
X112810644Y-90605233D01*
X112887398Y-90603000D01*
X115030663Y-90603000D01*
X115097702Y-90622685D01*
X115103548Y-90626682D01*
X115117265Y-90636648D01*
X115117270Y-90636651D01*
X115290192Y-90713642D01*
X115290197Y-90713644D01*
X115475354Y-90753000D01*
X115475355Y-90753000D01*
X115664644Y-90753000D01*
X115664646Y-90753000D01*
X115849803Y-90713644D01*
X116022730Y-90636651D01*
X116175871Y-90525388D01*
X116302533Y-90384716D01*
X116397179Y-90220784D01*
X116455674Y-90040756D01*
X116475460Y-89852500D01*
X116455674Y-89664244D01*
X116397179Y-89484216D01*
X116302533Y-89320284D01*
X116175871Y-89179612D01*
X116175870Y-89179611D01*
X116022734Y-89068351D01*
X116022729Y-89068348D01*
X115849807Y-88991357D01*
X115849802Y-88991355D01*
X115704001Y-88960365D01*
X115664646Y-88952000D01*
X115475354Y-88952000D01*
X115442897Y-88958898D01*
X115290197Y-88991355D01*
X115290192Y-88991357D01*
X115117270Y-89068348D01*
X115117265Y-89068351D01*
X115103548Y-89078318D01*
X115037742Y-89101798D01*
X115030663Y-89102000D01*
X113522990Y-89102000D01*
X113455951Y-89082315D01*
X113410196Y-89029511D01*
X113399632Y-88990601D01*
X113396174Y-88956747D01*
X113341908Y-88792984D01*
X113251340Y-88646150D01*
X113155319Y-88550129D01*
X113121834Y-88488806D01*
X113119000Y-88462448D01*
X113119000Y-74803905D01*
X113120309Y-74785935D01*
X113120723Y-74783105D01*
X113123789Y-74762177D01*
X113119235Y-74710133D01*
X113119000Y-74704732D01*
X113119000Y-74696496D01*
X113119000Y-74696491D01*
X113115191Y-74663905D01*
X113108498Y-74587403D01*
X113108495Y-74587394D01*
X113107038Y-74580335D01*
X113107098Y-74580322D01*
X113105466Y-74572964D01*
X113105408Y-74572978D01*
X113103741Y-74565947D01*
X113103741Y-74565945D01*
X113077469Y-74493763D01*
X113070468Y-74472635D01*
X113053315Y-74420868D01*
X113050262Y-74414321D01*
X113050315Y-74414295D01*
X113047031Y-74407511D01*
X113046979Y-74407538D01*
X113043736Y-74401082D01*
X113001534Y-74336916D01*
X112961214Y-74271547D01*
X112956734Y-74265881D01*
X112956780Y-74265843D01*
X112952019Y-74259999D01*
X112951974Y-74260038D01*
X112947334Y-74254508D01*
X112891482Y-74201813D01*
X111858348Y-73168680D01*
X111824863Y-73107357D01*
X111829847Y-73037665D01*
X111871719Y-72981732D01*
X111937183Y-72957315D01*
X111946029Y-72956999D01*
X112300672Y-72956999D01*
X112300676Y-72956999D01*
X112300679Y-72956998D01*
X112303835Y-72956838D01*
X112303909Y-72958301D01*
X112366935Y-72970012D01*
X112398534Y-72992924D01*
X117957897Y-78552288D01*
X117967722Y-78564551D01*
X117967943Y-78564369D01*
X117972914Y-78570378D01*
X117992927Y-78589171D01*
X118023335Y-78617726D01*
X118044229Y-78638620D01*
X118049711Y-78642873D01*
X118054143Y-78646657D01*
X118088118Y-78678562D01*
X118105676Y-78688214D01*
X118121933Y-78698893D01*
X118137764Y-78711173D01*
X118157437Y-78719686D01*
X118180533Y-78729682D01*
X118185777Y-78732250D01*
X118226608Y-78754697D01*
X118232307Y-78756160D01*
X118246005Y-78759677D01*
X118264419Y-78765981D01*
X118282804Y-78773938D01*
X118328857Y-78781232D01*
X118334526Y-78782406D01*
X118379681Y-78794000D01*
X118379684Y-78794000D01*
X118387239Y-78795940D01*
X118386450Y-78799010D01*
X118437077Y-78821086D01*
X118459075Y-78845059D01*
X118459965Y-78846330D01*
X118595505Y-79039901D01*
X118595506Y-79039902D01*
X118717818Y-79162214D01*
X118751303Y-79223537D01*
X118746319Y-79293229D01*
X118704447Y-79349162D01*
X118673471Y-79366077D01*
X118541912Y-79415146D01*
X118541906Y-79415149D01*
X118426812Y-79501309D01*
X118426809Y-79501312D01*
X118340649Y-79616406D01*
X118340645Y-79616413D01*
X118290403Y-79751120D01*
X118290401Y-79751127D01*
X118284000Y-79810655D01*
X118284000Y-80458500D01*
X119200314Y-80458500D01*
X119174507Y-80498656D01*
X119134000Y-80636611D01*
X119134000Y-80780389D01*
X119174507Y-80918344D01*
X119200314Y-80958500D01*
X118284000Y-80958500D01*
X118284000Y-81606344D01*
X118290401Y-81665872D01*
X118290403Y-81665879D01*
X118340645Y-81800586D01*
X118340649Y-81800593D01*
X118426809Y-81915687D01*
X118426812Y-81915690D01*
X118541906Y-82001850D01*
X118541913Y-82001854D01*
X118676620Y-82052096D01*
X118676627Y-82052098D01*
X118736155Y-82058499D01*
X118736172Y-82058500D01*
X119384000Y-82058500D01*
X119384000Y-81144001D01*
X119491685Y-81193180D01*
X119598237Y-81208500D01*
X119669763Y-81208500D01*
X119776315Y-81193180D01*
X119884000Y-81144001D01*
X119884000Y-82058500D01*
X120531828Y-82058500D01*
X120531844Y-82058499D01*
X120591372Y-82052098D01*
X120591379Y-82052096D01*
X120726086Y-82001854D01*
X120726093Y-82001850D01*
X120841187Y-81915690D01*
X120841190Y-81915687D01*
X120927350Y-81800593D01*
X120927354Y-81800586D01*
X120977596Y-81665879D01*
X120977598Y-81665872D01*
X120983999Y-81606344D01*
X120984000Y-81606327D01*
X120984000Y-80958500D01*
X120067686Y-80958500D01*
X120093493Y-80918344D01*
X120134000Y-80780389D01*
X120134000Y-80636611D01*
X120093493Y-80498656D01*
X120067686Y-80458500D01*
X120984000Y-80458500D01*
X120984000Y-79810672D01*
X120983999Y-79810655D01*
X120977598Y-79751127D01*
X120977596Y-79751120D01*
X120927354Y-79616413D01*
X120927350Y-79616406D01*
X120841190Y-79501312D01*
X120841187Y-79501309D01*
X120726093Y-79415149D01*
X120726088Y-79415146D01*
X120594528Y-79366077D01*
X120538595Y-79324205D01*
X120514178Y-79258741D01*
X120529030Y-79190468D01*
X120550175Y-79162220D01*
X120672495Y-79039901D01*
X120808035Y-78846330D01*
X120907903Y-78632163D01*
X120969063Y-78403908D01*
X120989659Y-78168500D01*
X120989287Y-78164253D01*
X120980444Y-78063176D01*
X120969063Y-77933092D01*
X120907903Y-77704837D01*
X120808035Y-77490671D01*
X120789937Y-77464823D01*
X120672494Y-77297097D01*
X120505402Y-77130006D01*
X120505396Y-77130001D01*
X120319842Y-77000075D01*
X120276217Y-76945498D01*
X120269023Y-76876000D01*
X120300546Y-76813645D01*
X120319842Y-76796925D01*
X120389183Y-76748372D01*
X120505401Y-76666995D01*
X120672495Y-76499901D01*
X120808035Y-76306330D01*
X120907903Y-76092163D01*
X120969063Y-75863908D01*
X120989659Y-75628500D01*
X120969063Y-75393092D01*
X120907903Y-75164837D01*
X120808035Y-74950671D01*
X120808034Y-74950669D01*
X120808033Y-74950667D01*
X120775827Y-74904673D01*
X120753499Y-74838467D01*
X120770509Y-74770700D01*
X120789716Y-74745872D01*
X122542272Y-72993318D01*
X122603595Y-72959833D01*
X122629953Y-72956999D01*
X122968670Y-72956999D01*
X122968676Y-72956999D01*
X123069753Y-72946674D01*
X123233516Y-72892408D01*
X123380350Y-72801840D01*
X123502340Y-72679850D01*
X123537861Y-72622260D01*
X123589809Y-72575536D01*
X123658771Y-72564313D01*
X123722854Y-72592157D01*
X123761710Y-72650225D01*
X123767400Y-72687357D01*
X123767400Y-75742646D01*
X123747715Y-75809685D01*
X123731081Y-75830327D01*
X122821726Y-76739681D01*
X122760403Y-76773166D01*
X122734045Y-76776000D01*
X122395331Y-76776000D01*
X122395312Y-76776001D01*
X122294247Y-76786325D01*
X122130484Y-76840592D01*
X122130481Y-76840593D01*
X121983648Y-76931161D01*
X121861661Y-77053148D01*
X121771093Y-77199981D01*
X121771091Y-77199986D01*
X121770755Y-77201000D01*
X121716826Y-77363747D01*
X121716826Y-77363748D01*
X121716825Y-77363748D01*
X121706500Y-77464815D01*
X121706500Y-78063169D01*
X121706501Y-78063187D01*
X121716825Y-78164252D01*
X121771092Y-78328015D01*
X121771093Y-78328018D01*
X121861661Y-78474851D01*
X121975629Y-78588819D01*
X122009114Y-78650142D01*
X122004130Y-78719834D01*
X121975629Y-78764181D01*
X121861661Y-78878148D01*
X121771093Y-79024981D01*
X121771091Y-79024986D01*
X121743719Y-79107588D01*
X121716826Y-79188747D01*
X121716826Y-79188748D01*
X121716825Y-79188748D01*
X121706500Y-79289815D01*
X121706500Y-79888169D01*
X121706501Y-79888187D01*
X121716825Y-79989252D01*
X121751972Y-80095317D01*
X121771092Y-80153016D01*
X121861660Y-80299850D01*
X121983650Y-80421840D01*
X122130484Y-80512408D01*
X122294247Y-80566674D01*
X122395323Y-80577000D01*
X122968676Y-80576999D01*
X122968684Y-80576998D01*
X122968687Y-80576998D01*
X123024030Y-80571344D01*
X123069753Y-80566674D01*
X123233516Y-80512408D01*
X123380350Y-80421840D01*
X123502340Y-80299850D01*
X123592756Y-80153261D01*
X123644702Y-80106540D01*
X123713664Y-80095317D01*
X123777747Y-80123161D01*
X123803831Y-80153264D01*
X123894052Y-80299534D01*
X123894055Y-80299538D01*
X124015961Y-80421444D01*
X124015965Y-80421447D01*
X124162688Y-80511948D01*
X124162699Y-80511953D01*
X124326347Y-80566180D01*
X124427352Y-80576499D01*
X124464000Y-80576499D01*
X124464000Y-79801500D01*
X124964000Y-79801500D01*
X124964000Y-80576499D01*
X125000640Y-80576499D01*
X125000654Y-80576498D01*
X125101652Y-80566180D01*
X125265300Y-80511953D01*
X125265311Y-80511948D01*
X125412034Y-80421447D01*
X125412038Y-80421444D01*
X125533944Y-80299538D01*
X125533947Y-80299534D01*
X125624448Y-80152811D01*
X125624453Y-80152800D01*
X125678680Y-79989152D01*
X125688999Y-79888154D01*
X125689000Y-79888141D01*
X125689000Y-79801500D01*
X124964000Y-79801500D01*
X124464000Y-79801500D01*
X124464000Y-79425500D01*
X124483685Y-79358461D01*
X124536489Y-79312706D01*
X124588000Y-79301500D01*
X125688999Y-79301500D01*
X125688999Y-79214860D01*
X125688998Y-79214845D01*
X125678680Y-79113847D01*
X125624453Y-78950199D01*
X125624448Y-78950188D01*
X125533947Y-78803465D01*
X125533944Y-78803461D01*
X125495017Y-78764534D01*
X125461532Y-78703211D01*
X125466516Y-78633519D01*
X125495016Y-78589173D01*
X125534340Y-78549850D01*
X125624908Y-78403016D01*
X125679174Y-78239253D01*
X125689500Y-78138177D01*
X125689499Y-77464824D01*
X125679174Y-77363747D01*
X125624908Y-77199984D01*
X125534340Y-77053150D01*
X125412350Y-76931160D01*
X125265516Y-76840592D01*
X125101753Y-76786326D01*
X125101751Y-76786325D01*
X125000684Y-76776000D01*
X125000677Y-76776000D01*
X124853952Y-76776000D01*
X124786913Y-76756315D01*
X124741158Y-76703511D01*
X124731214Y-76634353D01*
X124760239Y-76570797D01*
X124766267Y-76564323D01*
X124776684Y-76553905D01*
X124788942Y-76544086D01*
X124788759Y-76543864D01*
X124794766Y-76538892D01*
X124794777Y-76538886D01*
X124831392Y-76499895D01*
X124842127Y-76488464D01*
X124852571Y-76478018D01*
X124863020Y-76467571D01*
X124867279Y-76462078D01*
X124871052Y-76457661D01*
X124902962Y-76423682D01*
X124912615Y-76406120D01*
X124923289Y-76389870D01*
X124935573Y-76374036D01*
X124954080Y-76331267D01*
X124956649Y-76326024D01*
X124979096Y-76285193D01*
X124979097Y-76285192D01*
X124984077Y-76265791D01*
X124990378Y-76247388D01*
X124998338Y-76228996D01*
X125005630Y-76182949D01*
X125006811Y-76177252D01*
X125018400Y-76132119D01*
X125018400Y-76112083D01*
X125019927Y-76092682D01*
X125023060Y-76072904D01*
X125018675Y-76026515D01*
X125018400Y-76020677D01*
X125018400Y-65089442D01*
X125020124Y-65073822D01*
X125019839Y-65073796D01*
X125020571Y-65066040D01*
X125020573Y-65066033D01*
X125018400Y-64996885D01*
X125018400Y-64967350D01*
X125017531Y-64960472D01*
X125017072Y-64954643D01*
X125016545Y-64937883D01*
X125015609Y-64908073D01*
X125010022Y-64888844D01*
X125006074Y-64869784D01*
X125003563Y-64849904D01*
X124986412Y-64806587D01*
X124984519Y-64801058D01*
X124971518Y-64756309D01*
X124971516Y-64756306D01*
X124961323Y-64739071D01*
X124952761Y-64721594D01*
X124945387Y-64702970D01*
X124945386Y-64702968D01*
X124917979Y-64665245D01*
X124914788Y-64660386D01*
X124914265Y-64659502D01*
X124891070Y-64620280D01*
X124891069Y-64620279D01*
X124891066Y-64620275D01*
X124876907Y-64606117D01*
X124864270Y-64591322D01*
X124852494Y-64575113D01*
X124816590Y-64545410D01*
X124812268Y-64541477D01*
X124498806Y-64228016D01*
X124488981Y-64215752D01*
X124488760Y-64215936D01*
X124483781Y-64209917D01*
X124434936Y-64164049D01*
X124399541Y-64103809D01*
X124402333Y-64033995D01*
X124407431Y-64021265D01*
X124463903Y-63900163D01*
X124525063Y-63671908D01*
X124545659Y-63436500D01*
X124525063Y-63201092D01*
X124463903Y-62972837D01*
X124364035Y-62758671D01*
X124358731Y-62751095D01*
X124228494Y-62565097D01*
X124061402Y-62398006D01*
X124061395Y-62398001D01*
X123867834Y-62262467D01*
X123867830Y-62262465D01*
X123867828Y-62262464D01*
X123653663Y-62162597D01*
X123653659Y-62162596D01*
X123653655Y-62162594D01*
X123425413Y-62101438D01*
X123425403Y-62101436D01*
X123190001Y-62080841D01*
X123189999Y-62080841D01*
X122954596Y-62101436D01*
X122954586Y-62101438D01*
X122726344Y-62162594D01*
X122726335Y-62162598D01*
X122512171Y-62262464D01*
X122512169Y-62262465D01*
X122318597Y-62398005D01*
X122151505Y-62565097D01*
X122021575Y-62750658D01*
X121966998Y-62794283D01*
X121897500Y-62801477D01*
X121835145Y-62769954D01*
X121818425Y-62750658D01*
X121688494Y-62565097D01*
X121521402Y-62398006D01*
X121521395Y-62398001D01*
X121327834Y-62262467D01*
X121327830Y-62262465D01*
X121327828Y-62262464D01*
X121113663Y-62162597D01*
X121113659Y-62162596D01*
X121113655Y-62162594D01*
X120885413Y-62101438D01*
X120885403Y-62101436D01*
X120650001Y-62080841D01*
X120649999Y-62080841D01*
X120414596Y-62101436D01*
X120414586Y-62101438D01*
X120186344Y-62162594D01*
X120186335Y-62162598D01*
X119972171Y-62262464D01*
X119972169Y-62262465D01*
X119778597Y-62398005D01*
X119611505Y-62565097D01*
X119481575Y-62750658D01*
X119426998Y-62794283D01*
X119357500Y-62801477D01*
X119295145Y-62769954D01*
X119278425Y-62750658D01*
X119148494Y-62565097D01*
X118981402Y-62398006D01*
X118981395Y-62398001D01*
X118787834Y-62262467D01*
X118787830Y-62262465D01*
X118787828Y-62262464D01*
X118573663Y-62162597D01*
X118573659Y-62162596D01*
X118573655Y-62162594D01*
X118345413Y-62101438D01*
X118345403Y-62101436D01*
X118110001Y-62080841D01*
X118109999Y-62080841D01*
X117874596Y-62101436D01*
X117874586Y-62101438D01*
X117646344Y-62162594D01*
X117646335Y-62162598D01*
X117432171Y-62262464D01*
X117432169Y-62262465D01*
X117238597Y-62398005D01*
X117071505Y-62565097D01*
X116941575Y-62750658D01*
X116886998Y-62794283D01*
X116817500Y-62801477D01*
X116755145Y-62769954D01*
X116738425Y-62750658D01*
X116608494Y-62565097D01*
X116441402Y-62398006D01*
X116441395Y-62398001D01*
X116247834Y-62262467D01*
X116247830Y-62262465D01*
X116247828Y-62262464D01*
X116033663Y-62162597D01*
X116033659Y-62162596D01*
X116033655Y-62162594D01*
X115805413Y-62101438D01*
X115805403Y-62101436D01*
X115570001Y-62080841D01*
X115569999Y-62080841D01*
X115334596Y-62101436D01*
X115334586Y-62101438D01*
X115106344Y-62162594D01*
X115106335Y-62162598D01*
X114892171Y-62262464D01*
X114892169Y-62262465D01*
X114698597Y-62398005D01*
X114531505Y-62565097D01*
X114401269Y-62751095D01*
X114346692Y-62794720D01*
X114277194Y-62801914D01*
X114214839Y-62770391D01*
X114198119Y-62751095D01*
X114144925Y-62675126D01*
X114144925Y-62675125D01*
X113513076Y-63306974D01*
X113489493Y-63226656D01*
X113411761Y-63105702D01*
X113303100Y-63011548D01*
X113172315Y-62951820D01*
X113162533Y-62950413D01*
X113791373Y-62321573D01*
X113791373Y-62321572D01*
X113707583Y-62262902D01*
X113707579Y-62262900D01*
X113493492Y-62163070D01*
X113493483Y-62163066D01*
X113265326Y-62101932D01*
X113265315Y-62101930D01*
X113030002Y-62081343D01*
X113029998Y-62081343D01*
X112794684Y-62101930D01*
X112794673Y-62101932D01*
X112566516Y-62163066D01*
X112566507Y-62163070D01*
X112352419Y-62262901D01*
X112268625Y-62321572D01*
X112897466Y-62950413D01*
X112887685Y-62951820D01*
X112756900Y-63011548D01*
X112648239Y-63105702D01*
X112570507Y-63226656D01*
X112546923Y-63306976D01*
X111915073Y-62675126D01*
X111861881Y-62751094D01*
X111807304Y-62794719D01*
X111737806Y-62801913D01*
X111675451Y-62770391D01*
X111658730Y-62751094D01*
X111528494Y-62565097D01*
X111361402Y-62398006D01*
X111361395Y-62398001D01*
X111167834Y-62262467D01*
X111167830Y-62262465D01*
X111167828Y-62262464D01*
X110953663Y-62162597D01*
X110953659Y-62162596D01*
X110953655Y-62162594D01*
X110725413Y-62101438D01*
X110725403Y-62101436D01*
X110490001Y-62080841D01*
X110489999Y-62080841D01*
X110254596Y-62101436D01*
X110254586Y-62101438D01*
X110026344Y-62162594D01*
X110026335Y-62162598D01*
X109812171Y-62262464D01*
X109812169Y-62262465D01*
X109618597Y-62398005D01*
X109451505Y-62565097D01*
X109315965Y-62758669D01*
X109315964Y-62758671D01*
X109216098Y-62972835D01*
X109216094Y-62972844D01*
X109154938Y-63201086D01*
X109154936Y-63201096D01*
X109134341Y-63436499D01*
X109134341Y-63436500D01*
X109154936Y-63671903D01*
X109154938Y-63671913D01*
X109216094Y-63900155D01*
X109216096Y-63900159D01*
X109216097Y-63900163D01*
X109272562Y-64021252D01*
X109315965Y-64114330D01*
X109315967Y-64114334D01*
X109451507Y-64307904D01*
X109451838Y-64308299D01*
X109451929Y-64308507D01*
X109454610Y-64312336D01*
X109453840Y-64312874D01*
X109479848Y-64372308D01*
X109468805Y-64441300D01*
X109444526Y-64475681D01*
X108774908Y-65145298D01*
X108762651Y-65155119D01*
X108762834Y-65155340D01*
X108756823Y-65160312D01*
X108709472Y-65210735D01*
X108688589Y-65231618D01*
X108688577Y-65231631D01*
X108684321Y-65237116D01*
X108680537Y-65241546D01*
X108648637Y-65275517D01*
X108648636Y-65275519D01*
X108638984Y-65293075D01*
X108628310Y-65309325D01*
X108616029Y-65325160D01*
X108616024Y-65325167D01*
X108597515Y-65367937D01*
X108594945Y-65373183D01*
X108572503Y-65414005D01*
X108567522Y-65433406D01*
X108561221Y-65451809D01*
X108553262Y-65470201D01*
X108553261Y-65470204D01*
X108545971Y-65516226D01*
X108544787Y-65521945D01*
X108533201Y-65567071D01*
X108533200Y-65567081D01*
X108533200Y-65587115D01*
X108531673Y-65606514D01*
X108528540Y-65626293D01*
X108528540Y-65626294D01*
X106680500Y-65626294D01*
X106680500Y-59757570D01*
X106681031Y-59749470D01*
X106682962Y-59734796D01*
X106694624Y-59661164D01*
X106702528Y-59633137D01*
X106712661Y-59608674D01*
X106714670Y-59604317D01*
X106738569Y-59557413D01*
X106750659Y-59538250D01*
X106769933Y-59513133D01*
X106775253Y-59507065D01*
X106814565Y-59467753D01*
X106820633Y-59462433D01*
X106845750Y-59443159D01*
X106864913Y-59431069D01*
X106911817Y-59407170D01*
X106916174Y-59405161D01*
X106940637Y-59395028D01*
X106968664Y-59387124D01*
X107042284Y-59375463D01*
X107051045Y-59374310D01*
X107056970Y-59373531D01*
X107065070Y-59373000D01*
X126614930Y-59373000D01*
X126623030Y-59373531D01*
G37*
G04 #@! TD.AperFunction*
M02*
